<svg version="1.1" xmlns="http://www.w3.org/2000/svg" viewBox="0 0 483.2421875 570.140625" width="966.484375" height="1140.28125">
  <!-- svg-source:excalidraw -->
  
  <defs>
    <style class="style-fonts">
      @font-face {
        font-family: "Virgil";
        src: url("https://excalidraw.com/Virgil.woff2");
      }
      @font-face {
        font-family: "Cascadia";
        src: url("https://excalidraw.com/Cascadia.woff2");
      }
      @font-face {
        font-family: "Assistant";
        src: url("https://excalidraw.com/Assistant-Regular.woff2");
      }
    </style>
    
  </defs>
  <g stroke-linecap="round" transform="translate(10 10.9296875) rotate(0 73.53515625 39.10546875)"><path d="M19.55 0 C43.8 0.23, 71.12 -0.7, 127.52 0 M19.55 0 C42.84 -0.34, 66.21 -0.43, 127.52 0 M127.52 0 C141.48 1.84, 146.99 6.91, 147.07 19.55 M127.52 0 C142.57 -0.96, 148.96 8.36, 147.07 19.55 M147.07 19.55 C146.5 33.83, 147.56 48.17, 147.07 58.66 M147.07 19.55 C146.32 29.63, 147.17 39.31, 147.07 58.66 M147.07 58.66 C146.21 72.23, 141.93 79.99, 127.52 78.21 M147.07 58.66 C147.73 72.74, 139.46 78.63, 127.52 78.21 M127.52 78.21 C101.58 78.33, 76.77 77.82, 19.55 78.21 M127.52 78.21 C101.07 77.93, 72.51 79.23, 19.55 78.21 M19.55 78.21 C8.46 79.91, 1.59 72.51, 0 58.66 M19.55 78.21 C4.82 80.49, -0.24 70.53, 0 58.66 M0 58.66 C-0.7 44.89, -0.28 30.47, 0 19.55 M0 58.66 C0.12 45.25, 0.63 31.75, 0 19.55 M0 19.55 C-1.68 5.56, 5.63 -0.8, 19.55 0 M0 19.55 C1.84 6.75, 5.56 -0.54, 19.55 0" stroke="#1e1e1e" stroke-width="1" fill="none"></path></g><g transform="translate(57.807167053222656 40.03515625) rotate(0 25.727989196777344 10)"><text x="25.727989196777344" y="0" font-family="Virgil, Segoe UI Emoji" font-size="16px" fill="#1e1e1e" text-anchor="middle" style="white-space: pre;" direction="ltr" dominant-baseline="text-before-edge">Maison</text></g><g stroke-linecap="round" transform="translate(10.390625 119.0859375) rotate(0 73.53515625 39.10546875)"><path d="M19.55 0 C58.2 0.55, 98.84 0.43, 127.52 0 M19.55 0 C42.4 -1.35, 67.78 -0.27, 127.52 0 M127.52 0 C140.1 -1.39, 148.25 6.44, 147.07 19.55 M127.52 0 C138.67 -0.29, 145.33 7.04, 147.07 19.55 M147.07 19.55 C148.82 27.54, 148.45 38.89, 147.07 58.66 M147.07 19.55 C146.74 27.64, 147.79 37.5, 147.07 58.66 M147.07 58.66 C148.67 72.33, 142.14 79.48, 127.52 78.21 M147.07 58.66 C146.09 73.88, 141 76.19, 127.52 78.21 M127.52 78.21 C83.13 80.11, 43.3 79.28, 19.55 78.21 M127.52 78.21 C89.41 78.01, 49.51 78.73, 19.55 78.21 M19.55 78.21 C4.98 79.28, 1.11 72.34, 0 58.66 M19.55 78.21 C8.15 76.28, 2.12 71.12, 0 58.66 M0 58.66 C1.64 45.73, -1.53 34.6, 0 19.55 M0 58.66 C0.3 42.85, 0.11 29.66, 0 19.55 M0 19.55 C-0.33 5.8, 7.99 0.79, 19.55 0 M0 19.55 C1.12 5.62, 4.9 -2.2, 19.55 0" stroke="#1e1e1e" stroke-width="1" fill="none"></path></g><g transform="translate(64.9657974243164 148.19140625) rotate(0 18.959983825683594 10)"><text x="18.959983825683594" y="0" font-family="Virgil, Segoe UI Emoji" font-size="16px" fill="#1e1e1e" text-anchor="middle" style="white-space: pre;" direction="ltr" dominant-baseline="text-before-edge">Chat</text></g><g stroke-linecap="round" transform="translate(13.3671875 350.875) rotate(0 73.53515625 39.10546875)"><path d="M19.55 0 C49.06 -1.21, 75.23 -2.34, 127.52 0 M19.55 0 C46.89 -0.79, 74.74 -1.01, 127.52 0 M127.52 0 C141.9 0.82, 146.58 6.7, 147.07 19.55 M127.52 0 C141.8 -0.22, 149.05 6.49, 147.07 19.55 M147.07 19.55 C146.79 30.05, 148.21 37.4, 147.07 58.66 M147.07 19.55 C146.87 30.98, 147.42 41.4, 147.07 58.66 M147.07 58.66 C146.59 71.43, 140.9 78.42, 127.52 78.21 M147.07 58.66 C148.41 71.8, 140.51 76.21, 127.52 78.21 M127.52 78.21 C86.09 78.24, 47.3 76.34, 19.55 78.21 M127.52 78.21 C84.63 76.88, 41.56 76.43, 19.55 78.21 M19.55 78.21 C6.53 79.43, 0.15 72.34, 0 58.66 M19.55 78.21 C7.06 77.44, 1.93 72.11, 0 58.66 M0 58.66 C-0.72 44.87, 1.41 34.45, 0 19.55 M0 58.66 C-0.2 47.71, 0.26 38.5, 0 19.55 M0 19.55 C-1.48 6.67, 5.51 1.44, 19.55 0 M0 19.55 C-0.49 6.99, 6.57 2.3, 19.55 0" stroke="#1e1e1e" stroke-width="1" fill="none"></path></g><g transform="translate(67.93435668945312 379.98046875) rotate(0 18.967987060546875 10)"><text x="18.967987060546875" y="0" font-family="Virgil, Segoe UI Emoji" font-size="16px" fill="#1e1e1e" text-anchor="middle" style="white-space: pre;" direction="ltr" dominant-baseline="text-before-edge">Chien</text></g><g stroke-linecap="round"><g transform="translate(162.640625 55.45796113437322) rotate(0 68.00390625000006 -3.1014838323797846)"><path d="M0.47 -1.01 C23.07 -2.03, 112.81 -4.32, 135.57 -5.36 M-0.74 1.08 C21.66 -0.34, 111.47 -5.79, 134.39 -7.04" stroke="#1e1e1e" stroke-width="1" fill="none"></path></g><g transform="translate(162.640625 55.45796113437322) rotate(0 68.00390625000006 -3.1014838323797846)"><path d="M111.44 2.86 C116.57 -0.93, 126.53 -1.48, 134.39 -7.04 M111.44 2.86 C115.62 0.35, 120.76 -0.8, 134.39 -7.04" stroke="#1e1e1e" stroke-width="1" fill="none"></path></g><g transform="translate(162.640625 55.45796113437322) rotate(0 68.00390625000006 -3.1014838323797846)"><path d="M110.44 -14.22 C115.99 -12.89, 126.24 -8.33, 134.39 -7.04 M110.44 -14.22 C114.89 -13.07, 120.25 -10.58, 134.39 -7.04" stroke="#1e1e1e" stroke-width="1" fill="none"></path></g></g><mask></mask><g stroke-linecap="round"><g transform="translate(167.66015625 163.40150364136628) rotate(0 72.06445312500006 -0.5071999189627832)"><path d="M-0.68 1.15 C23.35 0.94, 119.99 -1.32, 144.04 -1.88 M1.16 0.7 C25.03 0.67, 119.47 -0.43, 143.05 -0.79" stroke="#1e1e1e" stroke-width="1" fill="none"></path></g><g transform="translate(167.66015625 163.40150364136628) rotate(0 72.06445312500006 -0.5071999189627832)"><path d="M119.67 8.07 C128.37 5.5, 131.76 2.29, 143.05 -0.79 M119.67 8.07 C124.02 6.89, 129.03 3.66, 143.05 -0.79" stroke="#1e1e1e" stroke-width="1" fill="none"></path></g><g transform="translate(167.66015625 163.40150364136628) rotate(0 72.06445312500006 -0.5071999189627832)"><path d="M119.45 -9.03 C128.12 -6.66, 131.58 -4.95, 143.05 -0.79 M119.45 -9.03 C123.98 -6.75, 129.03 -6.52, 143.05 -0.79" stroke="#1e1e1e" stroke-width="1" fill="none"></path></g></g><mask></mask><g stroke-linecap="round"><g transform="translate(165.06640625 388.2919855847104) rotate(0 79.45312500000006 0.42708476325466904)"><path d="M-0.47 0.91 C26.13 0.78, 132.13 -0.04, 158.85 0.12 M1.48 0.35 C27.99 0.28, 131.52 1.32, 157.88 1.28" stroke="#1e1e1e" stroke-width="1" fill="none"></path></g><g transform="translate(165.06640625 388.2919855847104) rotate(0 79.45312500000006 0.42708476325466904)"><path d="M134.34 9.72 C141.36 7.73, 144.17 7.48, 157.88 1.28 M134.34 9.72 C143.22 6.99, 153.17 2.93, 157.88 1.28" stroke="#1e1e1e" stroke-width="1" fill="none"></path></g><g transform="translate(165.06640625 388.2919855847104) rotate(0 79.45312500000006 0.42708476325466904)"><path d="M134.43 -7.39 C141.55 -5.34, 144.35 -1.55, 157.88 1.28 M134.43 -7.39 C143.27 -3.52, 153.18 -0.99, 157.88 1.28" stroke="#1e1e1e" stroke-width="1" fill="none"></path></g></g><mask></mask><g stroke-linecap="round" transform="translate(317.0625 10) rotate(0 73.53515625 39.10546875)"><path d="M19.55 0 C56.78 -0.86, 95.21 2.71, 127.52 0 M19.55 0 C57.57 1.24, 95.91 -0.05, 127.52 0 M127.52 0 C139.7 -1.99, 145.79 6.35, 147.07 19.55 M127.52 0 C141.07 0.58, 146.16 8.45, 147.07 19.55 M147.07 19.55 C147.99 27.33, 144.95 37.13, 147.07 58.66 M147.07 19.55 C145.68 31.24, 146.44 40.35, 147.07 58.66 M147.07 58.66 C146.37 73, 140.67 78.5, 127.52 78.21 M147.07 58.66 C148.73 71.93, 138.26 79.26, 127.52 78.21 M127.52 78.21 C102.26 77.38, 79.99 80.1, 19.55 78.21 M127.52 78.21 C97.53 77.2, 67.72 78.54, 19.55 78.21 M19.55 78.21 C4.86 78.64, -1.68 70.58, 0 58.66 M19.55 78.21 C6.07 76.59, -1.82 73.99, 0 58.66 M0 58.66 C-1.67 43.28, -1.54 26.41, 0 19.55 M0 58.66 C-1.24 47.22, -0.79 36.55, 0 19.55 M0 19.55 C0.18 8.32, 8.07 -0.71, 19.55 0 M0 19.55 C1.57 7.33, 5.27 -0.61, 19.55 0" stroke="#1e1e1e" stroke-width="1" fill="none"></path></g><g transform="translate(368.49366760253906 39.10546875) rotate(0 22.103988647460938 10)"><text x="22.103988647460938" y="0" font-family="Virgil, Segoe UI Emoji" font-size="16px" fill="#2f9e44" text-anchor="middle" style="white-space: pre;" direction="ltr" dominant-baseline="text-before-edge">House</text></g><g stroke-linecap="round" transform="translate(319.8203125 123.7421875) rotate(0 73.53515625 39.10546875)"><path d="M19.55 0 C50.63 -1.07, 78.44 1.57, 127.52 0 M19.55 0 C60.8 -0.29, 103.67 -1.39, 127.52 0 M127.52 0 C140.6 -0.37, 147.89 5.01, 147.07 19.55 M127.52 0 C140.32 -0.77, 145.66 5.18, 147.07 19.55 M147.07 19.55 C147.53 30.69, 148.29 41.57, 147.07 58.66 M147.07 19.55 C147.6 32.6, 146.71 46.63, 147.07 58.66 M147.07 58.66 C145.74 71.81, 141.13 78.11, 127.52 78.21 M147.07 58.66 C145.75 70.82, 142.27 79.01, 127.52 78.21 M127.52 78.21 C87.7 77.45, 46.04 78.07, 19.55 78.21 M127.52 78.21 C89.42 79.36, 51.09 79.62, 19.55 78.21 M19.55 78.21 C6.41 79.24, 1.28 69.74, 0 58.66 M19.55 78.21 C8.54 76.29, 1.38 70.12, 0 58.66 M0 58.66 C0.64 44.7, 1.08 29.97, 0 19.55 M0 58.66 C0.64 43.3, 0.82 29.56, 0 19.55 M0 19.55 C1.24 6.47, 6.67 -1.61, 19.55 0 M0 19.55 C-0.76 4.27, 6.67 -2.01, 19.55 0" stroke="#1e1e1e" stroke-width="1" fill="none"></path></g><g transform="translate(378.3474807739258 152.84765625) rotate(0 15.007987976074219 10)"><text x="15.007987976074219" y="0" font-family="Virgil, Segoe UI Emoji" font-size="16px" fill="#2f9e44" text-anchor="middle" style="white-space: pre;" direction="ltr" dominant-baseline="text-before-edge">Cat</text></g><g stroke-linecap="round"><g transform="translate(90.33414773254935 210.4296875) rotate(0 37.06534800872532 26.890699215717774)"><path d="M0.02 -0.55 C12.6 8.53, 62.79 45.77, 75.25 54.77 M-1.43 1.78 C11.1 10.52, 62.25 44.37, 74.89 53.17" stroke="#1e1e1e" stroke-width="1" fill="none"></path></g><g transform="translate(90.33414773254935 210.4296875) rotate(0 37.06534800872532 26.890699215717774)"><path d="M50.64 47.08 C56.63 50.67, 66.08 51.68, 74.89 53.17 M50.64 47.08 C57.17 48.88, 63.35 50.06, 74.89 53.17" stroke="#1e1e1e" stroke-width="1" fill="none"></path></g><g transform="translate(90.33414773254935 210.4296875) rotate(0 37.06534800872532 26.890699215717774)"><path d="M60.23 32.92 C63.53 40.53, 70.25 45.56, 74.89 53.17 M60.23 32.92 C64.19 38.61, 67.79 43.62, 74.89 53.17" stroke="#1e1e1e" stroke-width="1" fill="none"></path></g></g><mask></mask><g stroke-linecap="round"><g transform="translate(379.140625 207.94140625) rotate(0 -50.263671875 26.90234375)"><path d="M1.05 -0.42 C-15.36 8.39, -82.51 44.7, -99.53 53.91 M0.14 -1.69 C-16.25 7.86, -82.9 46.39, -99.96 55.51" stroke="#1e1e1e" stroke-width="1" fill="none"></path></g><g transform="translate(379.140625 207.94140625) rotate(0 -50.263671875 26.90234375)"><path d="M-83.63 36.57 C-87.6 42.35, -90.15 43.69, -99.96 55.51 M-83.63 36.57 C-89.37 42.92, -96.56 50.96, -99.96 55.51" stroke="#1e1e1e" stroke-width="1" fill="none"></path></g><g transform="translate(379.140625 207.94140625) rotate(0 -50.263671875 26.90234375)"><path d="M-75.28 51.5 C-81.14 54.21, -85.44 52.41, -99.96 55.51 M-75.28 51.5 C-84.11 52.09, -94.52 54.37, -99.96 55.51" stroke="#1e1e1e" stroke-width="1" fill="none"></path></g></g><mask></mask><g stroke-linecap="round" transform="translate(175.0859375 241.67578125) rotate(0 47.75 25.05078125)"><path d="M12.53 0 C30.36 -1.88, 44.11 0.84, 82.97 0 M12.53 0 C28.61 0.6, 45.14 -0.51, 82.97 0 M82.97 0 C90.38 0.4, 93.65 5.96, 95.5 12.53 M82.97 0 C93.12 -1.48, 95.71 2.48, 95.5 12.53 M95.5 12.53 C96.79 19.35, 95.58 26.18, 95.5 37.58 M95.5 12.53 C95.93 17.92, 95.07 24.34, 95.5 37.58 M95.5 37.58 C94.91 46.95, 90.45 50.81, 82.97 50.1 M95.5 37.58 C95.48 43.94, 90.56 51.86, 82.97 50.1 M82.97 50.1 C58.33 49.99, 29.99 51.85, 12.53 50.1 M82.97 50.1 C63.99 49.8, 43.17 51.38, 12.53 50.1 M12.53 50.1 C5.91 48.3, 0.3 46.18, 0 37.58 M12.53 50.1 C6.26 49.94, -1.76 44.67, 0 37.58 M0 37.58 C0.96 31.44, 1.61 26.32, 0 12.53 M0 37.58 C-0.55 31.94, 0.15 26.34, 0 12.53 M0 12.53 C-1.24 5.88, 6.07 -1.84, 12.53 0 M0 12.53 C-1.26 3.04, 5.55 2.18, 12.53 0" stroke="#1e1e1e" stroke-width="1" fill="none"></path></g><g transform="translate(196.14796447753906 256.7265625) rotate(0 26.687973022460938 10)"><text x="26.687973022460938" y="0" font-family="Virgil, Segoe UI Emoji" font-size="16px" fill="#e03131" text-anchor="middle" style="white-space: pre;" direction="ltr" dominant-baseline="text-before-edge">Prompt</text></g><g stroke-linecap="round" transform="translate(326.171875 354.05859375) rotate(0 73.53515625 39.10546875)"><path d="M19.55 0 C57.23 -1.06, 98.47 -0.2, 127.52 0 M19.55 0 C47.67 -0.44, 75.51 0.05, 127.52 0 M127.52 0 C142.28 0.66, 145.69 8.11, 147.07 19.55 M127.52 0 C141.48 0.28, 148.63 5.56, 147.07 19.55 M147.07 19.55 C148.12 31.95, 146.82 48.4, 147.07 58.66 M147.07 19.55 C148.31 34.19, 147.57 48.48, 147.07 58.66 M147.07 58.66 C146.27 71.84, 141.82 77.28, 127.52 78.21 M147.07 58.66 C148.08 71.22, 138.9 79.19, 127.52 78.21 M127.52 78.21 C97.64 79.67, 68.43 78.19, 19.55 78.21 M127.52 78.21 C94.95 78.61, 62.3 77.17, 19.55 78.21 M19.55 78.21 C7.24 77.69, -2 72.83, 0 58.66 M19.55 78.21 C5.83 78.93, -1.68 69.48, 0 58.66 M0 58.66 C-0.75 48.88, 1.33 38.77, 0 19.55 M0 58.66 C0.77 45.88, 0.64 32.21, 0 19.55 M0 19.55 C0.73 7.23, 4.74 -1.53, 19.55 0 M0 19.55 C-1.61 5.13, 4.45 -0.98, 19.55 0" stroke="#1e1e1e" stroke-width="1" fill="none"></path></g><g transform="translate(385.02703857421875 383.1640625) rotate(0 14.67999267578125 10)"><text x="14.67999267578125" y="0" font-family="Virgil, Segoe UI Emoji" font-size="16px" fill="#1e1e1e" text-anchor="middle" style="white-space: pre;" direction="ltr" dominant-baseline="text-before-edge">Dog</text></g><g stroke-linecap="round"><g transform="translate(84.25 434.55078125) rotate(0 36.779296875 30.01953125)"><path d="M-0.37 0.66 C11.82 10.65, 61.93 50.27, 74.19 60.1 M1.64 -0.04 C13.64 10.15, 61.8 51.54, 73.57 61.67" stroke="#e03131" stroke-width="1" fill="none"></path></g><g transform="translate(84.25 434.55078125) rotate(0 36.779296875 30.01953125)"><path d="M50.18 52.84 C60.34 57.38, 68.4 59.16, 73.57 61.67 M50.18 52.84 C57.34 55.3, 62.77 56.76, 73.57 61.67" stroke="#e03131" stroke-width="1" fill="none"></path></g><g transform="translate(84.25 434.55078125) rotate(0 36.779296875 30.01953125)"><path d="M61.33 39.87 C67.19 49.4, 70.93 56.2, 73.57 61.67 M61.33 39.87 C65.45 45.86, 67.92 50.76, 73.57 61.67" stroke="#e03131" stroke-width="1" fill="none"></path></g></g><mask></mask><g stroke-linecap="round"><g transform="translate(395.73828125 443.94140625) rotate(0 -65.37109375 26.515625)"><path d="M1.01 0.12 C-20.62 8.8, -107.78 43.44, -129.9 52.1 M0.07 -0.86 C-21.62 7.94, -108.84 44.19, -130.4 53.15" stroke="#e03131" stroke-width="1" fill="none"></path></g><g transform="translate(395.73828125 443.94140625) rotate(0 -65.37109375 26.515625)"><path d="M-111.99 36.24 C-117.05 42.65, -124.08 44.54, -130.4 53.15 M-111.99 36.24 C-115.05 40.67, -120.9 44.53, -130.4 53.15" stroke="#e03131" stroke-width="1" fill="none"></path></g><g transform="translate(395.73828125 443.94140625) rotate(0 -65.37109375 26.515625)"><path d="M-105.43 52.04 C-112.38 53.98, -121.28 51.34, -130.4 53.15 M-105.43 52.04 C-110.04 52.94, -117.33 53.31, -130.4 53.15" stroke="#e03131" stroke-width="1" fill="none"></path></g></g><mask></mask><g stroke-linecap="round" transform="translate(158.01953125 498.6875) rotate(0 53.99609375 30.7265625)"><path d="M15.36 0 C39.01 -0.12, 58.55 -1.14, 92.63 0 M15.36 0 C33.73 0.35, 54.66 1.17, 92.63 0 M92.63 0 C102.69 -0.48, 107.38 3.39, 107.99 15.36 M92.63 0 C105.08 1.03, 106.08 6.9, 107.99 15.36 M107.99 15.36 C107.6 24.51, 109.4 34.57, 107.99 46.09 M107.99 15.36 C108.41 25.19, 107.38 35.63, 107.99 46.09 M107.99 46.09 C107.71 58.19, 101.05 61.52, 92.63 61.45 M107.99 46.09 C107.19 56.79, 101.55 59.39, 92.63 61.45 M92.63 61.45 C62.89 60.64, 33.68 61.4, 15.36 61.45 M92.63 61.45 C68.74 61.71, 43.39 62.51, 15.36 61.45 M15.36 61.45 C4.64 62.45, 0.57 56.03, 0 46.09 M15.36 61.45 C6.75 59.17, 0.38 57.32, 0 46.09 M0 46.09 C0.99 33.32, -0.14 22.9, 0 15.36 M0 46.09 C-0.41 35.63, 0.38 24.54, 0 15.36 M0 15.36 C-0.29 5.38, 5.48 0.75, 15.36 0 M0 15.36 C1.48 7.04, 6.08 2.22, 15.36 0" stroke="#1e1e1e" stroke-width="1" fill="none"></path></g><g transform="translate(172.50365447998047 519.4140625) rotate(0 39.51197052001953 10)"><text x="39.51197052001953" y="0" font-family="Virgil, Segoe UI Emoji" font-size="16px" fill="#1971c2" text-anchor="middle" style="white-space: pre;" direction="ltr" dominant-baseline="text-before-edge">Completion</text></g></svg>