<svg version="1.1" xmlns="http://www.w3.org/2000/svg" viewBox="0 0 653.0625 346" width="1959.1875" height="1038">
  <!-- svg-source:excalidraw -->
  
  <defs>
    <style class="style-fonts">
      @font-face {
        font-family: "Virgil";
        src: url("https://excalidraw.com/Virgil.woff2");
      }
      @font-face {
        font-family: "Cascadia";
        src: url("https://excalidraw.com/Cascadia.woff2");
      }
      @font-face {
        font-family: "Assistant";
        src: url("https://excalidraw.com/Assistant-Regular.woff2");
      }
    </style>
    
  </defs>
  <g stroke-linecap="round" transform="translate(10 113) rotate(0 59 51.5)"><path d="M25.75 0 C47.78 1.02, 67.39 -0.73, 92.25 0 M25.75 0 C44.38 1.15, 63.11 1, 92.25 0 M92.25 0 C109.1 -1.21, 117.85 6.79, 118 25.75 M92.25 0 C109.54 -2.3, 118.37 10.08, 118 25.75 M118 25.75 C118.2 41.41, 119.31 55.66, 118 77.25 M118 25.75 C117.62 41.18, 118.5 56.93, 118 77.25 M118 77.25 C119.48 95.06, 111.24 101.7, 92.25 103 M118 77.25 C118.13 94.61, 108.95 101.57, 92.25 103 M92.25 103 C77.4 103.12, 63.53 101.8, 25.75 103 M92.25 103 C77.47 103.49, 61.72 103.4, 25.75 103 M25.75 103 C10.04 101.42, 0.46 93.99, 0 77.25 M25.75 103 C6.81 103.7, -0.83 93.99, 0 77.25 M0 77.25 C1.71 62.85, 0.58 50.78, 0 25.75 M0 77.25 C0.37 61.92, 0.33 45.08, 0 25.75 M0 25.75 C-0.6 8.11, 6.76 1.79, 25.75 0 M0 25.75 C-0.83 8.34, 6.62 -0.19, 25.75 0" stroke="#e03131" stroke-width="2" fill="none"></path></g><g transform="translate(38 139) rotate(0 25.5 28)" stroke="none"><path fill="#e03131" d="M 0.82,-1.36 Q 0.82,-1.36 2.29,-0.54 3.77,0.28 5.69,2.58 7.62,4.87 13.54,13.01 19.47,21.16 23.10,26.04 26.74,30.91 29.41,34.12 32.08,37.32 33.53,39.30 34.98,41.29 37.79,43.74 40.59,46.19 42.70,48.16 44.81,50.12 46.77,51.47 48.74,52.81 50.28,53.80 51.82,54.79 51.99,54.95 52.16,55.12 52.27,55.33 52.38,55.54 52.42,55.77 52.46,56.00 52.42,56.24 52.38,56.47 52.26,56.68 52.15,56.89 51.98,57.05 51.81,57.21 51.59,57.31 51.38,57.40 51.14,57.43 50.91,57.45 50.68,57.40 50.45,57.35 50.24,57.23 50.04,57.10 49.89,56.92 49.74,56.74 49.65,56.52 49.57,56.30 49.56,56.06 49.54,55.83 49.61,55.60 49.67,55.37 49.81,55.18 49.94,54.98 50.13,54.84 50.32,54.70 50.54,54.63 50.77,54.55 51.00,54.55 51.24,54.56 51.46,54.63 51.69,54.71 51.87,54.85 52.06,55.00 52.19,55.19 52.32,55.39 52.39,55.62 52.45,55.85 52.43,56.08 52.42,56.32 52.33,56.54 52.24,56.76 52.09,56.93 51.93,57.11 51.73,57.23 51.53,57.36 51.30,57.40 51.07,57.45 50.83,57.43 50.60,57.40 50.38,57.30 50.17,57.20 50.17,57.20 50.17,57.20 48.69,56.11 47.22,55.03 45.09,53.57 42.97,52.11 40.88,50.18 38.79,48.26 35.77,45.61 32.75,42.96 31.33,41.05 29.90,39.15 27.15,35.91 24.40,32.68 20.71,27.82 17.01,22.96 11.09,14.94 5.17,6.93 3.57,5.05 1.97,3.16 0.57,2.26 -0.82,1.36 -0.97,1.25 -1.12,1.13 -1.24,0.98 -1.36,0.83 -1.44,0.65 -1.52,0.47 -1.55,0.29 -1.59,0.10 -1.58,-0.09 -1.57,-0.28 -1.51,-0.46 -1.45,-0.65 -1.35,-0.81 -1.25,-0.98 -1.12,-1.11 -0.98,-1.25 -0.82,-1.35 -0.65,-1.45 -0.47,-1.51 -0.29,-1.56 -0.10,-1.58 0.09,-1.59 0.28,-1.55 0.47,-1.52 0.64,-1.44 0.82,-1.36 0.82,-1.36 L 0.82,-1.36 Z"></path></g><g transform="translate(90 145) rotate(0 -22.5 24)" stroke="none"><path fill="#e03131" d="M 1.26,1.10 Q 1.26,1.10 -0.78,3.37 -2.83,5.64 -7.19,10.07 -11.55,14.50 -16.26,19.52 -20.98,24.53 -26.74,30.41 -32.50,36.29 -35.24,39.07 -37.97,41.85 -39.68,43.85 -41.39,45.85 -42.65,47.38 -43.91,48.91 -44.09,49.06 -44.26,49.21 -44.47,49.29 -44.69,49.38 -44.92,49.39 -45.15,49.41 -45.37,49.34 -45.59,49.28 -45.78,49.15 -45.97,49.03 -46.11,48.84 -46.25,48.66 -46.32,48.44 -46.39,48.23 -46.40,48.00 -46.40,47.77 -46.32,47.55 -46.25,47.33 -46.11,47.15 -45.97,46.97 -45.78,46.84 -45.59,46.71 -45.37,46.65 -45.15,46.58 -44.92,46.60 -44.69,46.61 -44.48,46.69 -44.27,46.78 -44.09,46.93 -43.91,47.08 -43.80,47.27 -43.68,47.47 -43.63,47.69 -43.58,47.92 -43.60,48.14 -43.63,48.37 -43.72,48.58 -43.82,48.79 -43.98,48.96 -44.13,49.12 -44.34,49.23 -44.54,49.34 -44.77,49.38 -44.99,49.41 -45.22,49.38 -45.45,49.34 -45.65,49.23 -45.85,49.13 -46.01,48.96 -46.17,48.79 -46.26,48.58 -46.36,48.38 -46.39,48.15 -46.41,47.92 -46.36,47.70 -46.31,47.47 -46.20,47.27 -46.08,47.08 -46.08,47.08 -46.08,47.08 -44.78,45.58 -43.48,44.09 -41.72,41.99 -39.96,39.90 -37.24,37.11 -34.53,34.31 -28.82,28.43 -23.10,22.55 -18.41,17.47 -13.71,12.40 -9.46,7.98 -5.21,3.55 -3.24,1.22 -1.26,-1.10 -1.11,-1.24 -0.96,-1.37 -0.78,-1.47 -0.60,-1.56 -0.40,-1.61 -0.21,-1.66 -0.01,-1.66 0.19,-1.67 0.38,-1.62 0.58,-1.57 0.76,-1.48 0.94,-1.38 1.09,-1.25 1.25,-1.12 1.36,-0.95 1.48,-0.79 1.55,-0.60 1.63,-0.41 1.65,-0.21 1.68,-0.01 1.65,0.19 1.63,0.39 1.56,0.58 1.49,0.77 1.37,0.93 1.26,1.10 1.26,1.10 L 1.26,1.10 Z"></path></g><g stroke-linecap="round"><g transform="translate(147 171) rotate(0 77 0)"><path d="M0.24 -0.17 C25.74 -0.32, 128.4 0, 153.84 -0.06 M-1.1 -1.3 C24.16 -1.33, 126.76 1.15, 152.81 1.45" stroke="#2f9e44" stroke-width="1" fill="none"></path></g><g transform="translate(147 171) rotate(0 77 0)"><path d="M129.16 9.57 C137.58 6.25, 146.52 1.68, 152.81 1.45 M129.16 9.57 C135.58 7.51, 140.65 5.51, 152.81 1.45" stroke="#2f9e44" stroke-width="1" fill="none"></path></g><g transform="translate(147 171) rotate(0 77 0)"><path d="M129.48 -7.53 C137.91 -4.52, 146.73 -2.75, 152.81 1.45 M129.48 -7.53 C135.9 -5.2, 140.9 -2.82, 152.81 1.45" stroke="#2f9e44" stroke-width="1" fill="none"></path></g></g><mask></mask><g stroke-linecap="round"><g transform="translate(443 167) rotate(0 77 0)"><path d="M-0.17 -0.16 C25.34 -0.38, 128.34 -1.23, 153.94 -1.1 M-1.71 -1.29 C23.56 -1.42, 127.28 -0.13, 152.97 -0.14" stroke="#2f9e44" stroke-width="1" fill="none"></path></g><g transform="translate(443 167) rotate(0 77 0)"><path d="M129.42 8.26 C137.94 5.06, 145.19 1.14, 152.97 -0.14 M129.42 8.26 C137.67 4.58, 146.09 1.32, 152.97 -0.14" stroke="#2f9e44" stroke-width="1" fill="none"></path></g><g transform="translate(443 167) rotate(0 77 0)"><path d="M129.53 -8.85 C138.05 -5.65, 145.25 -3.16, 152.97 -0.14 M129.53 -8.85 C137.61 -6.46, 145.99 -3.66, 152.97 -0.14" stroke="#2f9e44" stroke-width="1" fill="none"></path></g></g><mask></mask><g stroke-linecap="round" transform="translate(322 10) rotate(0 51.5 163)"><path d="M25.75 0 C39.65 1.56, 53.75 1.25, 77.25 0 M25.75 0 C39.49 0.09, 54.02 0.2, 77.25 0 M77.25 0 C95.72 -0.22, 104.74 8.46, 103 25.75 M77.25 0 C94.13 0.88, 104 8.72, 103 25.75 M103 25.75 C103.58 108.72, 104.95 192.17, 103 300.25 M103 25.75 C103.18 128.44, 103.75 230.89, 103 300.25 M103 300.25 C101.76 315.92, 94.53 324.73, 77.25 326 M103 300.25 C103.14 318.04, 95.81 325.1, 77.25 326 M77.25 326 C66.84 326.54, 54.51 326.36, 25.75 326 M77.25 326 C57.83 325.35, 39.13 325.76, 25.75 326 M25.75 326 C8.21 325.3, -1.88 315.53, 0 300.25 M25.75 326 C9.99 325.13, 0.11 318.34, 0 300.25 M0 300.25 C0.44 216.47, 0.38 130.35, 0 25.75 M0 300.25 C1.19 225.83, 0.42 151.31, 0 25.75 M0 25.75 C-0.16 7.52, 9.64 1.68, 25.75 0 M0 25.75 C1.93 6.86, 7.85 1.76, 25.75 0" stroke="#f08c00" stroke-width="2" fill="none"></path></g><g transform="translate(341 57) rotate(0 25 23)" stroke="none"><path fill="#f08c00" d="M 1.31,-1.55 Q 1.31,-1.55 4.98,1.68 8.66,4.91 13.67,9.49 18.68,14.07 25.11,20.05 31.53,26.04 35.41,29.75 39.28,33.46 42.04,35.88 44.81,38.31 46.10,39.65 47.40,40.99 48.26,41.76 49.12,42.52 50.26,43.58 51.40,44.64 51.58,44.90 51.76,45.16 51.85,45.46 51.94,45.77 51.92,46.08 51.91,46.40 51.79,46.69 51.68,46.99 51.48,47.23 51.28,47.47 51.01,47.64 50.74,47.81 50.43,47.88 50.12,47.95 49.80,47.92 49.49,47.88 49.20,47.75 48.91,47.62 48.68,47.41 48.45,47.19 48.30,46.91 48.15,46.64 48.09,46.32 48.04,46.01 48.09,45.70 48.14,45.39 48.28,45.11 48.43,44.83 48.65,44.61 48.88,44.39 49.17,44.25 49.45,44.11 49.77,44.08 50.08,44.04 50.39,44.11 50.70,44.17 50.98,44.33 51.25,44.49 51.45,44.73 51.66,44.97 51.78,45.26 51.90,45.56 51.92,45.87 51.94,46.19 51.86,46.49 51.78,46.80 51.60,47.06 51.43,47.33 51.18,47.52 50.93,47.72 50.63,47.82 50.33,47.92 50.01,47.93 49.70,47.93 49.39,47.83 49.09,47.73 48.84,47.54 48.59,47.35 48.59,47.35 48.59,47.35 47.55,46.16 46.52,44.96 45.79,44.03 45.07,43.10 43.98,41.81 42.89,40.52 40.05,38.09 37.20,35.67 33.29,32.03 29.37,28.39 22.89,22.49 16.41,16.60 11.35,12.16 6.28,7.73 2.48,4.64 -1.31,1.55 -1.48,1.37 -1.64,1.19 -1.76,0.97 -1.88,0.76 -1.94,0.52 -2.01,0.29 -2.01,0.04 -2.02,-0.19 -1.97,-0.43 -1.91,-0.67 -1.80,-0.89 -1.69,-1.11 -1.54,-1.30 -1.38,-1.49 -1.18,-1.63 -0.98,-1.77 -0.75,-1.87 -0.53,-1.96 -0.28,-1.99 -0.04,-2.03 0.19,-2.00 0.44,-1.98 0.67,-1.90 0.90,-1.82 1.10,-1.68 1.31,-1.55 1.31,-1.55 L 1.31,-1.55 Z"></path></g><g transform="translate(357 106) rotate(0 27.5 27.5)" stroke="none"><path fill="#f08c00" d="M 1.24,-1.24 Q 1.24,-1.24 4.07,1.67 6.90,4.59 9.53,7.28 12.16,9.97 23.90,21.46 35.64,32.96 41.50,39.02 47.36,45.08 51.68,49.55 56.00,54.02 56.13,54.20 56.26,54.39 56.33,54.61 56.39,54.82 56.38,55.05 56.37,55.28 56.29,55.49 56.21,55.70 56.06,55.88 55.92,56.05 55.72,56.17 55.53,56.29 55.31,56.34 55.09,56.40 54.86,56.37 54.64,56.35 54.43,56.26 54.22,56.17 54.06,56.01 53.89,55.86 53.78,55.66 53.67,55.46 53.63,55.24 53.59,55.01 53.62,54.79 53.66,54.56 53.76,54.36 53.87,54.16 54.03,54.00 54.19,53.84 54.40,53.75 54.60,53.65 54.83,53.62 55.05,53.59 55.28,53.64 55.50,53.68 55.69,53.80 55.89,53.91 56.04,54.08 56.19,54.26 56.28,54.47 56.36,54.68 56.38,54.90 56.39,55.13 56.33,55.35 56.28,55.57 56.15,55.76 56.03,55.95 55.85,56.09 55.67,56.23 55.45,56.30 55.24,56.38 55.01,56.38 54.79,56.38 54.57,56.31 54.35,56.24 54.17,56.11 53.99,55.97 53.99,55.97 53.99,55.97 49.64,51.53 45.30,47.09 39.43,41.09 33.56,35.09 21.76,23.62 9.97,12.16 7.28,9.53 4.59,6.90 1.67,4.07 -1.24,1.24 -1.37,1.07 -1.50,0.90 -1.59,0.71 -1.67,0.52 -1.71,0.31 -1.75,0.10 -1.74,-0.10 -1.72,-0.31 -1.66,-0.51 -1.60,-0.72 -1.49,-0.90 -1.38,-1.08 -1.23,-1.23 -1.08,-1.38 -0.90,-1.49 -0.72,-1.60 -0.51,-1.66 -0.31,-1.72 -0.10,-1.74 0.10,-1.75 0.31,-1.71 0.52,-1.67 0.71,-1.59 0.90,-1.50 1.07,-1.37 1.24,-1.24 1.24,-1.24 L 1.24,-1.24 Z"></path></g><g transform="translate(350 165) rotate(0 22.5 20)" stroke="none"><path fill="#f08c00" d="M 1.13,-1.44 Q 1.13,-1.44 5.11,1.77 9.09,4.99 14.56,10.15 20.03,15.32 27.19,21.81 34.36,28.30 37.67,31.05 40.97,33.80 42.46,35.31 43.94,36.82 45.06,37.83 46.17,38.84 46.33,39.06 46.48,39.28 46.55,39.54 46.63,39.79 46.62,40.06 46.61,40.32 46.51,40.57 46.42,40.82 46.25,41.03 46.08,41.23 45.85,41.37 45.63,41.52 45.37,41.58 45.11,41.64 44.84,41.61 44.58,41.59 44.34,41.48 44.09,41.37 43.90,41.19 43.70,41.01 43.57,40.78 43.44,40.54 43.40,40.28 43.35,40.02 43.39,39.76 43.43,39.49 43.55,39.26 43.67,39.02 43.86,38.83 44.05,38.65 44.29,38.53 44.53,38.42 44.79,38.38 45.06,38.35 45.32,38.40 45.58,38.46 45.81,38.59 46.04,38.72 46.22,38.92 46.39,39.12 46.50,39.37 46.60,39.62 46.62,39.88 46.63,40.15 46.57,40.41 46.50,40.66 46.35,40.89 46.21,41.11 46.00,41.27 45.79,41.44 45.54,41.53 45.29,41.62 45.02,41.62 44.75,41.62 44.50,41.54 44.25,41.46 44.03,41.30 43.82,41.15 43.82,41.15 43.82,41.15 42.83,40.01 41.84,38.87 40.48,37.46 39.12,36.06 35.72,33.31 32.33,30.56 25.09,24.10 17.85,17.65 12.42,12.65 7.00,7.65 2.93,4.55 -1.13,1.44 -1.29,1.28 -1.45,1.13 -1.56,0.94 -1.67,0.75 -1.74,0.54 -1.81,0.32 -1.82,0.10 -1.83,-0.11 -1.79,-0.33 -1.75,-0.54 -1.66,-0.75 -1.57,-0.95 -1.43,-1.12 -1.29,-1.30 -1.12,-1.43 -0.94,-1.57 -0.74,-1.66 -0.54,-1.75 -0.32,-1.79 -0.10,-1.83 0.11,-1.82 0.33,-1.80 0.54,-1.74 0.75,-1.67 0.94,-1.56 1.13,-1.44 1.13,-1.44 L 1.13,-1.44 Z"></path></g><g transform="translate(354 221) rotate(0 15 12)" stroke="none"><path fill="#f08c00" d="M 0.97,-1.46 Q 0.97,-1.46 3.53,0.31 6.08,2.08 9.83,5.51 13.58,8.93 17.71,12.67 21.84,16.40 24.39,18.23 26.94,20.07 28.87,21.46 30.81,22.85 30.97,23.01 31.13,23.17 31.23,23.37 31.33,23.58 31.37,23.80 31.40,24.02 31.36,24.25 31.32,24.47 31.21,24.67 31.09,24.87 30.93,25.02 30.76,25.17 30.55,25.26 30.34,25.36 30.12,25.38 29.89,25.40 29.67,25.34 29.45,25.29 29.26,25.17 29.06,25.05 28.92,24.87 28.78,24.69 28.70,24.48 28.62,24.27 28.61,24.04 28.60,23.81 28.67,23.60 28.73,23.38 28.87,23.19 29.00,23.01 29.18,22.87 29.36,22.74 29.58,22.67 29.80,22.60 30.02,22.61 30.25,22.61 30.47,22.69 30.68,22.77 30.86,22.91 31.03,23.05 31.16,23.24 31.28,23.43 31.34,23.65 31.39,23.87 31.38,24.10 31.36,24.33 31.27,24.54 31.18,24.74 31.03,24.91 30.88,25.08 30.68,25.20 30.49,25.31 30.26,25.35 30.04,25.40 29.82,25.37 29.59,25.34 29.39,25.24 29.18,25.14 29.18,25.14 29.18,25.14 27.23,23.78 25.28,22.41 22.57,20.51 19.86,18.62 15.69,14.93 11.51,11.24 7.88,8.02 4.26,4.81 1.64,3.13 -0.97,1.46 -1.13,1.32 -1.29,1.18 -1.42,1.01 -1.54,0.84 -1.62,0.64 -1.70,0.44 -1.72,0.23 -1.75,0.02 -1.73,-0.18 -1.71,-0.39 -1.64,-0.59 -1.57,-0.79 -1.45,-0.96 -1.33,-1.14 -1.17,-1.28 -1.02,-1.43 -0.83,-1.53 -0.64,-1.63 -0.44,-1.68 -0.24,-1.74 -0.02,-1.74 0.18,-1.74 0.39,-1.70 0.59,-1.65 0.78,-1.55 0.97,-1.46 0.97,-1.46 L 0.97,-1.46 Z"></path></g><g transform="translate(349 262) rotate(0 24.5 18.5)" stroke="none"><path fill="#f08c00" d="M 1.07,-1.39 Q 1.07,-1.39 4.77,1.52 8.47,4.45 18.94,12.60 29.42,20.76 34.99,24.80 40.56,28.84 43.23,30.86 45.90,32.89 47.87,34.38 49.84,35.87 49.99,36.03 50.15,36.20 50.25,36.40 50.34,36.61 50.37,36.83 50.40,37.06 50.35,37.28 50.30,37.50 50.19,37.70 50.07,37.90 49.90,38.04 49.73,38.19 49.52,38.28 49.31,38.36 49.08,38.38 48.85,38.39 48.63,38.33 48.42,38.27 48.23,38.15 48.04,38.02 47.90,37.84 47.76,37.66 47.69,37.45 47.61,37.23 47.61,37.01 47.61,36.78 47.68,36.56 47.75,36.35 47.89,36.17 48.02,35.98 48.21,35.85 48.40,35.73 48.61,35.66 48.83,35.60 49.06,35.61 49.29,35.62 49.50,35.70 49.71,35.79 49.88,35.93 50.06,36.08 50.18,36.27 50.30,36.47 50.35,36.69 50.40,36.91 50.37,37.13 50.35,37.36 50.26,37.57 50.16,37.77 50.01,37.94 49.85,38.11 49.65,38.21 49.45,38.32 49.23,38.36 49.01,38.40 48.78,38.36 48.56,38.33 48.36,38.22 48.15,38.12 48.15,38.12 48.15,38.12 46.17,36.66 44.18,35.19 41.51,33.22 38.83,31.25 33.18,27.23 27.52,23.21 17.00,15.13 6.47,7.04 2.70,4.22 -1.07,1.39 -1.22,1.24 -1.37,1.09 -1.48,0.91 -1.59,0.73 -1.66,0.53 -1.72,0.33 -1.74,0.12 -1.75,-0.09 -1.71,-0.29 -1.68,-0.50 -1.59,-0.70 -1.51,-0.89 -1.38,-1.06 -1.25,-1.23 -1.08,-1.36 -0.92,-1.49 -0.73,-1.58 -0.53,-1.67 -0.32,-1.71 -0.12,-1.75 0.09,-1.74 0.30,-1.73 0.50,-1.67 0.70,-1.60 0.89,-1.50 1.07,-1.39 1.07,-1.39 L 1.07,-1.39 Z"></path></g><g transform="translate(376 27) rotate(0 8.5 8)" stroke="none"><path fill="#f08c00" d="M 1.48,-1.66 Q 1.48,-1.66 3.98,0.72 6.49,3.11 8.12,4.74 9.75,6.37 11.05,7.61 12.36,8.85 13.52,9.92 14.68,11.00 15.50,11.70 16.33,12.40 17.44,13.41 18.56,14.42 18.77,14.71 18.98,15.00 19.09,15.34 19.20,15.69 19.19,16.05 19.18,16.41 19.06,16.74 18.93,17.08 18.71,17.36 18.48,17.64 18.18,17.84 17.88,18.03 17.53,18.12 17.18,18.21 16.82,18.18 16.47,18.15 16.14,18.01 15.80,17.87 15.54,17.63 15.27,17.39 15.09,17.08 14.91,16.77 14.84,16.41 14.77,16.06 14.82,15.71 14.87,15.35 15.03,15.03 15.19,14.70 15.44,14.45 15.69,14.19 16.01,14.03 16.34,13.87 16.69,13.82 17.05,13.77 17.40,13.84 17.75,13.91 18.07,14.08 18.38,14.26 18.62,14.53 18.86,14.79 19.01,15.12 19.15,15.45 19.18,15.81 19.21,16.17 19.12,16.52 19.04,16.87 18.85,17.17 18.65,17.47 18.37,17.70 18.09,17.93 17.76,18.05 17.42,18.18 17.06,18.19 16.70,18.20 16.36,18.09 16.01,17.99 15.72,17.78 15.43,17.57 15.43,17.57 15.43,17.57 14.42,16.47 13.40,15.36 12.70,14.55 11.99,13.74 10.91,12.62 9.83,11.49 8.56,10.26 7.29,9.03 5.57,7.55 3.85,6.08 1.18,3.87 -1.48,1.66 -1.65,1.46 -1.83,1.26 -1.96,1.02 -2.08,0.78 -2.14,0.52 -2.21,0.26 -2.21,-0.00 -2.21,-0.27 -2.14,-0.53 -2.08,-0.79 -1.95,-1.03 -1.83,-1.26 -1.65,-1.47 -1.47,-1.67 -1.25,-1.82 -1.03,-1.97 -0.78,-2.07 -0.52,-2.16 -0.26,-2.19 0.00,-2.22 0.27,-2.19 0.53,-2.16 0.78,-2.06 1.03,-1.97 1.26,-1.81 1.48,-1.66 1.48,-1.66 L 1.48,-1.66 Z"></path></g><g transform="translate(348 308) rotate(0 6.5 6)" stroke="none"><path fill="#f08c00" d="M 1.73,-1.73 Q 1.73,-1.73 3.08,-0.21 4.43,1.31 5.61,2.50 6.78,3.69 7.77,4.36 8.76,5.02 9.49,5.83 10.21,6.63 12.63,8.54 15.05,10.45 15.25,10.81 15.44,11.18 15.51,11.60 15.57,12.01 15.50,12.42 15.43,12.83 15.24,13.20 15.04,13.56 14.74,13.85 14.43,14.14 14.05,14.31 13.67,14.48 13.26,14.52 12.84,14.57 12.44,14.48 12.03,14.38 11.67,14.17 11.32,13.95 11.05,13.63 10.78,13.31 10.63,12.92 10.48,12.54 10.45,12.12 10.43,11.70 10.55,11.30 10.66,10.90 10.90,10.56 11.13,10.21 11.47,9.96 11.80,9.71 12.19,9.58 12.59,9.45 13.01,9.45 13.42,9.45 13.82,9.59 14.21,9.72 14.54,9.98 14.88,10.23 15.11,10.58 15.34,10.92 15.45,11.33 15.56,11.73 15.53,12.15 15.51,12.56 15.35,12.95 15.20,13.33 14.93,13.65 14.65,13.97 14.30,14.18 13.94,14.39 13.53,14.48 13.12,14.57 12.71,14.52 12.29,14.47 11.92,14.30 11.54,14.12 11.24,13.83 10.94,13.54 10.94,13.54 10.94,13.54 9.67,12.37 8.41,11.20 7.22,9.91 6.04,8.63 4.87,7.71 3.70,6.79 2.50,5.61 1.31,4.43 -0.21,3.08 -1.73,1.73 -1.91,1.50 -2.10,1.27 -2.22,1.00 -2.34,0.73 -2.39,0.43 -2.45,0.14 -2.43,-0.14 -2.41,-0.44 -2.32,-0.72 -2.23,-1.00 -2.08,-1.26 -1.93,-1.51 -1.72,-1.72 -1.51,-1.93 -1.26,-2.08 -1.00,-2.23 -0.72,-2.32 -0.44,-2.41 -0.14,-2.43 0.14,-2.45 0.43,-2.39 0.73,-2.34 1.00,-2.22 1.27,-2.10 1.50,-1.91 1.73,-1.73 1.73,-1.73 L 1.73,-1.73 Z"></path></g><g transform="translate(622 144.39999999999998) rotate(0 10.53125 21.600000000000023)"><text x="0" y="0" font-family="Cascadia, Segoe UI Emoji" font-size="36px" fill="#1971c2" text-anchor="start" style="white-space: pre;" direction="ltr" dominant-baseline="text-before-edge">O</text></g></svg>