<svg xmlns="http://www.w3.org/2000/svg" xmlns:xlink="http://www.w3.org/1999/xlink" version="1.1" class="marks" width="806" height="380" viewBox="0 0 806 380"><rect width="806" height="380" fill="white"/><g fill="none" stroke-miterlimit="10" transform="translate(52,34)"><g class="mark-group role-frame root" role="graphics-object" aria-roledescription="group mark container"><g transform="translate(0,0)"><path class="background" aria-hidden="true" d="M0.5,0.5h600v300h-600Z" stroke="#ddd"/><g><g class="mark-group role-axis" aria-hidden="true"><g transform="translate(0.5,300.5)"><path class="background" aria-hidden="true" d="M0,0h0v0h0Z" pointer-events="none"/><g><g class="mark-rule role-axis-grid" pointer-events="none"><line transform="translate(0,-300)" x2="0" y2="300" stroke="#ddd" stroke-width="1" opacity="1"/><line transform="translate(30,-300)" x2="0" y2="300" stroke="#ddd" stroke-width="1" opacity="1"/><line transform="translate(60,-300)" x2="0" y2="300" stroke="#ddd" stroke-width="1" opacity="1"/><line transform="translate(90,-300)" x2="0" y2="300" stroke="#ddd" stroke-width="1" opacity="1"/><line transform="translate(120,-300)" x2="0" y2="300" stroke="#ddd" stroke-width="1" opacity="1"/><line transform="translate(150,-300)" x2="0" y2="300" stroke="#ddd" stroke-width="1" opacity="1"/><line transform="translate(180,-300)" x2="0" y2="300" stroke="#ddd" stroke-width="1" opacity="1"/><line transform="translate(210,-300)" x2="0" y2="300" stroke="#ddd" stroke-width="1" opacity="1"/><line transform="translate(240,-300)" x2="0" y2="300" stroke="#ddd" stroke-width="1" opacity="1"/><line transform="translate(270,-300)" x2="0" y2="300" stroke="#ddd" stroke-width="1" opacity="1"/><line transform="translate(300,-300)" x2="0" y2="300" stroke="#ddd" stroke-width="1" opacity="1"/><line transform="translate(330,-300)" x2="0" y2="300" stroke="#ddd" stroke-width="1" opacity="1"/><line transform="translate(360,-300)" x2="0" y2="300" stroke="#ddd" stroke-width="1" opacity="1"/><line transform="translate(390,-300)" x2="0" y2="300" stroke="#ddd" stroke-width="1" opacity="1"/><line transform="translate(420,-300)" x2="0" y2="300" stroke="#ddd" stroke-width="1" opacity="1"/><line transform="translate(450,-300)" x2="0" y2="300" stroke="#ddd" stroke-width="1" opacity="1"/><line transform="translate(480,-300)" x2="0" y2="300" stroke="#ddd" stroke-width="1" opacity="1"/><line transform="translate(510,-300)" x2="0" y2="300" stroke="#ddd" stroke-width="1" opacity="1"/><line transform="translate(540,-300)" x2="0" y2="300" stroke="#ddd" stroke-width="1" opacity="1"/><line transform="translate(570,-300)" x2="0" y2="300" stroke="#ddd" stroke-width="1" opacity="1"/><line transform="translate(600,-300)" x2="0" y2="300" stroke="#ddd" stroke-width="1" opacity="1"/></g></g><path class="foreground" aria-hidden="true" d="" pointer-events="none" display="none"/></g></g><g class="mark-group role-axis" aria-hidden="true"><g transform="translate(0.5,0.5)"><path class="background" aria-hidden="true" d="M0,0h0v0h0Z" pointer-events="none"/><g><g class="mark-rule role-axis-grid" pointer-events="none"><line transform="translate(0,300)" x2="600" y2="0" stroke="#ddd" stroke-width="1" opacity="1"/><line transform="translate(0,270)" x2="600" y2="0" stroke="#ddd" stroke-width="1" opacity="1"/><line transform="translate(0,240)" x2="600" y2="0" stroke="#ddd" stroke-width="1" opacity="1"/><line transform="translate(0,210)" x2="600" y2="0" stroke="#ddd" stroke-width="1" opacity="1"/><line transform="translate(0,180)" x2="600" y2="0" stroke="#ddd" stroke-width="1" opacity="1"/><line transform="translate(0,150)" x2="600" y2="0" stroke="#ddd" stroke-width="1" opacity="1"/><line transform="translate(0,120)" x2="600" y2="0" stroke="#ddd" stroke-width="1" opacity="1"/><line transform="translate(0,90)" x2="600" y2="0" stroke="#ddd" stroke-width="1" opacity="1"/><line transform="translate(0,60)" x2="600" y2="0" stroke="#ddd" stroke-width="1" opacity="1"/><line transform="translate(0,30)" x2="600" y2="0" stroke="#ddd" stroke-width="1" opacity="1"/><line transform="translate(0,0)" x2="600" y2="0" stroke="#ddd" stroke-width="1" opacity="1"/></g></g><path class="foreground" aria-hidden="true" d="" pointer-events="none" display="none"/></g></g><g class="mark-group role-axis" role="graphics-symbol" aria-roledescription="axis" aria-label="X-axis titled 'Episode' for a linear scale with values from 0 to 1,000"><g transform="translate(0.5,300.5)"><path class="background" aria-hidden="true" d="M0,0h0v0h0Z" pointer-events="none"/><g><g class="mark-rule role-axis-tick" pointer-events="none"><line transform="translate(0,0)" x2="0" y2="5" stroke="#888" stroke-width="1" opacity="1"/><line transform="translate(30,0)" x2="0" y2="5" stroke="#888" stroke-width="1" opacity="1"/><line transform="translate(60,0)" x2="0" y2="5" stroke="#888" stroke-width="1" opacity="1"/><line transform="translate(90,0)" x2="0" y2="5" stroke="#888" stroke-width="1" opacity="1"/><line transform="translate(120,0)" x2="0" y2="5" stroke="#888" stroke-width="1" opacity="1"/><line transform="translate(150,0)" x2="0" y2="5" stroke="#888" stroke-width="1" opacity="1"/><line transform="translate(180,0)" x2="0" y2="5" stroke="#888" stroke-width="1" opacity="1"/><line transform="translate(210,0)" x2="0" y2="5" stroke="#888" stroke-width="1" opacity="1"/><line transform="translate(240,0)" x2="0" y2="5" stroke="#888" stroke-width="1" opacity="1"/><line transform="translate(270,0)" x2="0" y2="5" stroke="#888" stroke-width="1" opacity="1"/><line transform="translate(300,0)" x2="0" y2="5" stroke="#888" stroke-width="1" opacity="1"/><line transform="translate(330,0)" x2="0" y2="5" stroke="#888" stroke-width="1" opacity="1"/><line transform="translate(360,0)" x2="0" y2="5" stroke="#888" stroke-width="1" opacity="1"/><line transform="translate(390,0)" x2="0" y2="5" stroke="#888" stroke-width="1" opacity="1"/><line transform="translate(420,0)" x2="0" y2="5" stroke="#888" stroke-width="1" opacity="1"/><line transform="translate(450,0)" x2="0" y2="5" stroke="#888" stroke-width="1" opacity="1"/><line transform="translate(480,0)" x2="0" y2="5" stroke="#888" stroke-width="1" opacity="1"/><line transform="translate(510,0)" x2="0" y2="5" stroke="#888" stroke-width="1" opacity="1"/><line transform="translate(540,0)" x2="0" y2="5" stroke="#888" stroke-width="1" opacity="1"/><line transform="translate(570,0)" x2="0" y2="5" stroke="#888" stroke-width="1" opacity="1"/><line transform="translate(600,0)" x2="0" y2="5" stroke="#888" stroke-width="1" opacity="1"/></g><g class="mark-text role-axis-label" pointer-events="none"><text text-anchor="start" transform="translate(0,18)" font-family="sans-serif" font-size="14px" fill="#000" opacity="1">0</text><text text-anchor="middle" transform="translate(30,18)" font-family="sans-serif" font-size="14px" fill="#000" opacity="0">50</text><text text-anchor="middle" transform="translate(60,18)" font-family="sans-serif" font-size="14px" fill="#000" opacity="1">100</text><text text-anchor="middle" transform="translate(90,18)" font-family="sans-serif" font-size="14px" fill="#000" opacity="0">150</text><text text-anchor="middle" transform="translate(120,18)" font-family="sans-serif" font-size="14px" fill="#000" opacity="1">200</text><text text-anchor="middle" transform="translate(150,18)" font-family="sans-serif" font-size="14px" fill="#000" opacity="0">250</text><text text-anchor="middle" transform="translate(180,18)" font-family="sans-serif" font-size="14px" fill="#000" opacity="1">300</text><text text-anchor="middle" transform="translate(210,18)" font-family="sans-serif" font-size="14px" fill="#000" opacity="0">350</text><text text-anchor="middle" transform="translate(240,18)" font-family="sans-serif" font-size="14px" fill="#000" opacity="1">400</text><text text-anchor="middle" transform="translate(270,18)" font-family="sans-serif" font-size="14px" fill="#000" opacity="0">450</text><text text-anchor="middle" transform="translate(300,18)" font-family="sans-serif" font-size="14px" fill="#000" opacity="1">500</text><text text-anchor="middle" transform="translate(330,18)" font-family="sans-serif" font-size="14px" fill="#000" opacity="0">550</text><text text-anchor="middle" transform="translate(360,18)" font-family="sans-serif" font-size="14px" fill="#000" opacity="1">600</text><text text-anchor="middle" transform="translate(390,18)" font-family="sans-serif" font-size="14px" fill="#000" opacity="0">650</text><text text-anchor="middle" transform="translate(420,18)" font-family="sans-serif" font-size="14px" fill="#000" opacity="1">700</text><text text-anchor="middle" transform="translate(450,18)" font-family="sans-serif" font-size="14px" fill="#000" opacity="0">750</text><text text-anchor="middle" transform="translate(480,18)" font-family="sans-serif" font-size="14px" fill="#000" opacity="1">800</text><text text-anchor="middle" transform="translate(510,18)" font-family="sans-serif" font-size="14px" fill="#000" opacity="0">850</text><text text-anchor="middle" transform="translate(540,18)" font-family="sans-serif" font-size="14px" fill="#000" opacity="1">900</text><text text-anchor="middle" transform="translate(570,18)" font-family="sans-serif" font-size="14px" fill="#000" opacity="0">950</text><text text-anchor="end" transform="translate(600,18)" font-family="sans-serif" font-size="14px" fill="#000" opacity="1">1,000</text></g><g class="mark-rule role-axis-domain" pointer-events="none"><line transform="translate(0,0)" x2="600" y2="0" stroke="#888" stroke-width="1" opacity="1"/></g><g class="mark-text role-axis-title" pointer-events="none"><text text-anchor="middle" transform="translate(300,38)" font-family="sans-serif" font-size="16px" font-weight="bold" fill="#000" opacity="1">Episode</text></g></g><path class="foreground" aria-hidden="true" d="" pointer-events="none" display="none"/></g></g><g class="mark-group role-axis" role="graphics-symbol" aria-roledescription="axis" aria-label="Y-axis titled 'Reward' for a linear scale with values from 0.0 to 1.0"><g transform="translate(0.5,0.5)"><path class="background" aria-hidden="true" d="M0,0h0v0h0Z" pointer-events="none"/><g><g class="mark-rule role-axis-tick" pointer-events="none"><line transform="translate(0,300)" x2="-5" y2="0" stroke="#888" stroke-width="1" opacity="1"/><line transform="translate(0,270)" x2="-5" y2="0" stroke="#888" stroke-width="1" opacity="1"/><line transform="translate(0,240)" x2="-5" y2="0" stroke="#888" stroke-width="1" opacity="1"/><line transform="translate(0,210)" x2="-5" y2="0" stroke="#888" stroke-width="1" opacity="1"/><line transform="translate(0,180)" x2="-5" y2="0" stroke="#888" stroke-width="1" opacity="1"/><line transform="translate(0,150)" x2="-5" y2="0" stroke="#888" stroke-width="1" opacity="1"/><line transform="translate(0,120)" x2="-5" y2="0" stroke="#888" stroke-width="1" opacity="1"/><line transform="translate(0,90)" x2="-5" y2="0" stroke="#888" stroke-width="1" opacity="1"/><line transform="translate(0,60)" x2="-5" y2="0" stroke="#888" stroke-width="1" opacity="1"/><line transform="translate(0,30)" x2="-5" y2="0" stroke="#888" stroke-width="1" opacity="1"/><line transform="translate(0,0)" x2="-5" y2="0" stroke="#888" stroke-width="1" opacity="1"/></g><g class="mark-text role-axis-label" pointer-events="none"><text text-anchor="end" transform="translate(-7,304)" font-family="sans-serif" font-size="14px" fill="#000" opacity="1">0.0</text><text text-anchor="end" transform="translate(-7,274)" font-family="sans-serif" font-size="14px" fill="#000" opacity="1">0.1</text><text text-anchor="end" transform="translate(-7,244)" font-family="sans-serif" font-size="14px" fill="#000" opacity="1">0.2</text><text text-anchor="end" transform="translate(-7,214)" font-family="sans-serif" font-size="14px" fill="#000" opacity="1">0.3</text><text text-anchor="end" transform="translate(-7,184)" font-family="sans-serif" font-size="14px" fill="#000" opacity="1">0.4</text><text text-anchor="end" transform="translate(-7,154)" font-family="sans-serif" font-size="14px" fill="#000" opacity="1">0.5</text><text text-anchor="end" transform="translate(-7,124)" font-family="sans-serif" font-size="14px" fill="#000" opacity="1">0.6</text><text text-anchor="end" transform="translate(-7,94.00000000000001)" font-family="sans-serif" font-size="14px" fill="#000" opacity="1">0.7</text><text text-anchor="end" transform="translate(-7,63.999999999999986)" font-family="sans-serif" font-size="14px" fill="#000" opacity="1">0.8</text><text text-anchor="end" transform="translate(-7,33.99999999999999)" font-family="sans-serif" font-size="14px" fill="#000" opacity="1">0.9</text><text text-anchor="end" transform="translate(-7,4)" font-family="sans-serif" font-size="14px" fill="#000" opacity="1">1.0</text></g><g class="mark-rule role-axis-domain" pointer-events="none"><line transform="translate(0,300)" x2="0" y2="-300" stroke="#888" stroke-width="1" opacity="1"/></g><g class="mark-text role-axis-title" pointer-events="none"><text text-anchor="middle" transform="translate(-30.4619140625,150) rotate(-90) translate(0,-3)" font-family="sans-serif" font-size="16px" font-weight="bold" fill="#000" opacity="1">Reward</text></g></g><path class="foreground" aria-hidden="true" d="" pointer-events="none" display="none"/></g></g><g class="mark-group role-scope pathgroup" role="graphics-object" aria-roledescription="group mark container"><g transform="translate(0,0)"><path class="background" aria-hidden="true" d="M0,0h600v300h-600Z"/><g><g class="mark-line role-mark marks" role="graphics-object" aria-roledescription="line mark container"><path aria-label="Episode: 1; Reward: 0.04; Reset Frequency: 0" role="graphics-symbol" aria-roledescription="line mark" d="M0.6,288L1.2,288L1.8,288L2.4,288L3,288L3.6,285L4.2,270L4.8,267L5.4,261L6,252L6.6,249L7.2,237L7.8,228L8.4,216L9,216L9.6,198L10.2,189L10.8,192L11.4,195L12,183L12.6,177L13.2,171L13.8,177L14.4,156L15,138L15.6,132L16.2,126L16.8,111L17.4,102L18,99L18.6,87L19.2,75L19.8,69L20.4,60L21,63L21.6,63L22.2,57L22.8,51L23.4,45L24,48L24.6,42L25.2,45L25.8,39L26.4,39L27,30L27.6,27L28.2,27L28.8,21L29.4,18L30,15L30.6,6L31.2,3L31.8,3L32.4,3L33,3L33.6,3L34.2,3L34.8,3L35.4,3L36,3L36.6,3L37.2,3L37.8,0L38.4,0L39,0L39.6,0L40.2,0L40.8,0L41.4,0L42,0L42.6,0L43.2,0L43.8,0L44.4,0L45,0L45.6,0L46.2,0L46.8,0L47.4,0L48,0L48.6,0L49.2,0L49.8,0L50.4,0L51,0L51.6,0L52.2,0L52.8,0L53.4,0L54,0L54.6,0L55.2,0L55.8,0L56.4,0L57,0L57.6,0L58.2,0L58.8,0L59.4,0L60,0L60.6,0L61.2,0L61.8,0L62.4,0L63,0L63.6,0L64.2,0L64.8,0L65.4,0L66,0L66.6,0L67.2,0L67.8,0L68.4,0L69,0L69.6,0L70.2,0L70.8,0L71.4,0L72,0L72.6,0L73.2,0L73.8,0L74.4,0L75,0L75.6,0L76.2,0L76.8,0L77.4,0L78,0L78.6,0L79.2,0L79.8,0L80.4,0L81,0L81.6,0L82.2,0L82.8,0L83.4,0L84,0L84.6,0L85.2,0L85.8,0L86.4,0L87,0L87.6,0L88.2,0L88.8,0L89.4,0L90,0L90.6,0L91.2,0L91.8,0L92.4,0L93,0L93.6,0L94.2,0L94.8,0L95.4,0L96,0L96.6,0L97.2,0L97.8,0L98.4,0L99,0L99.6,0L100.2,0L100.8,0L101.4,0L102,0L102.6,0L103.2,0L103.8,0L104.4,0L105,0L105.6,0L106.2,0L106.8,0L107.4,0L108,0L108.6,0L109.2,0L109.8,0L110.4,0L111,0L111.6,0L112.2,0L112.8,0L113.4,0L114,0L114.6,0L115.2,0L115.8,0L116.4,0L117,0L117.6,0L118.2,0L118.8,0L119.4,0L120,0L120.6,0L121.2,300L121.8,300L122.4,300L123,300L123.6,300L124.2,300L124.8,300L125.4,300L126,300L126.6,300L127.2,300L127.8,300L128.4,300L129,300L129.6,300L130.2,300L130.8,300L131.4,300L132,300L132.6,300L133.2,300L133.8,300L134.4,300L135,300L135.6,300L136.2,300L136.8,300L137.4,300L138,300L138.6,300L139.2,300L139.8,300L140.4,300L141,300L141.6,300L142.2,300L142.8,300L143.4,300L144,300L144.6,300L145.2,300L145.8,300L146.4,300L147,300L147.6,300L148.2,300L148.8,300L149.4,300L150,300L150.6,300L151.2,300L151.8,300L152.4,300L153,300L153.6,300L154.2,300L154.8,300L155.4,300L156,300L156.6,300L157.2,300L157.8,300L158.4,300L159,300L159.6,300L160.2,300L160.8,300L161.4,300L162,300L162.6,300L163.2,300L163.8,300L164.4,300L165,300L165.6,300L166.2,300L166.8,300L167.4,300L168,300L168.6,300L169.2,300L169.8,300L170.4,300L171,300L171.6,300L172.2,300L172.8,300L173.4,300L174,300L174.6,300L175.2,300L175.8,300L176.4,300L177,300L177.6,300L178.2,300L178.8,300L179.4,300L180,300L180.6,300L181.2,300L181.8,300L182.4,300L183,300L183.6,300L184.2,300L184.8,300L185.4,300L186,300L186.6,300L187.2,300L187.8,300L188.4,300L189,300L189.6,300L190.2,300L190.8,300L191.4,300L192,300L192.6,300L193.2,300L193.8,300L194.4,300L195,300L195.6,300L196.2,300L196.8,300L197.4,300L198,300L198.6,300L199.2,300L199.8,300L200.4,300L201,300L201.6,300L202.2,300L202.8,300L203.4,300L204,300L204.6,300L205.2,300L205.8,300L206.4,300L207,300L207.6,300L208.2,300L208.8,300L209.4,300L210,300L210.6,300L211.2,300L211.8,300L212.4,300L213,300L213.6,300L214.2,300L214.8,300L215.4,300L216,300L216.6,300L217.2,300L217.8,300L218.4,300L219,300L219.6,300L220.2,300L220.8,300L221.4,300L222,300L222.6,300L223.2,300L223.8,300L224.4,300L225,300L225.6,300L226.2,300L226.8,300L227.4,300L228,300L228.6,300L229.2,300L229.8,300L230.4,300L231,300L231.6,300L232.2,300L232.8,300L233.4,300L234,300L234.6,300L235.2,300L235.8,300L236.4,300L237,300L237.6,300L238.2,300L238.8,300L239.4,300L240,300L240.6,300L241.2,300L241.8,300L242.4,300L243,300L243.6,300L244.2,300L244.8,300L245.4,300L246,300L246.6,300L247.2,300L247.8,300L248.4,300L249,300L249.6,300L250.2,300L250.8,300L251.4,300L252,300L252.6,300L253.2,300L253.8,300L254.4,300L255,300L255.6,300L256.2,300L256.8,300L257.4,300L258,300L258.6,300L259.2,300L259.8,300L260.4,300L261,300L261.6,300L262.2,300L262.8,300L263.4,300L264,300L264.6,300L265.2,300L265.8,300L266.4,300L267,300L267.6,300L268.2,300L268.8,300L269.4,300L270,300L270.6,300L271.2,300L271.8,300L272.4,300L273,300L273.6,300L274.2,300L274.8,300L275.4,300L276,300L276.6,300L277.2,300L277.8,300L278.4,300L279,300L279.6,300L280.2,300L280.8,300L281.4,300L282,300L282.6,300L283.2,300L283.8,300L284.4,300L285,300L285.6,300L286.2,300L286.8,300L287.4,300L288,300L288.6,300L289.2,300L289.8,300L290.4,300L291,300L291.6,300L292.2,300L292.8,300L293.4,300L294,300L294.6,300L295.2,300L295.8,300L296.4,300L297,300L297.6,300L298.2,300L298.8,300L299.4,300L300,300L300.6,300L301.2,300L301.8,300L302.4,300L303,300L303.6,300L304.2,300L304.8,300L305.4,300L306,300L306.6,300L307.2,300L307.8,300L308.4,300L309,300L309.6,300L310.2,300L310.8,300L311.4,300L312,300L312.6,300L313.2,300L313.8,300L314.4,300L315,300L315.6,300L316.2,297L316.8,297L317.4,297L318,300L318.6,300L319.2,300L319.8,300L320.4,300L321,300L321.6,300L322.2,300L322.8,297L323.4,297L324,300L324.6,297L325.2,300L325.8,300L326.4,300L327,297L327.6,297L328.2,297L328.8,297L329.4,297L330,297L330.6,297L331.2,297L331.8,297L332.4,297L333,297L333.6,297L334.2,297L334.8,294L335.4,294L336,294L336.6,291L337.2,288L337.8,288L338.4,282L339,282L339.6,282L340.2,285L340.8,285L341.4,285L342,282L342.6,285L343.2,285L343.8,282L344.4,285L345,285L345.6,291L346.2,291L346.8,288L347.4,288L348,288L348.6,285L349.2,285L349.8,285L350.4,288L351,288L351.6,288L352.2,288L352.8,288L353.4,282L354,279L354.6,282L355.2,285L355.8,282L356.4,282L357,282L357.6,276L358.2,276L358.8,273L359.4,273L360,276L360.6,279L361.2,279L361.8,276L362.4,270L363,270L363.6,270L364.2,270L364.8,270L365.4,270L366,273L366.6,267L367.2,267L367.8,267L368.4,273L369,273L369.6,273L370.2,273L370.8,270L371.4,273L372,267L372.6,261L373.2,255L373.8,255L374.4,261L375,255L375.6,258L376.2,258L376.8,261L377.4,261L378,261L378.6,258L379.2,258L379.8,255L380.4,258L381,255L381.6,252L382.2,252L382.8,249L383.4,249L384,246L384.6,246L385.2,243L385.8,246L386.4,249L387,252L387.6,249L388.2,246L388.8,243L389.4,246L390,243L390.6,240L391.2,240L391.8,243L392.4,243L393,243L393.6,234L394.2,234L394.8,237L395.4,237L396,240L396.6,237L397.2,234L397.8,237L398.4,237L399,237L399.6,234L400.2,228L400.8,231L401.4,234L402,231L402.6,234L403.2,237L403.8,237L404.4,237L405,231L405.6,228L406.2,225L406.8,231L407.4,228L408,231L408.6,231L409.2,234L409.8,231L410.4,231L411,228L411.6,231L412.2,228L412.8,234L413.4,234L414,234L414.6,234L415.2,228L415.8,231L416.4,225L417,228L417.6,222L418.2,219L418.8,222L419.4,222L420,225L420.6,225L421.2,225L421.8,225L422.4,225L423,225L423.6,225L424.2,225L424.8,225L425.4,222L426,219L426.6,213L427.2,219L427.8,216L428.4,216L429,213L429.6,210L430.2,213L430.8,213L431.4,210L432,213L432.6,213L433.2,207L433.8,213L434.4,213L435,210L435.6,204L436.2,207L436.8,207L437.4,204L438,204L438.6,204L439.2,198L439.8,198L440.4,195L441,201L441.6,201L442.2,204L442.8,201L443.4,195L444,198L444.6,201L445.2,201L445.8,198L446.4,195L447,195L447.6,198L448.2,195L448.8,192L449.4,195L450,195L450.6,195L451.2,195L451.8,189L452.4,189L453,189L453.6,189L454.2,186L454.8,189L455.4,186L456,183L456.6,180L457.2,180L457.8,180L458.4,177L459,177L459.6,174L460.2,165L460.8,165L461.4,162L462,162L462.6,171L463.2,171L463.8,171L464.4,165L465,165L465.6,162L466.2,162L466.8,156L467.4,159L468,156L468.6,159L469.2,162L469.8,162L470.4,159L471,153L471.6,156L472.2,144L472.8,147L473.4,150L474,150L474.6,150L475.2,156L475.8,150L476.4,150L477,147L477.6,147L478.2,144L478.8,144L479.4,147L480,147L480.6,147L481.2,141L481.8,141L482.4,138L483,132L483.6,132L484.2,132L484.8,129L485.4,129L486,132L486.6,132L487.2,132L487.8,129L488.4,132L489,132L489.6,129L490.2,129L490.8,120L491.4,120L492,114L492.6,108L493.2,105L493.8,108L494.4,105L495,105L495.6,105L496.2,99L496.8,96L497.4,99L498,99L498.6,93L499.2,93L499.8,90L500.4,87L501,90L501.6,90L502.2,87L502.8,90L503.4,87L504,87L504.6,87L505.2,84L505.8,81L506.4,81L507,75L507.6,75L508.2,75L508.8,78L509.4,78L510,75L510.6,75L511.2,78L511.8,72L512.4,72L513,72L513.6,66L514.2,72L514.8,69L515.4,69L516,66L516.6,66L517.2,66L517.8,66L518.4,63L519,63L519.6,63L520.2,57L520.8,54L521.4,51L522,48L522.6,48L523.2,45L523.8,42L524.4,45L525,45L525.6,45L526.2,45L526.8,42L527.4,39L528,39L528.6,39L529.2,39L529.8,39L530.4,36L531,36L531.6,33L532.2,30L532.8,30L533.4,30L534,30L534.6,27L535.2,24L535.8,21L536.4,18L537,18L537.6,18L538.2,18L538.8,18L539.4,15L540,18L540.6,15L541.2,15L541.8,15L542.4,15L543,15L543.6,15L544.2,15L544.8,15L545.4,15L546,15L546.6,15L547.2,18L547.8,18L548.4,18L549,15L549.6,15L550.2,15L550.8,15L551.4,15L552,15L552.6,12L553.2,12L553.8,18L554.4,18L555,18L555.6,18L556.2,15L556.8,15L557.4,12L558,12L558.6,12L559.2,12L559.8,12L560.4,9L561,9L561.6,9L562.2,9L562.8,9L563.4,6L564,6L564.6,6L565.2,6L565.8,6L566.4,6L567,6L567.6,6L568.2,6L568.8,6L569.4,6L570,3L570.6,3L571.2,3L571.8,3L572.4,3L573,3L573.6,3L574.2,3L574.8,3L575.4,3L576,3L576.6,3L577.2,3L577.8,3L578.4,3L579,3L579.6,3L580.2,3L580.8,3L581.4,3L582,3L582.6,3L583.2,3L583.8,3L584.4,3L585,3L585.6,3L586.2,3L586.8,3L587.4,3L588,3L588.6,3L589.2,3L589.8,3L590.4,3L591,3L591.6,3L592.2,3L592.8,3L593.4,3L594,3L594.6,3L595.2,3L595.8,3L596.4,3L597,3L597.6,3L598.2,3L598.8,3L599.4,3L600,3" stroke="#4c78a8" stroke-width="2"/></g></g><path class="foreground" aria-hidden="true" d="" display="none"/></g><g transform="translate(0,0)"><path class="background" aria-hidden="true" d="M0,0h600v300h-600Z"/><g><g class="mark-line role-mark marks" role="graphics-object" aria-roledescription="line mark container"><path aria-label="Episode: 1; Reward: 0.04; Reset Frequency: 100" role="graphics-symbol" aria-roledescription="line mark" d="M0.6,288L1.2,288L1.8,288L2.4,288L3,288L3.6,288L4.2,282L4.8,270L5.4,258L6,240L6.6,237L7.2,234L7.8,231L8.4,216L9,216L9.6,216L10.2,201L10.8,201L11.4,189L12,168L12.6,162L13.2,156L13.8,144L14.4,132L15,129L15.6,120L16.2,117L16.8,105L17.4,105L18,105L18.6,93L19.2,75L19.8,75L20.4,69L21,63L21.6,54L22.2,54L22.8,42L23.4,36L24,33L24.6,33L25.2,27L25.8,30L26.4,15L27,18L27.6,12L28.2,12L28.8,12L29.4,12L30,6L30.6,6L31.2,6L31.8,6L32.4,3L33,3L33.6,0L34.2,0L34.8,0L35.4,9L36,6L36.6,9L37.2,9L37.8,9L38.4,9L39,9L39.6,9L40.2,6L40.8,6L41.4,6L42,3L42.6,3L43.2,3L43.8,3L44.4,3L45,3L45.6,3L46.2,3L46.8,0L47.4,0L48,0L48.6,0L49.2,0L49.8,0L50.4,0L51,0L51.6,0L52.2,0L52.8,0L53.4,0L54,0L54.6,0L55.2,0L55.8,0L56.4,0L57,0L57.6,0L58.2,0L58.8,0L59.4,0L60,285L60.6,282L61.2,279L61.8,264L62.4,258L63,243L63.6,249L64.2,237L64.8,216L65.4,213L66,216L66.6,213L67.2,213L67.8,210L68.4,207L69,204L69.6,201L70.2,201L70.8,201L71.4,198L72,198L72.6,198L73.2,195L73.8,189L74.4,192L75,189L75.6,186L76.2,183L76.8,180L77.4,180L78,174L78.6,171L79.2,162L79.8,159L80.4,153L81,147L81.6,138L82.2,138L82.8,132L83.4,126L84,120L84.6,114L85.2,102L85.8,102L86.4,93L87,87L87.6,81L88.2,75L88.8,72L89.4,57L90,57L90.6,51L91.2,48L91.8,45L92.4,45L93,45L93.6,39L94.2,39L94.8,36L95.4,33L96,33L96.6,33L97.2,27L97.8,27L98.4,18L99,15L99.6,12L100.2,9L100.8,9L101.4,9L102,6L102.6,6L103.2,6L103.8,6L104.4,6L105,6L105.6,6L106.2,6L106.8,6L107.4,6L108,6L108.6,3L109.2,0L109.8,0L110.4,0L111,0L111.6,0L112.2,0L112.8,0L113.4,0L114,0L114.6,0L115.2,0L115.8,0L116.4,0L117,0L117.6,0L118.2,0L118.8,0L119.4,0L120,285L120.6,276L121.2,294L121.8,294L122.4,291L123,294L123.6,291L124.2,291L124.8,291L125.4,291L126,291L126.6,291L127.2,285L127.8,285L128.4,288L129,288L129.6,288L130.2,285L130.8,282L131.4,285L132,285L132.6,285L133.2,288L133.8,288L134.4,288L135,291L135.6,291L136.2,294L136.8,291L137.4,294L138,297L138.6,294L139.2,294L139.8,294L140.4,294L141,300L141.6,300L142.2,300L142.8,300L143.4,300L144,297L144.6,294L145.2,300L145.8,300L146.4,300L147,300L147.6,300L148.2,300L148.8,300L149.4,297L150,300L150.6,300L151.2,300L151.8,300L152.4,300L153,300L153.6,300L154.2,300L154.8,300L155.4,300L156,300L156.6,300L157.2,300L157.8,300L158.4,300L159,300L159.6,300L160.2,300L160.8,300L161.4,300L162,300L162.6,300L163.2,300L163.8,300L164.4,300L165,300L165.6,300L166.2,300L166.8,300L167.4,300L168,300L168.6,300L169.2,300L169.8,300L170.4,300L171,300L171.6,300L172.2,300L172.8,300L173.4,300L174,300L174.6,300L175.2,300L175.8,300L176.4,300L177,300L177.6,300L178.2,300L178.8,300L179.4,300L180,300L180.6,300L181.2,288L181.8,288L182.4,288L183,288L183.6,291L184.2,297L184.8,297L185.4,297L186,297L186.6,297L187.2,297L187.8,297L188.4,297L189,297L189.6,297L190.2,297L190.8,297L191.4,297L192,297L192.6,294L193.2,294L193.8,285L194.4,285L195,282L195.6,282L196.2,282L196.8,276L197.4,279L198,279L198.6,279L199.2,279L199.8,279L200.4,279L201,276L201.6,276L202.2,276L202.8,270L203.4,270L204,270L204.6,273L205.2,273L205.8,267L206.4,267L207,264L207.6,264L208.2,264L208.8,258L209.4,255L210,258L210.6,255L211.2,258L211.8,249L212.4,255L213,264L213.6,261L214.2,261L214.8,249L215.4,246L216,240L216.6,240L217.2,240L217.8,240L218.4,243L219,240L219.6,234L220.2,231L220.8,240L221.4,243L222,246L222.6,252L223.2,249L223.8,258L224.4,261L225,261L225.6,264L226.2,270L226.8,270L227.4,264L228,267L228.6,264L229.2,267L229.8,267L230.4,267L231,270L231.6,276L232.2,279L232.8,282L233.4,282L234,282L234.6,279L235.2,279L235.8,285L236.4,285L237,285L237.6,285L238.2,282L238.8,282L239.4,282L240,297L240.6,297L241.2,297L241.8,297L242.4,294L243,291L243.6,291L244.2,288L244.8,288L245.4,291L246,288L246.6,288L247.2,285L247.8,285L248.4,279L249,276L249.6,273L250.2,273L250.8,273L251.4,270L252,258L252.6,258L253.2,252L253.8,249L254.4,243L255,243L255.6,234L256.2,234L256.8,231L257.4,225L258,222L258.6,213L259.2,213L259.8,210L260.4,204L261,198L261.6,195L262.2,189L262.8,186L263.4,186L264,180L264.6,177L265.2,165L265.8,165L266.4,162L267,159L267.6,156L268.2,153L268.8,150L269.4,147L270,144L270.6,144L271.2,138L271.8,138L272.4,135L273,132L273.6,129L274.2,129L274.8,129L275.4,123L276,111L276.6,108L277.2,108L277.8,111L278.4,111L279,117L279.6,108L280.2,111L280.8,108L281.4,108L282,108L282.6,105L283.2,105L283.8,102L284.4,102L285,99L285.6,105L286.2,102L286.8,105L287.4,114L288,120L288.6,126L289.2,135L289.8,132L290.4,144L291,147L291.6,147L292.2,156L292.8,150L293.4,150L294,156L294.6,162L295.2,162L295.8,165L296.4,171L297,174L297.6,177L298.2,174L298.8,171L299.4,171L300,294L300.6,288L301.2,288L301.8,288L302.4,282L303,276L303.6,264L304.2,261L304.8,258L305.4,252L306,243L306.6,240L307.2,240L307.8,228L308.4,219L309,216L309.6,213L310.2,210L310.8,201L311.4,189L312,183L312.6,174L313.2,162L313.8,156L314.4,156L315,153L315.6,150L316.2,144L316.8,138L317.4,132L318,123L318.6,111L319.2,105L319.8,96L320.4,93L321,93L321.6,87L322.2,81L322.8,78L323.4,72L324,69L324.6,69L325.2,57L325.8,57L326.4,57L327,54L327.6,57L328.2,57L328.8,54L329.4,48L330,42L330.6,42L331.2,36L331.8,36L332.4,36L333,30L333.6,30L334.2,24L334.8,24L335.4,21L336,21L336.6,18L337.2,15L337.8,15L338.4,12L339,9L339.6,9L340.2,9L340.8,9L341.4,9L342,9L342.6,12L343.2,12L343.8,15L344.4,15L345,12L345.6,12L346.2,12L346.8,12L347.4,15L348,15L348.6,15L349.2,12L349.8,12L350.4,15L351,18L351.6,18L352.2,18L352.8,18L353.4,18L354,15L354.6,12L355.2,15L355.8,15L356.4,15L357,15L357.6,18L358.2,21L358.8,24L359.4,21L360,294L360.6,291L361.2,288L361.8,285L362.4,285L363,276L363.6,270L364.2,249L364.8,243L365.4,240L366,234L366.6,216L367.2,207L367.8,201L368.4,180L369,174L369.6,162L370.2,153L370.8,150L371.4,144L372,138L372.6,132L373.2,129L373.8,123L374.4,120L375,114L375.6,105L376.2,102L376.8,84L377.4,84L378,81L378.6,72L379.2,69L379.8,66L380.4,60L381,54L381.6,51L382.2,48L382.8,48L383.4,42L384,42L384.6,42L385.2,39L385.8,39L386.4,36L387,33L387.6,27L388.2,27L388.8,27L389.4,24L390,21L390.6,15L391.2,15L391.8,12L392.4,12L393,12L393.6,12L394.2,12L394.8,12L395.4,9L396,9L396.6,6L397.2,6L397.8,6L398.4,6L399,3L399.6,3L400.2,3L400.8,3L401.4,0L402,0L402.6,0L403.2,0L403.8,0L404.4,0L405,0L405.6,0L406.2,0L406.8,0L407.4,0L408,0L408.6,0L409.2,0L409.8,0L410.4,0L411,0L411.6,0L412.2,0L412.8,0L413.4,0L414,0L414.6,0L415.2,0L415.8,0L416.4,0L417,0L417.6,0L418.2,0L418.8,0L419.4,0L420,285L420.6,279L421.2,267L421.8,261L422.4,261L423,255L423.6,249L424.2,249L424.8,246L425.4,237L426,237L426.6,228L427.2,216L427.8,213L428.4,201L429,186L429.6,174L430.2,165L430.8,156L431.4,150L432,141L432.6,129L433.2,117L433.8,105L434.4,102L435,99L435.6,96L436.2,93L436.8,84L437.4,72L438,69L438.6,66L439.2,63L439.8,60L440.4,57L441,48L441.6,42L442.2,39L442.8,36L443.4,30L444,30L444.6,24L445.2,24L445.8,24L446.4,21L447,21L447.6,15L448.2,15L448.8,15L449.4,9L450,9L450.6,6L451.2,6L451.8,6L452.4,6L453,6L453.6,6L454.2,6L454.8,6L455.4,6L456,6L456.6,6L457.2,6L457.8,6L458.4,6L459,6L459.6,6L460.2,3L460.8,3L461.4,3L462,3L462.6,3L463.2,3L463.8,3L464.4,3L465,3L465.6,3L466.2,3L466.8,3L467.4,3L468,3L468.6,3L469.2,3L469.8,3L470.4,3L471,3L471.6,3L472.2,3L472.8,3L473.4,3L474,3L474.6,3L475.2,3L475.8,3L476.4,3L477,3L477.6,3L478.2,0L478.8,0L479.4,0L480,300L480.6,300L481.2,288L481.8,279L482.4,273L483,258L483.6,240L484.2,228L484.8,204L485.4,192L486,186L486.6,180L487.2,171L487.8,162L488.4,156L489,150L489.6,144L490.2,141L490.8,135L491.4,129L492,120L492.6,114L493.2,108L493.8,102L494.4,96L495,90L495.6,90L496.2,87L496.8,84L497.4,75L498,72L498.6,69L499.2,66L499.8,63L500.4,63L501,63L501.6,63L502.2,63L502.8,57L503.4,57L504,51L504.6,48L505.2,48L505.8,45L506.4,45L507,45L507.6,39L508.2,39L508.8,36L509.4,33L510,33L510.6,30L511.2,30L511.8,27L512.4,27L513,21L513.6,18L514.2,15L514.8,15L515.4,12L516,12L516.6,12L517.2,12L517.8,12L518.4,12L519,9L519.6,9L520.2,9L520.8,9L521.4,9L522,9L522.6,6L523.2,6L523.8,6L524.4,6L525,3L525.6,3L526.2,0L526.8,0L527.4,0L528,0L528.6,0L529.2,0L529.8,0L530.4,0L531,0L531.6,0L532.2,0L532.8,0L533.4,0L534,0L534.6,0L535.2,0L535.8,0L536.4,0L537,0L537.6,0L538.2,0L538.8,0L539.4,0L540,291L540.6,279L541.2,276L541.8,267L542.4,258L543,249L543.6,240L544.2,219L544.8,207L545.4,195L546,183L546.6,171L547.2,162L547.8,144L548.4,138L549,117L549.6,111L550.2,108L550.8,102L551.4,102L552,102L552.6,99L553.2,96L553.8,90L554.4,87L555,81L555.6,75L556.2,75L556.8,75L557.4,75L558,75L558.6,69L559.2,60L559.8,54L560.4,54L561,51L561.6,45L562.2,42L562.8,42L563.4,42L564,39L564.6,39L565.2,39L565.8,30L566.4,30L567,30L567.6,27L568.2,27L568.8,21L569.4,21L570,21L570.6,18L571.2,18L571.8,18L572.4,18L573,18L573.6,18L574.2,15L574.8,12L575.4,9L576,6L576.6,6L577.2,6L577.8,6L578.4,6L579,6L579.6,6L580.2,3L580.8,3L581.4,3L582,3L582.6,0L583.2,0L583.8,0L584.4,0L585,0L585.6,0L586.2,0L586.8,0L587.4,0L588,0L588.6,0L589.2,0L589.8,0L590.4,0L591,0L591.6,0L592.2,0L592.8,0L593.4,0L594,0L594.6,0L595.2,0L595.8,0L596.4,0L597,0L597.6,0L598.2,0L598.8,0L599.4,0L600,288" stroke="#f58518" stroke-width="2"/></g></g><path class="foreground" aria-hidden="true" d="" display="none"/></g></g><g class="mark-group role-legend" role="graphics-symbol" aria-roledescription="legend" aria-label="Symbol legend titled 'Reset Frequency' for stroke color with 2 values: 0, 100"><g transform="translate(620,0)"><path class="background" aria-hidden="true" d="M0,0h129v63h-129Z" pointer-events="none"/><g><g class="mark-group role-legend-entry"><g transform="translate(0,21)"><path class="background" aria-hidden="true" d="M0,0h0v0h0Z" pointer-events="none"/><g><g class="mark-group role-scope" role="graphics-object" aria-roledescription="group mark container"><g transform="translate(0,0)"><path class="background" aria-hidden="true" d="M0,0h47.3583984375v20h-47.3583984375Z" pointer-events="none" opacity="1"/><g><g class="mark-symbol role-legend-symbol" pointer-events="none"><path transform="translate(10,10)" d="M-5,0L5,0" stroke="#4c78a8" stroke-width="10" opacity="1"/></g><g class="mark-text role-legend-label" pointer-events="none"><text text-anchor="start" transform="translate(24,14)" font-family="sans-serif" font-size="14px" fill="#000" opacity="1">0</text></g></g><path class="foreground" aria-hidden="true" d="" pointer-events="none" display="none"/></g><g transform="translate(0,22)"><path class="background" aria-hidden="true" d="M0,0h47.3583984375v20h-47.3583984375Z" pointer-events="none" opacity="1"/><g><g class="mark-symbol role-legend-symbol" pointer-events="none"><path transform="translate(10,10)" d="M-5,0L5,0" stroke="#f58518" stroke-width="10" opacity="1"/></g><g class="mark-text role-legend-label" pointer-events="none"><text text-anchor="start" transform="translate(24,14)" font-family="sans-serif" font-size="14px" fill="#000" opacity="1">100</text></g></g><path class="foreground" aria-hidden="true" d="" pointer-events="none" display="none"/></g></g></g><path class="foreground" aria-hidden="true" d="" pointer-events="none" display="none"/></g></g><g class="mark-text role-legend-title" pointer-events="none"><text text-anchor="start" transform="translate(0,13)" font-family="sans-serif" font-size="16px" font-weight="bold" fill="#000" opacity="1">Reset Frequency</text></g></g><path class="foreground" aria-hidden="true" d="" pointer-events="none" display="none"/></g></g><g class="mark-group role-title"><g transform="translate(300,-29)"><path class="background" aria-hidden="true" d="M0,0h0v0h0Z" pointer-events="none"/><g><g class="mark-text role-title-text" role="graphics-symbol" aria-roledescription="title" aria-label="Title text 'Reward Overtime'" pointer-events="none"><text text-anchor="middle" transform="translate(0,14)" font-family="sans-serif" font-size="18px" font-weight="bold" fill="#000" opacity="1">Reward Overtime</text></g></g><path class="foreground" aria-hidden="true" d="" pointer-events="none" display="none"/></g></g></g><path class="foreground" aria-hidden="true" d="" display="none"/></g></g></g></svg>