<svg xmlns="http://www.w3.org/2000/svg" xmlns:xlink="http://www.w3.org/1999/xlink" version="1.1" class="marks" width="525" height="380" viewBox="0 0 525 380"><rect width="525" height="380" fill="white"/><g fill="none" stroke-miterlimit="10" transform="translate(52,34)"><g class="mark-group role-frame root" role="graphics-object" aria-roledescription="group mark container"><g transform="translate(0,0)"><path class="background" aria-hidden="true" d="M0.5,0.5h400v300h-400Z" stroke="#ddd"/><g><g class="mark-group role-axis" aria-hidden="true"><g transform="translate(0.5,300.5)"><path class="background" aria-hidden="true" d="M0,0h0v0h0Z" pointer-events="none"/><g><g class="mark-rule role-axis-grid" pointer-events="none"><line transform="translate(0,-300)" x2="0" y2="300" stroke="#ddd" stroke-width="1" opacity="1"/><line transform="translate(40,-300)" x2="0" y2="300" stroke="#ddd" stroke-width="1" opacity="1"/><line transform="translate(80,-300)" x2="0" y2="300" stroke="#ddd" stroke-width="1" opacity="1"/><line transform="translate(120,-300)" x2="0" y2="300" stroke="#ddd" stroke-width="1" opacity="1"/><line transform="translate(160,-300)" x2="0" y2="300" stroke="#ddd" stroke-width="1" opacity="1"/><line transform="translate(200,-300)" x2="0" y2="300" stroke="#ddd" stroke-width="1" opacity="1"/><line transform="translate(240,-300)" x2="0" y2="300" stroke="#ddd" stroke-width="1" opacity="1"/><line transform="translate(280,-300)" x2="0" y2="300" stroke="#ddd" stroke-width="1" opacity="1"/><line transform="translate(320,-300)" x2="0" y2="300" stroke="#ddd" stroke-width="1" opacity="1"/><line transform="translate(360,-300)" x2="0" y2="300" stroke="#ddd" stroke-width="1" opacity="1"/><line transform="translate(400,-300)" x2="0" y2="300" stroke="#ddd" stroke-width="1" opacity="1"/></g></g><path class="foreground" aria-hidden="true" d="" pointer-events="none" display="none"/></g></g><g class="mark-group role-axis" aria-hidden="true"><g transform="translate(0.5,0.5)"><path class="background" aria-hidden="true" d="M0,0h0v0h0Z" pointer-events="none"/><g><g class="mark-rule role-axis-grid" pointer-events="none"><line transform="translate(0,300)" x2="400" y2="0" stroke="#ddd" stroke-width="1" opacity="1"/><line transform="translate(0,270)" x2="400" y2="0" stroke="#ddd" stroke-width="1" opacity="1"/><line transform="translate(0,240)" x2="400" y2="0" stroke="#ddd" stroke-width="1" opacity="1"/><line transform="translate(0,210)" x2="400" y2="0" stroke="#ddd" stroke-width="1" opacity="1"/><line transform="translate(0,180)" x2="400" y2="0" stroke="#ddd" stroke-width="1" opacity="1"/><line transform="translate(0,150)" x2="400" y2="0" stroke="#ddd" stroke-width="1" opacity="1"/><line transform="translate(0,120)" x2="400" y2="0" stroke="#ddd" stroke-width="1" opacity="1"/><line transform="translate(0,90)" x2="400" y2="0" stroke="#ddd" stroke-width="1" opacity="1"/><line transform="translate(0,60)" x2="400" y2="0" stroke="#ddd" stroke-width="1" opacity="1"/><line transform="translate(0,30)" x2="400" y2="0" stroke="#ddd" stroke-width="1" opacity="1"/><line transform="translate(0,0)" x2="400" y2="0" stroke="#ddd" stroke-width="1" opacity="1"/></g></g><path class="foreground" aria-hidden="true" d="" pointer-events="none" display="none"/></g></g><g class="mark-group role-axis" role="graphics-symbol" aria-roledescription="axis" aria-label="X-axis titled 'Episode' for a linear scale with values from 0 to 1,000"><g transform="translate(0.5,300.5)"><path class="background" aria-hidden="true" d="M0,0h0v0h0Z" pointer-events="none"/><g><g class="mark-rule role-axis-tick" pointer-events="none"><line transform="translate(0,0)" x2="0" y2="5" stroke="#888" stroke-width="1" opacity="1"/><line transform="translate(40,0)" x2="0" y2="5" stroke="#888" stroke-width="1" opacity="1"/><line transform="translate(80,0)" x2="0" y2="5" stroke="#888" stroke-width="1" opacity="1"/><line transform="translate(120,0)" x2="0" y2="5" stroke="#888" stroke-width="1" opacity="1"/><line transform="translate(160,0)" x2="0" y2="5" stroke="#888" stroke-width="1" opacity="1"/><line transform="translate(200,0)" x2="0" y2="5" stroke="#888" stroke-width="1" opacity="1"/><line transform="translate(240,0)" x2="0" y2="5" stroke="#888" stroke-width="1" opacity="1"/><line transform="translate(280,0)" x2="0" y2="5" stroke="#888" stroke-width="1" opacity="1"/><line transform="translate(320,0)" x2="0" y2="5" stroke="#888" stroke-width="1" opacity="1"/><line transform="translate(360,0)" x2="0" y2="5" stroke="#888" stroke-width="1" opacity="1"/><line transform="translate(400,0)" x2="0" y2="5" stroke="#888" stroke-width="1" opacity="1"/></g><g class="mark-text role-axis-label" pointer-events="none"><text text-anchor="start" transform="translate(0,18)" font-family="sans-serif" font-size="14px" fill="#000" opacity="1">0</text><text text-anchor="middle" transform="translate(40,18)" font-family="sans-serif" font-size="14px" fill="#000" opacity="0">100</text><text text-anchor="middle" transform="translate(80,18)" font-family="sans-serif" font-size="14px" fill="#000" opacity="1">200</text><text text-anchor="middle" transform="translate(120,18)" font-family="sans-serif" font-size="14px" fill="#000" opacity="0">300</text><text text-anchor="middle" transform="translate(160,18)" font-family="sans-serif" font-size="14px" fill="#000" opacity="1">400</text><text text-anchor="middle" transform="translate(200,18)" font-family="sans-serif" font-size="14px" fill="#000" opacity="0">500</text><text text-anchor="middle" transform="translate(240,18)" font-family="sans-serif" font-size="14px" fill="#000" opacity="1">600</text><text text-anchor="middle" transform="translate(280,18)" font-family="sans-serif" font-size="14px" fill="#000" opacity="0">700</text><text text-anchor="middle" transform="translate(320,18)" font-family="sans-serif" font-size="14px" fill="#000" opacity="1">800</text><text text-anchor="middle" transform="translate(360,18)" font-family="sans-serif" font-size="14px" fill="#000" opacity="0">900</text><text text-anchor="end" transform="translate(400,18)" font-family="sans-serif" font-size="14px" fill="#000" opacity="1">1,000</text></g><g class="mark-rule role-axis-domain" pointer-events="none"><line transform="translate(0,0)" x2="400" y2="0" stroke="#888" stroke-width="1" opacity="1"/></g><g class="mark-text role-axis-title" pointer-events="none"><text text-anchor="middle" transform="translate(200,38)" font-family="sans-serif" font-size="16px" font-weight="bold" fill="#000" opacity="1">Episode</text></g></g><path class="foreground" aria-hidden="true" d="" pointer-events="none" display="none"/></g></g><g class="mark-group role-axis" role="graphics-symbol" aria-roledescription="axis" aria-label="Y-axis titled 'Reward' for a linear scale with values from 0.0 to 1.0"><g transform="translate(0.5,0.5)"><path class="background" aria-hidden="true" d="M0,0h0v0h0Z" pointer-events="none"/><g><g class="mark-rule role-axis-tick" pointer-events="none"><line transform="translate(0,300)" x2="-5" y2="0" stroke="#888" stroke-width="1" opacity="1"/><line transform="translate(0,270)" x2="-5" y2="0" stroke="#888" stroke-width="1" opacity="1"/><line transform="translate(0,240)" x2="-5" y2="0" stroke="#888" stroke-width="1" opacity="1"/><line transform="translate(0,210)" x2="-5" y2="0" stroke="#888" stroke-width="1" opacity="1"/><line transform="translate(0,180)" x2="-5" y2="0" stroke="#888" stroke-width="1" opacity="1"/><line transform="translate(0,150)" x2="-5" y2="0" stroke="#888" stroke-width="1" opacity="1"/><line transform="translate(0,120)" x2="-5" y2="0" stroke="#888" stroke-width="1" opacity="1"/><line transform="translate(0,90)" x2="-5" y2="0" stroke="#888" stroke-width="1" opacity="1"/><line transform="translate(0,60)" x2="-5" y2="0" stroke="#888" stroke-width="1" opacity="1"/><line transform="translate(0,30)" x2="-5" y2="0" stroke="#888" stroke-width="1" opacity="1"/><line transform="translate(0,0)" x2="-5" y2="0" stroke="#888" stroke-width="1" opacity="1"/></g><g class="mark-text role-axis-label" pointer-events="none"><text text-anchor="end" transform="translate(-7,304)" font-family="sans-serif" font-size="14px" fill="#000" opacity="1">0.0</text><text text-anchor="end" transform="translate(-7,274)" font-family="sans-serif" font-size="14px" fill="#000" opacity="1">0.1</text><text text-anchor="end" transform="translate(-7,244)" font-family="sans-serif" font-size="14px" fill="#000" opacity="1">0.2</text><text text-anchor="end" transform="translate(-7,214)" font-family="sans-serif" font-size="14px" fill="#000" opacity="1">0.3</text><text text-anchor="end" transform="translate(-7,184)" font-family="sans-serif" font-size="14px" fill="#000" opacity="1">0.4</text><text text-anchor="end" transform="translate(-7,154)" font-family="sans-serif" font-size="14px" fill="#000" opacity="1">0.5</text><text text-anchor="end" transform="translate(-7,124)" font-family="sans-serif" font-size="14px" fill="#000" opacity="1">0.6</text><text text-anchor="end" transform="translate(-7,94.00000000000001)" font-family="sans-serif" font-size="14px" fill="#000" opacity="1">0.7</text><text text-anchor="end" transform="translate(-7,63.999999999999986)" font-family="sans-serif" font-size="14px" fill="#000" opacity="1">0.8</text><text text-anchor="end" transform="translate(-7,33.99999999999999)" font-family="sans-serif" font-size="14px" fill="#000" opacity="1">0.9</text><text text-anchor="end" transform="translate(-7,4)" font-family="sans-serif" font-size="14px" fill="#000" opacity="1">1.0</text></g><g class="mark-rule role-axis-domain" pointer-events="none"><line transform="translate(0,300)" x2="0" y2="-300" stroke="#888" stroke-width="1" opacity="1"/></g><g class="mark-text role-axis-title" pointer-events="none"><text text-anchor="middle" transform="translate(-30.4619140625,150) rotate(-90) translate(0,-3)" font-family="sans-serif" font-size="16px" font-weight="bold" fill="#000" opacity="1">Reward</text></g></g><path class="foreground" aria-hidden="true" d="" pointer-events="none" display="none"/></g></g><g class="mark-group role-scope pathgroup" role="graphics-object" aria-roledescription="group mark container"><g transform="translate(0,0)"><path class="background" aria-hidden="true" d="M0,0h400v300h-400Z"/><g><g class="mark-line role-mark marks" role="graphics-object" aria-roledescription="line mark container"><path aria-label="Episode: 1; Reward: 0.04; Reset: 0" role="graphics-symbol" aria-roledescription="line mark" d="M0.4,288L0.8,288L1.2,288L1.6,288L2,288L2.4,285L2.8,270L3.2,267L3.6,261L4,252L4.4,249L4.8,237L5.2,228L5.6,216L6,216L6.4,198L6.8,189L7.2,192L7.6,195L8,183L8.4,177L8.8,171L9.2,177L9.6,156L10,138L10.4,132L10.8,126L11.2,111L11.6,102L12,99L12.4,87L12.8,75L13.2,69L13.6,60L14,63L14.4,63L14.8,57L15.2,51L15.6,45L16,48L16.4,42L16.8,45L17.2,39L17.6,39L18,30L18.4,27L18.8,27L19.2,21L19.6,18L20,15L20.4,6L20.8,3L21.2,3L21.6,3L22,3L22.4,3L22.8,3L23.2,3L23.6,3L24,3L24.4,3L24.8,3L25.2,0L25.6,0L26,0L26.4,0L26.8,0L27.2,0L27.6,0L28,0L28.4,0L28.8,0L29.2,0L29.6,0L30,0L30.4,0L30.8,0L31.2,0L31.6,0L32,0L32.4,0L32.8,0L33.2,0L33.6,0L34,0L34.4,0L34.8,0L35.2,0L35.6,0L36,0L36.4,0L36.8,0L37.2,0L37.6,0L38,0L38.4,0L38.8,0L39.2,0L39.6,0L40,0L40.4,0L40.8,0L41.2,0L41.6,0L42,0L42.4,0L42.8,0L43.2,0L43.6,0L44,0L44.4,0L44.8,0L45.2,0L45.6,0L46,0L46.4,0L46.8,0L47.2,0L47.6,0L48,0L48.4,0L48.8,0L49.2,0L49.6,0L50,0L50.4,0L50.8,0L51.2,0L51.6,0L52,0L52.4,0L52.8,0L53.2,0L53.6,0L54,0L54.4,0L54.8,0L55.2,0L55.6,0L56,0L56.4,0L56.8,0L57.2,0L57.6,0L58,0L58.4,0L58.8,0L59.2,0L59.6,0L60,0L60.4,0L60.8,0L61.2,0L61.6,0L62,0L62.4,0L62.8,0L63.2,0L63.6,0L64,0L64.4,0L64.8,0L65.2,0L65.6,0L66,0L66.4,0L66.8,0L67.2,0L67.6,0L68,0L68.4,0L68.8,0L69.2,0L69.6,0L70,0L70.4,0L70.8,0L71.2,0L71.6,0L72,0L72.4,0L72.8,0L73.2,0L73.6,0L74,0L74.4,0L74.8,0L75.2,0L75.6,0L76,0L76.4,0L76.8,0L77.2,0L77.6,0L78,0L78.4,0L78.8,0L79.2,0L79.6,0L80,0L80.4,0L80.8,300L81.2,300L81.6,300L82,300L82.4,300L82.8,300L83.2,300L83.6,300L84,300L84.4,300L84.8,300L85.2,300L85.6,300L86,300L86.4,300L86.8,300L87.2,300L87.6,300L88,300L88.4,300L88.8,300L89.2,300L89.6,300L90,300L90.4,300L90.8,300L91.2,300L91.6,300L92,300L92.4,300L92.8,300L93.2,300L93.6,300L94,300L94.4,300L94.8,300L95.2,300L95.6,300L96,300L96.4,300L96.8,300L97.2,300L97.6,300L98,300L98.4,300L98.8,300L99.2,300L99.6,300L100,300L100.4,300L100.8,300L101.2,300L101.6,300L102,300L102.4,300L102.8,300L103.2,300L103.6,300L104,300L104.4,300L104.8,300L105.2,300L105.6,300L106,300L106.4,300L106.8,300L107.2,300L107.6,300L108,300L108.4,300L108.8,300L109.2,300L109.6,300L110,300L110.4,300L110.8,300L111.2,300L111.6,300L112,300L112.4,300L112.8,300L113.2,300L113.6,300L114,300L114.4,300L114.8,300L115.2,300L115.6,300L116,300L116.4,300L116.8,300L117.2,300L117.6,300L118,300L118.4,300L118.8,300L119.2,300L119.6,300L120,300L120.4,300L120.8,300L121.2,300L121.6,300L122,300L122.4,300L122.8,300L123.2,300L123.6,300L124,300L124.4,300L124.8,300L125.2,300L125.6,300L126,300L126.4,300L126.8,300L127.2,300L127.6,300L128,300L128.4,300L128.8,300L129.2,300L129.6,300L130,300L130.4,300L130.8,300L131.2,300L131.6,300L132,300L132.4,300L132.8,300L133.2,300L133.6,300L134,300L134.4,300L134.8,300L135.2,300L135.6,300L136,300L136.4,300L136.8,300L137.2,300L137.6,300L138,300L138.4,300L138.8,300L139.2,300L139.6,300L140,300L140.4,300L140.8,300L141.2,300L141.6,300L142,300L142.4,300L142.8,300L143.2,300L143.6,300L144,300L144.4,300L144.8,300L145.2,300L145.6,300L146,300L146.4,300L146.8,300L147.2,300L147.6,300L148,300L148.4,300L148.8,300L149.2,300L149.6,300L150,300L150.4,300L150.8,300L151.2,300L151.6,300L152,300L152.4,300L152.8,300L153.2,300L153.6,300L154,300L154.4,300L154.8,300L155.2,300L155.6,300L156,300L156.4,300L156.8,300L157.2,300L157.6,300L158,300L158.4,300L158.8,300L159.2,300L159.6,300L160,300L160.4,300L160.8,300L161.2,300L161.6,300L162,300L162.4,300L162.8,300L163.2,300L163.6,300L164,300L164.4,300L164.8,300L165.2,300L165.6,300L166,300L166.4,300L166.8,300L167.2,300L167.6,300L168,300L168.4,300L168.8,300L169.2,300L169.6,300L170,300L170.4,300L170.8,300L171.2,300L171.6,300L172,300L172.4,300L172.8,300L173.2,300L173.6,300L174,300L174.4,300L174.8,300L175.2,300L175.6,300L176,300L176.4,300L176.8,300L177.2,300L177.6,300L178,300L178.4,300L178.8,300L179.2,300L179.6,300L180,300L180.4,300L180.8,300L181.2,300L181.6,300L182,300L182.4,300L182.8,300L183.2,300L183.6,300L184,300L184.4,300L184.8,300L185.2,300L185.6,300L186,300L186.4,300L186.8,300L187.2,300L187.6,300L188,300L188.4,300L188.8,300L189.2,300L189.6,300L190,300L190.4,300L190.8,300L191.2,300L191.6,300L192,300L192.4,300L192.8,300L193.2,300L193.6,300L194,300L194.4,300L194.8,300L195.2,300L195.6,300L196,300L196.4,300L196.8,300L197.2,300L197.6,300L198,300L198.4,300L198.8,300L199.2,300L199.6,300L200,300L200.4,300L200.8,300L201.2,300L201.6,300L202,300L202.4,300L202.8,300L203.2,300L203.6,300L204,300L204.4,300L204.8,300L205.2,300L205.6,300L206,300L206.4,300L206.8,300L207.2,300L207.6,300L208,300L208.4,300L208.8,300L209.2,300L209.6,300L210,300L210.4,300L210.8,297L211.2,297L211.6,297L212,300L212.4,300L212.8,300L213.2,300L213.6,300L214,300L214.4,300L214.8,300L215.2,297L215.6,297L216,300L216.4,297L216.8,300L217.2,300L217.6,300L218,297L218.4,297L218.8,297L219.2,297L219.6,297L220,297L220.4,297L220.8,297L221.2,297L221.6,297L222,297L222.4,297L222.8,297L223.2,294L223.6,294L224,294L224.4,291L224.8,288L225.2,288L225.6,282L226,282L226.4,282L226.8,285L227.2,285L227.6,285L228,282L228.4,285L228.8,285L229.2,282L229.6,285L230,285L230.4,291L230.8,291L231.2,288L231.6,288L232,288L232.4,285L232.8,285L233.2,285L233.6,288L234,288L234.4,288L234.8,288L235.2,288L235.6,282L236,279L236.4,282L236.8,285L237.2,282L237.6,282L238,282L238.4,276L238.8,276L239.2,273L239.6,273L240,276L240.4,279L240.8,279L241.2,276L241.6,270L242,270L242.4,270L242.8,270L243.2,270L243.6,270L244,273L244.4,267L244.8,267L245.2,267L245.6,273L246,273L246.4,273L246.8,273L247.2,270L247.6,273L248,267L248.4,261L248.8,255L249.2,255L249.6,261L250,255L250.4,258L250.8,258L251.2,261L251.6,261L252,261L252.4,258L252.8,258L253.2,255L253.6,258L254,255L254.4,252L254.8,252L255.2,249L255.6,249L256,246L256.4,246L256.8,243L257.2,246L257.6,249L258,252L258.4,249L258.8,246L259.2,243L259.6,246L260,243L260.4,240L260.8,240L261.2,243L261.6,243L262,243L262.4,234L262.8,234L263.2,237L263.6,237L264,240L264.4,237L264.8,234L265.2,237L265.6,237L266,237L266.4,234L266.8,228L267.2,231L267.6,234L268,231L268.4,234L268.8,237L269.2,237L269.6,237L270,231L270.4,228L270.8,225L271.2,231L271.6,228L272,231L272.4,231L272.8,234L273.2,231L273.6,231L274,228L274.4,231L274.8,228L275.2,234L275.6,234L276,234L276.4,234L276.8,228L277.2,231L277.6,225L278,228L278.4,222L278.8,219L279.2,222L279.6,222L280,225L280.4,225L280.8,225L281.2,225L281.6,225L282,225L282.4,225L282.8,225L283.2,225L283.6,222L284,219L284.4,213L284.8,219L285.2,216L285.6,216L286,213L286.4,210L286.8,213L287.2,213L287.6,210L288,213L288.4,213L288.8,207L289.2,213L289.6,213L290,210L290.4,204L290.8,207L291.2,207L291.6,204L292,204L292.4,204L292.8,198L293.2,198L293.6,195L294,201L294.4,201L294.8,204L295.2,201L295.6,195L296,198L296.4,201L296.8,201L297.2,198L297.6,195L298,195L298.4,198L298.8,195L299.2,192L299.6,195L300,195L300.4,195L300.8,195L301.2,189L301.6,189L302,189L302.4,189L302.8,186L303.2,189L303.6,186L304,183L304.4,180L304.8,180L305.2,180L305.6,177L306,177L306.4,174L306.8,165L307.2,165L307.6,162L308,162L308.4,171L308.8,171L309.2,171L309.6,165L310,165L310.4,162L310.8,162L311.2,156L311.6,159L312,156L312.4,159L312.8,162L313.2,162L313.6,159L314,153L314.4,156L314.8,144L315.2,147L315.6,150L316,150L316.4,150L316.8,156L317.2,150L317.6,150L318,147L318.4,147L318.8,144L319.2,144L319.6,147L320,147L320.4,147L320.8,141L321.2,141L321.6,138L322,132L322.4,132L322.8,132L323.2,129L323.6,129L324,132L324.4,132L324.8,132L325.2,129L325.6,132L326,132L326.4,129L326.8,129L327.2,120L327.6,120L328,114L328.4,108L328.8,105L329.2,108L329.6,105L330,105L330.4,105L330.8,99L331.2,96L331.6,99L332,99L332.4,93L332.8,93L333.2,90L333.6,87L334,90L334.4,90L334.8,87L335.2,90L335.6,87L336,87L336.4,87L336.8,84L337.2,81L337.6,81L338,75L338.4,75L338.8,75L339.2,78L339.6,78L340,75L340.4,75L340.8,78L341.2,72L341.6,72L342,72L342.4,66L342.8,72L343.2,69L343.6,69L344,66L344.4,66L344.8,66L345.2,66L345.6,63L346,63L346.4,63L346.8,57L347.2,54L347.6,51L348,48L348.4,48L348.8,45L349.2,42L349.6,45L350,45L350.4,45L350.8,45L351.2,42L351.6,39L352,39L352.4,39L352.8,39L353.2,39L353.6,36L354,36L354.4,33L354.8,30L355.2,30L355.6,30L356,30L356.4,27L356.8,24L357.2,21L357.6,18L358,18L358.4,18L358.8,18L359.2,18L359.6,15L360,18L360.4,15L360.8,15L361.2,15L361.6,15L362,15L362.4,15L362.8,15L363.2,15L363.6,15L364,15L364.4,15L364.8,18L365.2,18L365.6,18L366,15L366.4,15L366.8,15L367.2,15L367.6,15L368,15L368.4,12L368.8,12L369.2,18L369.6,18L370,18L370.4,18L370.8,15L371.2,15L371.6,12L372,12L372.4,12L372.8,12L373.2,12L373.6,9L374,9L374.4,9L374.8,9L375.2,9L375.6,6L376,6L376.4,6L376.8,6L377.2,6L377.6,6L378,6L378.4,6L378.8,6L379.2,6L379.6,6L380,3L380.4,3L380.8,3L381.2,3L381.6,3L382,3L382.4,3L382.8,3L383.2,3L383.6,3L384,3L384.4,3L384.8,3L385.2,3L385.6,3L386,3L386.4,3L386.8,3L387.2,3L387.6,3L388,3L388.4,3L388.8,3L389.2,3L389.6,3L390,3L390.4,3L390.8,3L391.2,3L391.6,3L392,3L392.4,3L392.8,3L393.2,3L393.6,3L394,3L394.4,3L394.8,3L395.2,3L395.6,3L396,3L396.4,3L396.8,3L397.2,3L397.6,3L398,3L398.4,3L398.8,3L399.2,3L399.6,3L400,3" stroke="#4c78a8" stroke-width="2"/></g></g><path class="foreground" aria-hidden="true" d="" display="none"/></g><g transform="translate(0,0)"><path class="background" aria-hidden="true" d="M0,0h400v300h-400Z"/><g><g class="mark-line role-mark marks" role="graphics-object" aria-roledescription="line mark container"><path aria-label="Episode: 1; Reward: 0.04; Reset: 100" role="graphics-symbol" aria-roledescription="line mark" d="M0.4,288L0.8,288L1.2,288L1.6,288L2,288L2.4,288L2.8,282L3.2,270L3.6,258L4,240L4.4,237L4.8,234L5.2,231L5.6,216L6,216L6.4,216L6.8,201L7.2,201L7.6,189L8,168L8.4,162L8.8,156L9.2,144L9.6,132L10,129L10.4,120L10.8,117L11.2,105L11.6,105L12,105L12.4,93L12.8,75L13.2,75L13.6,69L14,63L14.4,54L14.8,54L15.2,42L15.6,36L16,33L16.4,33L16.8,27L17.2,30L17.6,15L18,18L18.4,12L18.8,12L19.2,12L19.6,12L20,6L20.4,6L20.8,6L21.2,6L21.6,3L22,3L22.4,0L22.8,0L23.2,0L23.6,9L24,6L24.4,9L24.8,9L25.2,9L25.6,9L26,9L26.4,9L26.8,6L27.2,6L27.6,6L28,3L28.4,3L28.8,3L29.2,3L29.6,3L30,3L30.4,3L30.8,3L31.2,0L31.6,0L32,0L32.4,0L32.8,0L33.2,0L33.6,0L34,0L34.4,0L34.8,0L35.2,0L35.6,0L36,0L36.4,0L36.8,0L37.2,0L37.6,0L38,0L38.4,0L38.8,0L39.2,0L39.6,0L40,285L40.4,282L40.8,279L41.2,264L41.6,258L42,243L42.4,249L42.8,237L43.2,216L43.6,213L44,216L44.4,213L44.8,213L45.2,210L45.6,207L46,204L46.4,201L46.8,201L47.2,201L47.6,198L48,198L48.4,198L48.8,195L49.2,189L49.6,192L50,189L50.4,186L50.8,183L51.2,180L51.6,180L52,174L52.4,171L52.8,162L53.2,159L53.6,153L54,147L54.4,138L54.8,138L55.2,132L55.6,126L56,120L56.4,114L56.8,102L57.2,102L57.6,93L58,87L58.4,81L58.8,75L59.2,72L59.6,57L60,57L60.4,51L60.8,48L61.2,45L61.6,45L62,45L62.4,39L62.8,39L63.2,36L63.6,33L64,33L64.4,33L64.8,27L65.2,27L65.6,18L66,15L66.4,12L66.8,9L67.2,9L67.6,9L68,6L68.4,6L68.8,6L69.2,6L69.6,6L70,6L70.4,6L70.8,6L71.2,6L71.6,6L72,6L72.4,3L72.8,0L73.2,0L73.6,0L74,0L74.4,0L74.8,0L75.2,0L75.6,0L76,0L76.4,0L76.8,0L77.2,0L77.6,0L78,0L78.4,0L78.8,0L79.2,0L79.6,0L80,285L80.4,276L80.8,294L81.2,294L81.6,291L82,294L82.4,291L82.8,291L83.2,291L83.6,291L84,291L84.4,291L84.8,285L85.2,285L85.6,288L86,288L86.4,288L86.8,285L87.2,282L87.6,285L88,285L88.4,285L88.8,288L89.2,288L89.6,288L90,291L90.4,291L90.8,294L91.2,291L91.6,294L92,297L92.4,294L92.8,294L93.2,294L93.6,294L94,300L94.4,300L94.8,300L95.2,300L95.6,300L96,297L96.4,294L96.8,300L97.2,300L97.6,300L98,300L98.4,300L98.8,300L99.2,300L99.6,297L100,300L100.4,300L100.8,300L101.2,300L101.6,300L102,300L102.4,300L102.8,300L103.2,300L103.6,300L104,300L104.4,300L104.8,300L105.2,300L105.6,300L106,300L106.4,300L106.8,300L107.2,300L107.6,300L108,300L108.4,300L108.8,300L109.2,300L109.6,300L110,300L110.4,300L110.8,300L111.2,300L111.6,300L112,300L112.4,300L112.8,300L113.2,300L113.6,300L114,300L114.4,300L114.8,300L115.2,300L115.6,300L116,300L116.4,300L116.8,300L117.2,300L117.6,300L118,300L118.4,300L118.8,300L119.2,300L119.6,300L120,300L120.4,300L120.8,288L121.2,288L121.6,288L122,288L122.4,291L122.8,297L123.2,297L123.6,297L124,297L124.4,297L124.8,297L125.2,297L125.6,297L126,297L126.4,297L126.8,297L127.2,297L127.6,297L128,297L128.4,294L128.8,294L129.2,285L129.6,285L130,282L130.4,282L130.8,282L131.2,276L131.6,279L132,279L132.4,279L132.8,279L133.2,279L133.6,279L134,276L134.4,276L134.8,276L135.2,270L135.6,270L136,270L136.4,273L136.8,273L137.2,267L137.6,267L138,264L138.4,264L138.8,264L139.2,258L139.6,255L140,258L140.4,255L140.8,258L141.2,249L141.6,255L142,264L142.4,261L142.8,261L143.2,249L143.6,246L144,240L144.4,240L144.8,240L145.2,240L145.6,243L146,240L146.4,234L146.8,231L147.2,240L147.6,243L148,246L148.4,252L148.8,249L149.2,258L149.6,261L150,261L150.4,264L150.8,270L151.2,270L151.6,264L152,267L152.4,264L152.8,267L153.2,267L153.6,267L154,270L154.4,276L154.8,279L155.2,282L155.6,282L156,282L156.4,279L156.8,279L157.2,285L157.6,285L158,285L158.4,285L158.8,282L159.2,282L159.6,282L160,297L160.4,297L160.8,297L161.2,297L161.6,294L162,291L162.4,291L162.8,288L163.2,288L163.6,291L164,288L164.4,288L164.8,285L165.2,285L165.6,279L166,276L166.4,273L166.8,273L167.2,273L167.6,270L168,258L168.4,258L168.8,252L169.2,249L169.6,243L170,243L170.4,234L170.8,234L171.2,231L171.6,225L172,222L172.4,213L172.8,213L173.2,210L173.6,204L174,198L174.4,195L174.8,189L175.2,186L175.6,186L176,180L176.4,177L176.8,165L177.2,165L177.6,162L178,159L178.4,156L178.8,153L179.2,150L179.6,147L180,144L180.4,144L180.8,138L181.2,138L181.6,135L182,132L182.4,129L182.8,129L183.2,129L183.6,123L184,111L184.4,108L184.8,108L185.2,111L185.6,111L186,117L186.4,108L186.8,111L187.2,108L187.6,108L188,108L188.4,105L188.8,105L189.2,102L189.6,102L190,99L190.4,105L190.8,102L191.2,105L191.6,114L192,120L192.4,126L192.8,135L193.2,132L193.6,144L194,147L194.4,147L194.8,156L195.2,150L195.6,150L196,156L196.4,162L196.8,162L197.2,165L197.6,171L198,174L198.4,177L198.8,174L199.2,171L199.6,171L200,294L200.4,288L200.8,288L201.2,288L201.6,282L202,276L202.4,264L202.8,261L203.2,258L203.6,252L204,243L204.4,240L204.8,240L205.2,228L205.6,219L206,216L206.4,213L206.8,210L207.2,201L207.6,189L208,183L208.4,174L208.8,162L209.2,156L209.6,156L210,153L210.4,150L210.8,144L211.2,138L211.6,132L212,123L212.4,111L212.8,105L213.2,96L213.6,93L214,93L214.4,87L214.8,81L215.2,78L215.6,72L216,69L216.4,69L216.8,57L217.2,57L217.6,57L218,54L218.4,57L218.8,57L219.2,54L219.6,48L220,42L220.4,42L220.8,36L221.2,36L221.6,36L222,30L222.4,30L222.8,24L223.2,24L223.6,21L224,21L224.4,18L224.8,15L225.2,15L225.6,12L226,9L226.4,9L226.8,9L227.2,9L227.6,9L228,9L228.4,12L228.8,12L229.2,15L229.6,15L230,12L230.4,12L230.8,12L231.2,12L231.6,15L232,15L232.4,15L232.8,12L233.2,12L233.6,15L234,18L234.4,18L234.8,18L235.2,18L235.6,18L236,15L236.4,12L236.8,15L237.2,15L237.6,15L238,15L238.4,18L238.8,21L239.2,24L239.6,21L240,294L240.4,291L240.8,288L241.2,285L241.6,285L242,276L242.4,270L242.8,249L243.2,243L243.6,240L244,234L244.4,216L244.8,207L245.2,201L245.6,180L246,174L246.4,162L246.8,153L247.2,150L247.6,144L248,138L248.4,132L248.8,129L249.2,123L249.6,120L250,114L250.4,105L250.8,102L251.2,84L251.6,84L252,81L252.4,72L252.8,69L253.2,66L253.6,60L254,54L254.4,51L254.8,48L255.2,48L255.6,42L256,42L256.4,42L256.8,39L257.2,39L257.6,36L258,33L258.4,27L258.8,27L259.2,27L259.6,24L260,21L260.4,15L260.8,15L261.2,12L261.6,12L262,12L262.4,12L262.8,12L263.2,12L263.6,9L264,9L264.4,6L264.8,6L265.2,6L265.6,6L266,3L266.4,3L266.8,3L267.2,3L267.6,0L268,0L268.4,0L268.8,0L269.2,0L269.6,0L270,0L270.4,0L270.8,0L271.2,0L271.6,0L272,0L272.4,0L272.8,0L273.2,0L273.6,0L274,0L274.4,0L274.8,0L275.2,0L275.6,0L276,0L276.4,0L276.8,0L277.2,0L277.6,0L278,0L278.4,0L278.8,0L279.2,0L279.6,0L280,285L280.4,279L280.8,267L281.2,261L281.6,261L282,255L282.4,249L282.8,249L283.2,246L283.6,237L284,237L284.4,228L284.8,216L285.2,213L285.6,201L286,186L286.4,174L286.8,165L287.2,156L287.6,150L288,141L288.4,129L288.8,117L289.2,105L289.6,102L290,99L290.4,96L290.8,93L291.2,84L291.6,72L292,69L292.4,66L292.8,63L293.2,60L293.6,57L294,48L294.4,42L294.8,39L295.2,36L295.6,30L296,30L296.4,24L296.8,24L297.2,24L297.6,21L298,21L298.4,15L298.8,15L299.2,15L299.6,9L300,9L300.4,6L300.8,6L301.2,6L301.6,6L302,6L302.4,6L302.8,6L303.2,6L303.6,6L304,6L304.4,6L304.8,6L305.2,6L305.6,6L306,6L306.4,6L306.8,3L307.2,3L307.6,3L308,3L308.4,3L308.8,3L309.2,3L309.6,3L310,3L310.4,3L310.8,3L311.2,3L311.6,3L312,3L312.4,3L312.8,3L313.2,3L313.6,3L314,3L314.4,3L314.8,3L315.2,3L315.6,3L316,3L316.4,3L316.8,3L317.2,3L317.6,3L318,3L318.4,3L318.8,0L319.2,0L319.6,0L320,300L320.4,300L320.8,288L321.2,279L321.6,273L322,258L322.4,240L322.8,228L323.2,204L323.6,192L324,186L324.4,180L324.8,171L325.2,162L325.6,156L326,150L326.4,144L326.8,141L327.2,135L327.6,129L328,120L328.4,114L328.8,108L329.2,102L329.6,96L330,90L330.4,90L330.8,87L331.2,84L331.6,75L332,72L332.4,69L332.8,66L333.2,63L333.6,63L334,63L334.4,63L334.8,63L335.2,57L335.6,57L336,51L336.4,48L336.8,48L337.2,45L337.6,45L338,45L338.4,39L338.8,39L339.2,36L339.6,33L340,33L340.4,30L340.8,30L341.2,27L341.6,27L342,21L342.4,18L342.8,15L343.2,15L343.6,12L344,12L344.4,12L344.8,12L345.2,12L345.6,12L346,9L346.4,9L346.8,9L347.2,9L347.6,9L348,9L348.4,6L348.8,6L349.2,6L349.6,6L350,3L350.4,3L350.8,0L351.2,0L351.6,0L352,0L352.4,0L352.8,0L353.2,0L353.6,0L354,0L354.4,0L354.8,0L355.2,0L355.6,0L356,0L356.4,0L356.8,0L357.2,0L357.6,0L358,0L358.4,0L358.8,0L359.2,0L359.6,0L360,291L360.4,279L360.8,276L361.2,267L361.6,258L362,249L362.4,240L362.8,219L363.2,207L363.6,195L364,183L364.4,171L364.8,162L365.2,144L365.6,138L366,117L366.4,111L366.8,108L367.2,102L367.6,102L368,102L368.4,99L368.8,96L369.2,90L369.6,87L370,81L370.4,75L370.8,75L371.2,75L371.6,75L372,75L372.4,69L372.8,60L373.2,54L373.6,54L374,51L374.4,45L374.8,42L375.2,42L375.6,42L376,39L376.4,39L376.8,39L377.2,30L377.6,30L378,30L378.4,27L378.8,27L379.2,21L379.6,21L380,21L380.4,18L380.8,18L381.2,18L381.6,18L382,18L382.4,18L382.8,15L383.2,12L383.6,9L384,6L384.4,6L384.8,6L385.2,6L385.6,6L386,6L386.4,6L386.8,3L387.2,3L387.6,3L388,3L388.4,0L388.8,0L389.2,0L389.6,0L390,0L390.4,0L390.8,0L391.2,0L391.6,0L392,0L392.4,0L392.8,0L393.2,0L393.6,0L394,0L394.4,0L394.8,0L395.2,0L395.6,0L396,0L396.4,0L396.8,0L397.2,0L397.6,0L398,0L398.4,0L398.8,0L399.2,0L399.6,0L400,288" stroke="#f58518" stroke-width="2"/></g></g><path class="foreground" aria-hidden="true" d="" display="none"/></g></g><g class="mark-group role-legend" role="graphics-symbol" aria-roledescription="legend" aria-label="Symbol legend titled 'Reset' for stroke color with 2 values: 0, 100"><g transform="translate(420,0)"><path class="background" aria-hidden="true" d="M0,0h48v63h-48Z" pointer-events="none"/><g><g class="mark-group role-legend-entry"><g transform="translate(0,21)"><path class="background" aria-hidden="true" d="M0,0h0v0h0Z" pointer-events="none"/><g><g class="mark-group role-scope" role="graphics-object" aria-roledescription="group mark container"><g transform="translate(0,0)"><path class="background" aria-hidden="true" d="M0,0h47.3583984375v20h-47.3583984375Z" pointer-events="none" opacity="1"/><g><g class="mark-symbol role-legend-symbol" pointer-events="none"><path transform="translate(10,10)" d="M-5,0L5,0" stroke="#4c78a8" stroke-width="10" opacity="1"/></g><g class="mark-text role-legend-label" pointer-events="none"><text text-anchor="start" transform="translate(24,14)" font-family="sans-serif" font-size="14px" fill="#000" opacity="1">0</text></g></g><path class="foreground" aria-hidden="true" d="" pointer-events="none" display="none"/></g><g transform="translate(0,22)"><path class="background" aria-hidden="true" d="M0,0h47.3583984375v20h-47.3583984375Z" pointer-events="none" opacity="1"/><g><g class="mark-symbol role-legend-symbol" pointer-events="none"><path transform="translate(10,10)" d="M-5,0L5,0" stroke="#f58518" stroke-width="10" opacity="1"/></g><g class="mark-text role-legend-label" pointer-events="none"><text text-anchor="start" transform="translate(24,14)" font-family="sans-serif" font-size="14px" fill="#000" opacity="1">100</text></g></g><path class="foreground" aria-hidden="true" d="" pointer-events="none" display="none"/></g></g></g><path class="foreground" aria-hidden="true" d="" pointer-events="none" display="none"/></g></g><g class="mark-text role-legend-title" pointer-events="none"><text text-anchor="start" transform="translate(0,13)" font-family="sans-serif" font-size="16px" font-weight="bold" fill="#000" opacity="1">Reset</text></g></g><path class="foreground" aria-hidden="true" d="" pointer-events="none" display="none"/></g></g><g class="mark-group role-title"><g transform="translate(200,-29)"><path class="background" aria-hidden="true" d="M0,0h0v0h0Z" pointer-events="none"/><g><g class="mark-text role-title-text" role="graphics-symbol" aria-roledescription="title" aria-label="Title text 'Reward Overtime'" pointer-events="none"><text text-anchor="middle" transform="translate(0,14)" font-family="sans-serif" font-size="18px" font-weight="bold" fill="#000" opacity="1">Reward Overtime</text></g></g><path class="foreground" aria-hidden="true" d="" pointer-events="none" display="none"/></g></g></g><path class="foreground" aria-hidden="true" d="" display="none"/></g></g></g></svg>