<svg xmlns="http://www.w3.org/2000/svg" xmlns:xlink="http://www.w3.org/1999/xlink" version="1.1" class="marks" width="525" height="380" viewBox="0 0 525 380"><rect width="525" height="380" fill="white"/><g fill="none" stroke-miterlimit="10" transform="translate(52,34)"><g class="mark-group role-frame root" role="graphics-object" aria-roledescription="group mark container"><g transform="translate(0,0)"><path class="background" aria-hidden="true" d="M0.5,0.5h400v300h-400Z" stroke="#ddd"/><g><g class="mark-group role-axis" aria-hidden="true"><g transform="translate(0.5,300.5)"><path class="background" aria-hidden="true" d="M0,0h0v0h0Z" pointer-events="none"/><g><g class="mark-rule role-axis-grid" pointer-events="none"><line transform="translate(0,-300)" x2="0" y2="300" stroke="#ddd" stroke-width="1" opacity="1"/><line transform="translate(40,-300)" x2="0" y2="300" stroke="#ddd" stroke-width="1" opacity="1"/><line transform="translate(80,-300)" x2="0" y2="300" stroke="#ddd" stroke-width="1" opacity="1"/><line transform="translate(120,-300)" x2="0" y2="300" stroke="#ddd" stroke-width="1" opacity="1"/><line transform="translate(160,-300)" x2="0" y2="300" stroke="#ddd" stroke-width="1" opacity="1"/><line transform="translate(200,-300)" x2="0" y2="300" stroke="#ddd" stroke-width="1" opacity="1"/><line transform="translate(240,-300)" x2="0" y2="300" stroke="#ddd" stroke-width="1" opacity="1"/><line transform="translate(280,-300)" x2="0" y2="300" stroke="#ddd" stroke-width="1" opacity="1"/><line transform="translate(320,-300)" x2="0" y2="300" stroke="#ddd" stroke-width="1" opacity="1"/><line transform="translate(360,-300)" x2="0" y2="300" stroke="#ddd" stroke-width="1" opacity="1"/><line transform="translate(400,-300)" x2="0" y2="300" stroke="#ddd" stroke-width="1" opacity="1"/></g></g><path class="foreground" aria-hidden="true" d="" pointer-events="none" display="none"/></g></g><g class="mark-group role-axis" aria-hidden="true"><g transform="translate(0.5,0.5)"><path class="background" aria-hidden="true" d="M0,0h0v0h0Z" pointer-events="none"/><g><g class="mark-rule role-axis-grid" pointer-events="none"><line transform="translate(0,300)" x2="400" y2="0" stroke="#ddd" stroke-width="1" opacity="1"/><line transform="translate(0,270)" x2="400" y2="0" stroke="#ddd" stroke-width="1" opacity="1"/><line transform="translate(0,240)" x2="400" y2="0" stroke="#ddd" stroke-width="1" opacity="1"/><line transform="translate(0,210)" x2="400" y2="0" stroke="#ddd" stroke-width="1" opacity="1"/><line transform="translate(0,180)" x2="400" y2="0" stroke="#ddd" stroke-width="1" opacity="1"/><line transform="translate(0,150)" x2="400" y2="0" stroke="#ddd" stroke-width="1" opacity="1"/><line transform="translate(0,120)" x2="400" y2="0" stroke="#ddd" stroke-width="1" opacity="1"/><line transform="translate(0,90)" x2="400" y2="0" stroke="#ddd" stroke-width="1" opacity="1"/><line transform="translate(0,60)" x2="400" y2="0" stroke="#ddd" stroke-width="1" opacity="1"/><line transform="translate(0,30)" x2="400" y2="0" stroke="#ddd" stroke-width="1" opacity="1"/><line transform="translate(0,0)" x2="400" y2="0" stroke="#ddd" stroke-width="1" opacity="1"/></g></g><path class="foreground" aria-hidden="true" d="" pointer-events="none" display="none"/></g></g><g class="mark-group role-axis" role="graphics-symbol" aria-roledescription="axis" aria-label="X-axis titled 'Episode' for a linear scale with values from 0 to 1,000"><g transform="translate(0.5,300.5)"><path class="background" aria-hidden="true" d="M0,0h0v0h0Z" pointer-events="none"/><g><g class="mark-rule role-axis-tick" pointer-events="none"><line transform="translate(0,0)" x2="0" y2="5" stroke="#888" stroke-width="1" opacity="1"/><line transform="translate(40,0)" x2="0" y2="5" stroke="#888" stroke-width="1" opacity="1"/><line transform="translate(80,0)" x2="0" y2="5" stroke="#888" stroke-width="1" opacity="1"/><line transform="translate(120,0)" x2="0" y2="5" stroke="#888" stroke-width="1" opacity="1"/><line transform="translate(160,0)" x2="0" y2="5" stroke="#888" stroke-width="1" opacity="1"/><line transform="translate(200,0)" x2="0" y2="5" stroke="#888" stroke-width="1" opacity="1"/><line transform="translate(240,0)" x2="0" y2="5" stroke="#888" stroke-width="1" opacity="1"/><line transform="translate(280,0)" x2="0" y2="5" stroke="#888" stroke-width="1" opacity="1"/><line transform="translate(320,0)" x2="0" y2="5" stroke="#888" stroke-width="1" opacity="1"/><line transform="translate(360,0)" x2="0" y2="5" stroke="#888" stroke-width="1" opacity="1"/><line transform="translate(400,0)" x2="0" y2="5" stroke="#888" stroke-width="1" opacity="1"/></g><g class="mark-text role-axis-label" pointer-events="none"><text text-anchor="start" transform="translate(0,18)" font-family="sans-serif" font-size="14px" fill="#000" opacity="1">0</text><text text-anchor="middle" transform="translate(40,18)" font-family="sans-serif" font-size="14px" fill="#000" opacity="0">100</text><text text-anchor="middle" transform="translate(80,18)" font-family="sans-serif" font-size="14px" fill="#000" opacity="1">200</text><text text-anchor="middle" transform="translate(120,18)" font-family="sans-serif" font-size="14px" fill="#000" opacity="0">300</text><text text-anchor="middle" transform="translate(160,18)" font-family="sans-serif" font-size="14px" fill="#000" opacity="1">400</text><text text-anchor="middle" transform="translate(200,18)" font-family="sans-serif" font-size="14px" fill="#000" opacity="0">500</text><text text-anchor="middle" transform="translate(240,18)" font-family="sans-serif" font-size="14px" fill="#000" opacity="1">600</text><text text-anchor="middle" transform="translate(280,18)" font-family="sans-serif" font-size="14px" fill="#000" opacity="0">700</text><text text-anchor="middle" transform="translate(320,18)" font-family="sans-serif" font-size="14px" fill="#000" opacity="1">800</text><text text-anchor="middle" transform="translate(360,18)" font-family="sans-serif" font-size="14px" fill="#000" opacity="0">900</text><text text-anchor="end" transform="translate(400,18)" font-family="sans-serif" font-size="14px" fill="#000" opacity="1">1,000</text></g><g class="mark-rule role-axis-domain" pointer-events="none"><line transform="translate(0,0)" x2="400" y2="0" stroke="#888" stroke-width="1" opacity="1"/></g><g class="mark-text role-axis-title" pointer-events="none"><text text-anchor="middle" transform="translate(200,38)" font-family="sans-serif" font-size="16px" font-weight="bold" fill="#000" opacity="1">Episode</text></g></g><path class="foreground" aria-hidden="true" d="" pointer-events="none" display="none"/></g></g><g class="mark-group role-axis" role="graphics-symbol" aria-roledescription="axis" aria-label="Y-axis titled 'Reward' for a linear scale with values from 0.0 to 1.0"><g transform="translate(0.5,0.5)"><path class="background" aria-hidden="true" d="M0,0h0v0h0Z" pointer-events="none"/><g><g class="mark-rule role-axis-tick" pointer-events="none"><line transform="translate(0,300)" x2="-5" y2="0" stroke="#888" stroke-width="1" opacity="1"/><line transform="translate(0,270)" x2="-5" y2="0" stroke="#888" stroke-width="1" opacity="1"/><line transform="translate(0,240)" x2="-5" y2="0" stroke="#888" stroke-width="1" opacity="1"/><line transform="translate(0,210)" x2="-5" y2="0" stroke="#888" stroke-width="1" opacity="1"/><line transform="translate(0,180)" x2="-5" y2="0" stroke="#888" stroke-width="1" opacity="1"/><line transform="translate(0,150)" x2="-5" y2="0" stroke="#888" stroke-width="1" opacity="1"/><line transform="translate(0,120)" x2="-5" y2="0" stroke="#888" stroke-width="1" opacity="1"/><line transform="translate(0,90)" x2="-5" y2="0" stroke="#888" stroke-width="1" opacity="1"/><line transform="translate(0,60)" x2="-5" y2="0" stroke="#888" stroke-width="1" opacity="1"/><line transform="translate(0,30)" x2="-5" y2="0" stroke="#888" stroke-width="1" opacity="1"/><line transform="translate(0,0)" x2="-5" y2="0" stroke="#888" stroke-width="1" opacity="1"/></g><g class="mark-text role-axis-label" pointer-events="none"><text text-anchor="end" transform="translate(-7,304)" font-family="sans-serif" font-size="14px" fill="#000" opacity="1">0.0</text><text text-anchor="end" transform="translate(-7,274)" font-family="sans-serif" font-size="14px" fill="#000" opacity="1">0.1</text><text text-anchor="end" transform="translate(-7,244)" font-family="sans-serif" font-size="14px" fill="#000" opacity="1">0.2</text><text text-anchor="end" transform="translate(-7,214)" font-family="sans-serif" font-size="14px" fill="#000" opacity="1">0.3</text><text text-anchor="end" transform="translate(-7,184)" font-family="sans-serif" font-size="14px" fill="#000" opacity="1">0.4</text><text text-anchor="end" transform="translate(-7,154)" font-family="sans-serif" font-size="14px" fill="#000" opacity="1">0.5</text><text text-anchor="end" transform="translate(-7,124)" font-family="sans-serif" font-size="14px" fill="#000" opacity="1">0.6</text><text text-anchor="end" transform="translate(-7,94.00000000000001)" font-family="sans-serif" font-size="14px" fill="#000" opacity="1">0.7</text><text text-anchor="end" transform="translate(-7,63.999999999999986)" font-family="sans-serif" font-size="14px" fill="#000" opacity="1">0.8</text><text text-anchor="end" transform="translate(-7,33.99999999999999)" font-family="sans-serif" font-size="14px" fill="#000" opacity="1">0.9</text><text text-anchor="end" transform="translate(-7,4)" font-family="sans-serif" font-size="14px" fill="#000" opacity="1">1.0</text></g><g class="mark-rule role-axis-domain" pointer-events="none"><line transform="translate(0,300)" x2="0" y2="-300" stroke="#888" stroke-width="1" opacity="1"/></g><g class="mark-text role-axis-title" pointer-events="none"><text text-anchor="middle" transform="translate(-30.4619140625,150) rotate(-90) translate(0,-3)" font-family="sans-serif" font-size="16px" font-weight="bold" fill="#000" opacity="1">Reward</text></g></g><path class="foreground" aria-hidden="true" d="" pointer-events="none" display="none"/></g></g><g class="mark-group role-scope pathgroup" role="graphics-object" aria-roledescription="group mark container"><g transform="translate(0,0)"><path class="background" aria-hidden="true" d="M0,0h400v300h-400Z"/><g><g class="mark-line role-mark marks" role="graphics-object" aria-roledescription="line mark container"><path aria-label="Episode: 1; Reward: 0; Reset: 0" role="graphics-symbol" aria-roledescription="line mark" d="M0.4,300L0.8,300L1.2,300L1.6,300L2,300L2.4,300L2.8,300L3.2,300L3.6,300L4,300L4.4,300L4.8,300L5.2,300L5.6,300L6,300L6.4,300L6.8,300L7.2,286.957L7.6,286.957L8,300L8.4,273.913L8.8,247.826L9.2,247.826L9.6,234.783L10,234.783L10.4,221.739L10.8,208.696L11.2,221.739L11.6,221.739L12,208.696L12.4,182.609L12.8,195.652L13.2,195.652L13.6,182.609L14,169.565L14.4,156.522L14.8,156.522L15.2,130.435L15.6,130.435L16,130.435L16.4,104.348L16.8,91.304L17.2,91.304L17.6,78.261L18,78.261L18.4,78.261L18.8,78.261L19.2,78.261L19.6,65.217L20,52.174L20.4,39.13L20.8,39.13L21.2,39.13L21.6,39.13L22,39.13L22.4,26.087L22.8,26.087L23.2,26.087L23.6,26.087L24,26.087L24.4,26.087L24.8,0L25.2,0L25.6,0L26,0L26.4,0L26.8,0L27.2,0L27.6,0L28,0L28.4,0L28.8,0L29.2,0L29.6,0L30,0L30.4,0L30.8,0L31.2,0L31.6,0L32,0L32.4,0L32.8,0L33.2,0L33.6,0L34,0L34.4,0L34.8,0L35.2,0L35.6,0L36,0L36.4,0L36.8,0L37.2,0L37.6,0L38,0L38.4,0L38.8,0L39.2,0L39.6,0L40,0L40.4,0L40.8,0L41.2,0L41.6,0L42,0L42.4,0L42.8,0L43.2,0L43.6,0L44,0L44.4,0L44.8,0L45.2,0L45.6,0L46,0L46.4,0L46.8,0L47.2,0L47.6,0L48,0L48.4,0L48.8,0L49.2,0L49.6,0L50,0L50.4,0L50.8,0L51.2,0L51.6,0L52,0L52.4,0L52.8,0L53.2,0L53.6,0L54,0L54.4,0L54.8,0L55.2,0L55.6,0L56,0L56.4,0L56.8,0L57.2,0L57.6,0L58,0L58.4,0L58.8,0L59.2,0L59.6,0L60,0L60.4,0L60.8,0L61.2,0L61.6,0L62,0L62.4,0L62.8,0L63.2,0L63.6,0L64,0L64.4,0L64.8,0L65.2,0L65.6,0L66,0L66.4,0L66.8,0L67.2,0L67.6,0L68,0L68.4,0L68.8,0L69.2,0L69.6,0L70,0L70.4,0L70.8,0L71.2,0L71.6,0L72,0L72.4,0L72.8,0L73.2,0L73.6,0L74,0L74.4,0L74.8,0L75.2,0L75.6,0L76,0L76.4,0L76.8,0L77.2,0L77.6,0L78,0L78.4,0L78.8,0L79.2,0L79.6,0L80,0L80.4,0L80.8,300L81.2,300L81.6,300L82,300L82.4,300L82.8,300L83.2,300L83.6,300L84,300L84.4,300L84.8,300L85.2,300L85.6,300L86,300L86.4,300L86.8,300L87.2,300L87.6,300L88,300L88.4,300L88.8,300L89.2,300L89.6,300L90,300L90.4,300L90.8,300L91.2,300L91.6,300L92,300L92.4,300L92.8,300L93.2,300L93.6,300L94,300L94.4,300L94.8,300L95.2,300L95.6,300L96,300L96.4,300L96.8,300L97.2,300L97.6,300L98,300L98.4,300L98.8,300L99.2,300L99.6,300L100,300L100.4,300L100.8,300L101.2,300L101.6,300L102,300L102.4,300L102.8,300L103.2,300L103.6,300L104,300L104.4,300L104.8,300L105.2,300L105.6,300L106,300L106.4,300L106.8,300L107.2,300L107.6,300L108,300L108.4,300L108.8,300L109.2,300L109.6,300L110,300L110.4,300L110.8,300L111.2,300L111.6,300L112,300L112.4,300L112.8,300L113.2,300L113.6,300L114,300L114.4,300L114.8,300L115.2,300L115.6,300L116,300L116.4,300L116.8,300L117.2,300L117.6,300L118,300L118.4,300L118.8,300L119.2,300L119.6,300L120,300L120.4,300L120.8,300L121.2,300L121.6,300L122,300L122.4,300L122.8,300L123.2,300L123.6,300L124,300L124.4,300L124.8,300L125.2,300L125.6,300L126,300L126.4,300L126.8,300L127.2,300L127.6,300L128,300L128.4,300L128.8,300L129.2,300L129.6,300L130,300L130.4,300L130.8,300L131.2,300L131.6,300L132,300L132.4,300L132.8,300L133.2,300L133.6,300L134,300L134.4,300L134.8,300L135.2,300L135.6,300L136,300L136.4,300L136.8,300L137.2,300L137.6,300L138,300L138.4,300L138.8,300L139.2,300L139.6,300L140,300L140.4,300L140.8,300L141.2,300L141.6,300L142,300L142.4,300L142.8,300L143.2,300L143.6,300L144,300L144.4,300L144.8,300L145.2,300L145.6,300L146,300L146.4,300L146.8,300L147.2,300L147.6,300L148,300L148.4,300L148.8,300L149.2,300L149.6,300L150,300L150.4,300L150.8,300L151.2,300L151.6,300L152,300L152.4,300L152.8,300L153.2,300L153.6,300L154,300L154.4,300L154.8,300L155.2,300L155.6,300L156,300L156.4,300L156.8,300L157.2,300L157.6,300L158,300L158.4,300L158.8,300L159.2,300L159.6,300L160,300L160.4,300L160.8,300L161.2,300L161.6,300L162,300L162.4,300L162.8,300L163.2,300L163.6,300L164,300L164.4,300L164.8,300L165.2,300L165.6,300L166,300L166.4,300L166.8,300L167.2,300L167.6,300L168,300L168.4,300L168.8,300L169.2,300L169.6,300L170,300L170.4,300L170.8,300L171.2,300L171.6,300L172,300L172.4,300L172.8,300L173.2,300L173.6,300L174,300L174.4,300L174.8,300L175.2,300L175.6,300L176,300L176.4,300L176.8,300L177.2,300L177.6,300L178,300L178.4,300L178.8,300L179.2,300L179.6,300L180,300L180.4,300L180.8,300L181.2,300L181.6,300L182,300L182.4,300L182.8,300L183.2,300L183.6,300L184,300L184.4,300L184.8,300L185.2,300L185.6,300L186,300L186.4,300L186.8,300L187.2,300L187.6,300L188,300L188.4,300L188.8,300L189.2,300L189.6,300L190,300L190.4,300L190.8,300L191.2,300L191.6,300L192,300L192.4,300L192.8,300L193.2,300L193.6,300L194,300L194.4,300L194.8,300L195.2,300L195.6,300L196,300L196.4,300L196.8,300L197.2,300L197.6,300L198,300L198.4,300L198.8,300L199.2,286.957L199.6,286.957L200,286.957L200.4,286.957L200.8,286.957L201.2,286.957L201.6,286.957L202,286.957L202.4,273.913L202.8,273.913L203.2,273.913L203.6,273.913L204,273.913L204.4,273.913L204.8,273.913L205.2,273.913L205.6,273.913L206,273.913L206.4,273.913L206.8,273.913L207.2,273.913L207.6,273.913L208,273.913L208.4,273.913L208.8,273.913L209.2,273.913L209.6,273.913L210,273.913L210.4,273.913L210.8,273.913L211.2,273.913L211.6,273.913L212,260.87L212.4,260.87L212.8,260.87L213.2,260.87L213.6,260.87L214,273.913L214.4,273.913L214.8,273.913L215.2,273.913L215.6,260.87L216,260.87L216.4,260.87L216.8,273.913L217.2,273.913L217.6,273.913L218,273.913L218.4,260.87L218.8,260.87L219.2,260.87L219.6,260.87L220,247.826L220.4,247.826L220.8,247.826L221.2,260.87L221.6,260.87L222,260.87L222.4,260.87L222.8,260.87L223.2,273.913L223.6,260.87L224,260.87L224.4,273.913L224.8,273.913L225.2,273.913L225.6,273.913L226,260.87L226.4,260.87L226.8,260.87L227.2,260.87L227.6,260.87L228,260.87L228.4,260.87L228.8,260.87L229.2,260.87L229.6,260.87L230,260.87L230.4,260.87L230.8,260.87L231.2,260.87L231.6,260.87L232,247.826L232.4,247.826L232.8,247.826L233.2,247.826L233.6,247.826L234,260.87L234.4,247.826L234.8,247.826L235.2,247.826L235.6,260.87L236,247.826L236.4,247.826L236.8,247.826L237.2,247.826L237.6,247.826L238,247.826L238.4,247.826L238.8,247.826L239.2,247.826L239.6,247.826L240,247.826L240.4,260.87L240.8,247.826L241.2,247.826L241.6,247.826L242,247.826L242.4,247.826L242.8,247.826L243.2,247.826L243.6,247.826L244,247.826L244.4,247.826L244.8,247.826L245.2,247.826L245.6,247.826L246,247.826L246.4,247.826L246.8,247.826L247.2,247.826L247.6,247.826L248,247.826L248.4,247.826L248.8,247.826L249.2,247.826L249.6,247.826L250,247.826L250.4,247.826L250.8,234.783L251.2,234.783L251.6,247.826L252,234.783L252.4,234.783L252.8,234.783L253.2,234.783L253.6,234.783L254,234.783L254.4,234.783L254.8,234.783L255.2,234.783L255.6,234.783L256,247.826L256.4,247.826L256.8,247.826L257.2,247.826L257.6,247.826L258,247.826L258.4,247.826L258.8,247.826L259.2,247.826L259.6,247.826L260,247.826L260.4,247.826L260.8,234.783L261.2,234.783L261.6,234.783L262,234.783L262.4,234.783L262.8,234.783L263.2,234.783L263.6,234.783L264,234.783L264.4,247.826L264.8,247.826L265.2,247.826L265.6,247.826L266,247.826L266.4,247.826L266.8,234.783L267.2,247.826L267.6,247.826L268,247.826L268.4,247.826L268.8,247.826L269.2,247.826L269.6,247.826L270,234.783L270.4,234.783L270.8,234.783L271.2,234.783L271.6,234.783L272,234.783L272.4,234.783L272.8,234.783L273.2,234.783L273.6,234.783L274,234.783L274.4,234.783L274.8,234.783L275.2,234.783L275.6,234.783L276,234.783L276.4,234.783L276.8,234.783L277.2,234.783L277.6,234.783L278,234.783L278.4,234.783L278.8,234.783L279.2,234.783L279.6,234.783L280,234.783L280.4,234.783L280.8,234.783L281.2,234.783L281.6,234.783L282,234.783L282.4,234.783L282.8,234.783L283.2,234.783L283.6,234.783L284,234.783L284.4,234.783L284.8,234.783L285.2,234.783L285.6,234.783L286,234.783L286.4,234.783L286.8,234.783L287.2,234.783L287.6,234.783L288,234.783L288.4,221.739L288.8,221.739L289.2,221.739L289.6,221.739L290,221.739L290.4,221.739L290.8,208.696L291.2,208.696L291.6,208.696L292,208.696L292.4,208.696L292.8,208.696L293.2,208.696L293.6,208.696L294,208.696L294.4,208.696L294.8,208.696L295.2,195.652L295.6,195.652L296,195.652L296.4,195.652L296.8,195.652L297.2,195.652L297.6,195.652L298,195.652L298.4,195.652L298.8,195.652L299.2,195.652L299.6,195.652L300,195.652L300.4,195.652L300.8,195.652L301.2,195.652L301.6,195.652L302,195.652L302.4,208.696L302.8,195.652L303.2,195.652L303.6,195.652L304,195.652L304.4,195.652L304.8,195.652L305.2,195.652L305.6,182.609L306,182.609L306.4,182.609L306.8,182.609L307.2,182.609L307.6,182.609L308,182.609L308.4,182.609L308.8,182.609L309.2,182.609L309.6,182.609L310,182.609L310.4,182.609L310.8,195.652L311.2,195.652L311.6,182.609L312,182.609L312.4,169.565L312.8,169.565L313.2,169.565L313.6,169.565L314,169.565L314.4,169.565L314.8,169.565L315.2,169.565L315.6,169.565L316,169.565L316.4,169.565L316.8,156.522L317.2,182.609L317.6,169.565L318,169.565L318.4,169.565L318.8,169.565L319.2,156.522L319.6,156.522L320,169.565L320.4,156.522L320.8,169.565L321.2,169.565L321.6,156.522L322,156.522L322.4,143.478L322.8,143.478L323.2,143.478L323.6,143.478L324,143.478L324.4,143.478L324.8,117.391L325.2,117.391L325.6,117.391L326,104.348L326.4,104.348L326.8,104.348L327.2,104.348L327.6,104.348L328,104.348L328.4,104.348L328.8,104.348L329.2,104.348L329.6,104.348L330,104.348L330.4,104.348L330.8,104.348L331.2,104.348L331.6,104.348L332,104.348L332.4,104.348L332.8,104.348L333.2,104.348L333.6,104.348L334,104.348L334.4,104.348L334.8,104.348L335.2,104.348L335.6,91.304L336,91.304L336.4,91.304L336.8,91.304L337.2,91.304L337.6,91.304L338,91.304L338.4,91.304L338.8,91.304L339.2,91.304L339.6,91.304L340,91.304L340.4,91.304L340.8,91.304L341.2,91.304L341.6,91.304L342,91.304L342.4,78.261L342.8,78.261L343.2,78.261L343.6,78.261L344,78.261L344.4,78.261L344.8,65.217L345.2,65.217L345.6,65.217L346,65.217L346.4,65.217L346.8,65.217L347.2,65.217L347.6,65.217L348,65.217L348.4,65.217L348.8,65.217L349.2,65.217L349.6,65.217L350,52.174L350.4,52.174L350.8,52.174L351.2,52.174L351.6,52.174L352,52.174L352.4,52.174L352.8,52.174L353.2,52.174L353.6,52.174L354,52.174L354.4,52.174L354.8,52.174L355.2,52.174L355.6,52.174L356,52.174L356.4,52.174L356.8,52.174L357.2,52.174L357.6,52.174L358,52.174L358.4,52.174L358.8,52.174L359.2,52.174L359.6,52.174L360,52.174L360.4,52.174L360.8,52.174L361.2,52.174L361.6,52.174L362,52.174L362.4,52.174L362.8,52.174L363.2,52.174L363.6,52.174L364,52.174L364.4,52.174L364.8,52.174L365.2,52.174L365.6,52.174L366,52.174L366.4,52.174L366.8,52.174L367.2,52.174L367.6,52.174L368,52.174L368.4,52.174L368.8,52.174L369.2,52.174L369.6,52.174L370,52.174L370.4,52.174L370.8,52.174L371.2,52.174L371.6,52.174L372,52.174L372.4,52.174L372.8,52.174L373.2,52.174L373.6,52.174L374,52.174L374.4,52.174L374.8,52.174L375.2,52.174L375.6,52.174L376,52.174L376.4,52.174L376.8,52.174L377.2,52.174L377.6,52.174L378,52.174L378.4,52.174L378.8,52.174L379.2,52.174L379.6,52.174L380,52.174L380.4,52.174L380.8,52.174L381.2,52.174L381.6,52.174L382,52.174L382.4,52.174L382.8,52.174L383.2,52.174L383.6,52.174L384,52.174L384.4,52.174L384.8,52.174L385.2,39.13L385.6,39.13L386,39.13L386.4,39.13L386.8,39.13L387.2,39.13L387.6,39.13L388,39.13L388.4,39.13L388.8,39.13L389.2,39.13L389.6,39.13L390,39.13L390.4,26.087L390.8,26.087L391.2,26.087L391.6,26.087L392,26.087L392.4,26.087L392.8,26.087L393.2,26.087L393.6,26.087L394,26.087L394.4,26.087L394.8,26.087L395.2,26.087L395.6,26.087L396,26.087L396.4,26.087L396.8,26.087L397.2,26.087L397.6,26.087L398,26.087L398.4,26.087L398.8,26.087L399.2,26.087L399.6,26.087L400,13.043" stroke="#4c78a8" stroke-width="2"/></g></g><path class="foreground" aria-hidden="true" d="" display="none"/></g><g transform="translate(0,0)"><path class="background" aria-hidden="true" d="M0,0h400v300h-400Z"/><g><g class="mark-line role-mark marks" role="graphics-object" aria-roledescription="line mark container"><path aria-label="Episode: 1; Reward: 0.0434782608696; Reset: 100" role="graphics-symbol" aria-roledescription="line mark" d="M0.4,286.957L0.8,286.957L1.2,286.957L1.6,286.957L2,286.957L2.4,286.957L2.8,286.957L3.2,286.957L3.6,286.957L4,286.957L4.4,286.957L4.8,286.957L5.2,286.957L5.6,286.957L6,286.957L6.4,286.957L6.8,286.957L7.2,286.957L7.6,286.957L8,286.957L8.4,273.913L8.8,247.826L9.2,221.739L9.6,234.783L10,234.783L10.4,221.739L10.8,221.739L11.2,208.696L11.6,208.696L12,208.696L12.4,208.696L12.8,208.696L13.2,208.696L13.6,195.652L14,182.609L14.4,143.478L14.8,143.478L15.2,143.478L15.6,143.478L16,117.391L16.4,117.391L16.8,130.435L17.2,104.348L17.6,104.348L18,104.348L18.4,78.261L18.8,78.261L19.2,52.174L19.6,65.217L20,91.304L20.4,91.304L20.8,78.261L21.2,78.261L21.6,52.174L22,52.174L22.4,39.13L22.8,39.13L23.2,39.13L23.6,39.13L24,26.087L24.4,26.087L24.8,26.087L25.2,26.087L25.6,26.087L26,26.087L26.4,13.043L26.8,13.043L27.2,0L27.6,0L28,0L28.4,0L28.8,0L29.2,0L29.6,0L30,0L30.4,0L30.8,0L31.2,0L31.6,0L32,0L32.4,0L32.8,0L33.2,0L33.6,0L34,0L34.4,0L34.8,0L35.2,0L35.6,0L36,0L36.4,0L36.8,0L37.2,0L37.6,0L38,0L38.4,0L38.8,0L39.2,0L39.6,0L40,273.913L40.4,273.913L40.8,247.826L41.2,234.783L41.6,247.826L42,260.87L42.4,247.826L42.8,247.826L43.2,234.783L43.6,234.783L44,234.783L44.4,234.783L44.8,221.739L45.2,234.783L45.6,234.783L46,234.783L46.4,234.783L46.8,221.739L47.2,208.696L47.6,208.696L48,195.652L48.4,195.652L48.8,182.609L49.2,156.522L49.6,143.478L50,130.435L50.4,130.435L50.8,130.435L51.2,130.435L51.6,130.435L52,130.435L52.4,117.391L52.8,104.348L53.2,104.348L53.6,91.304L54,91.304L54.4,78.261L54.8,78.261L55.2,78.261L55.6,65.217L56,39.13L56.4,39.13L56.8,39.13L57.2,39.13L57.6,39.13L58,39.13L58.4,39.13L58.8,39.13L59.2,26.087L59.6,26.087L60,13.043L60.4,13.043L60.8,13.043L61.2,13.043L61.6,13.043L62,13.043L62.4,13.043L62.8,13.043L63.2,13.043L63.6,13.043L64,13.043L64.4,13.043L64.8,13.043L65.2,13.043L65.6,13.043L66,13.043L66.4,13.043L66.8,13.043L67.2,0L67.6,0L68,0L68.4,0L68.8,0L69.2,0L69.6,0L70,0L70.4,0L70.8,0L71.2,0L71.6,0L72,0L72.4,0L72.8,0L73.2,0L73.6,0L74,0L74.4,0L74.8,0L75.2,0L75.6,0L76,0L76.4,0L76.8,0L77.2,0L77.6,0L78,0L78.4,0L78.8,0L79.2,0L79.6,0L80,286.957L80.4,273.913L80.8,300L81.2,300L81.6,300L82,300L82.4,300L82.8,300L83.2,300L83.6,300L84,300L84.4,300L84.8,300L85.2,300L85.6,300L86,300L86.4,300L86.8,300L87.2,300L87.6,300L88,300L88.4,300L88.8,300L89.2,300L89.6,300L90,300L90.4,300L90.8,300L91.2,286.957L91.6,286.957L92,286.957L92.4,286.957L92.8,286.957L93.2,286.957L93.6,286.957L94,286.957L94.4,286.957L94.8,286.957L95.2,286.957L95.6,286.957L96,286.957L96.4,286.957L96.8,273.913L97.2,273.913L97.6,273.913L98,273.913L98.4,273.913L98.8,273.913L99.2,273.913L99.6,273.913L100,286.957L100.4,286.957L100.8,286.957L101.2,286.957L101.6,286.957L102,286.957L102.4,286.957L102.8,286.957L103.2,286.957L103.6,300L104,300L104.4,300L104.8,300L105.2,300L105.6,300L106,300L106.4,300L106.8,300L107.2,300L107.6,300L108,300L108.4,300L108.8,300L109.2,300L109.6,300L110,300L110.4,300L110.8,300L111.2,300L111.6,300L112,300L112.4,300L112.8,300L113.2,300L113.6,300L114,300L114.4,300L114.8,300L115.2,300L115.6,300L116,300L116.4,300L116.8,300L117.2,300L117.6,300L118,300L118.4,300L118.8,300L119.2,300L119.6,300L120,300L120.4,300L120.8,300L121.2,300L121.6,300L122,300L122.4,300L122.8,300L123.2,300L123.6,300L124,300L124.4,286.957L124.8,286.957L125.2,286.957L125.6,286.957L126,286.957L126.4,286.957L126.8,286.957L127.2,286.957L127.6,286.957L128,286.957L128.4,286.957L128.8,286.957L129.2,286.957L129.6,286.957L130,286.957L130.4,273.913L130.8,273.913L131.2,260.87L131.6,260.87L132,260.87L132.4,260.87L132.8,260.87L133.2,247.826L133.6,247.826L134,247.826L134.4,260.87L134.8,247.826L135.2,247.826L135.6,234.783L136,260.87L136.4,247.826L136.8,247.826L137.2,247.826L137.6,260.87L138,273.913L138.4,260.87L138.8,260.87L139.2,260.87L139.6,260.87L140,260.87L140.4,260.87L140.8,260.87L141.2,260.87L141.6,260.87L142,247.826L142.4,247.826L142.8,247.826L143.2,273.913L143.6,273.913L144,273.913L144.4,273.913L144.8,273.913L145.2,273.913L145.6,273.913L146,273.913L146.4,286.957L146.8,286.957L147.2,286.957L147.6,286.957L148,286.957L148.4,286.957L148.8,300L149.2,300L149.6,300L150,300L150.4,300L150.8,300L151.2,300L151.6,300L152,300L152.4,286.957L152.8,286.957L153.2,286.957L153.6,286.957L154,286.957L154.4,286.957L154.8,286.957L155.2,286.957L155.6,286.957L156,286.957L156.4,286.957L156.8,286.957L157.2,273.913L157.6,273.913L158,286.957L158.4,286.957L158.8,286.957L159.2,286.957L159.6,286.957L160,286.957L160.4,286.957L160.8,273.913L161.2,273.913L161.6,273.913L162,273.913L162.4,273.913L162.8,273.913L163.2,273.913L163.6,273.913L164,273.913L164.4,260.87L164.8,260.87L165.2,260.87L165.6,247.826L166,234.783L166.4,234.783L166.8,234.783L167.2,234.783L167.6,234.783L168,234.783L168.4,234.783L168.8,234.783L169.2,234.783L169.6,221.739L170,195.652L170.4,195.652L170.8,195.652L171.2,195.652L171.6,195.652L172,195.652L172.4,195.652L172.8,195.652L173.2,182.609L173.6,182.609L174,182.609L174.4,169.565L174.8,169.565L175.2,143.478L175.6,143.478L176,143.478L176.4,130.435L176.8,130.435L177.2,117.391L177.6,130.435L178,130.435L178.4,117.391L178.8,130.435L179.2,117.391L179.6,104.348L180,117.391L180.4,117.391L180.8,117.391L181.2,117.391L181.6,117.391L182,117.391L182.4,91.304L182.8,91.304L183.2,117.391L183.6,130.435L184,130.435L184.4,143.478L184.8,156.522L185.2,156.522L185.6,156.522L186,156.522L186.4,156.522L186.8,156.522L187.2,156.522L187.6,156.522L188,182.609L188.4,182.609L188.8,182.609L189.2,169.565L189.6,169.565L190,169.565L190.4,169.565L190.8,169.565L191.2,169.565L191.6,169.565L192,169.565L192.4,169.565L192.8,169.565L193.2,182.609L193.6,182.609L194,182.609L194.4,182.609L194.8,195.652L195.2,195.652L195.6,195.652L196,182.609L196.4,195.652L196.8,195.652L197.2,195.652L197.6,208.696L198,208.696L198.4,208.696L198.8,208.696L199.2,208.696L199.6,208.696L200,300L200.4,300L200.8,286.957L201.2,286.957L201.6,286.957L202,286.957L202.4,286.957L202.8,286.957L203.2,286.957L203.6,273.913L204,260.87L204.4,260.87L204.8,221.739L205.2,208.696L205.6,208.696L206,208.696L206.4,208.696L206.8,195.652L207.2,195.652L207.6,169.565L208,156.522L208.4,156.522L208.8,156.522L209.2,156.522L209.6,156.522L210,143.478L210.4,130.435L210.8,117.391L211.2,104.348L211.6,91.304L212,78.261L212.4,65.217L212.8,65.217L213.2,65.217L213.6,65.217L214,52.174L214.4,52.174L214.8,52.174L215.2,65.217L215.6,65.217L216,65.217L216.4,65.217L216.8,65.217L217.2,65.217L217.6,65.217L218,65.217L218.4,65.217L218.8,65.217L219.2,65.217L219.6,65.217L220,65.217L220.4,65.217L220.8,65.217L221.2,65.217L221.6,65.217L222,65.217L222.4,65.217L222.8,52.174L223.2,52.174L223.6,52.174L224,52.174L224.4,52.174L224.8,65.217L225.2,39.13L225.6,39.13L226,39.13L226.4,26.087L226.8,26.087L227.2,26.087L227.6,26.087L228,26.087L228.4,13.043L228.8,13.043L229.2,13.043L229.6,13.043L230,13.043L230.4,13.043L230.8,13.043L231.2,13.043L231.6,13.043L232,13.043L232.4,13.043L232.8,13.043L233.2,26.087L233.6,26.087L234,26.087L234.4,26.087L234.8,26.087L235.2,26.087L235.6,26.087L236,26.087L236.4,26.087L236.8,26.087L237.2,26.087L237.6,26.087L238,26.087L238.4,26.087L238.8,26.087L239.2,26.087L239.6,39.13L240,300L240.4,300L240.8,300L241.2,300L241.6,300L242,300L242.4,273.913L242.8,273.913L243.2,234.783L243.6,221.739L244,195.652L244.4,195.652L244.8,169.565L245.2,156.522L245.6,143.478L246,117.391L246.4,104.348L246.8,52.174L247.2,52.174L247.6,52.174L248,26.087L248.4,26.087L248.8,13.043L249.2,13.043L249.6,13.043L250,13.043L250.4,13.043L250.8,13.043L251.2,13.043L251.6,13.043L252,13.043L252.4,13.043L252.8,13.043L253.2,13.043L253.6,13.043L254,0L254.4,0L254.8,0L255.2,0L255.6,0L256,0L256.4,0L256.8,0L257.2,0L257.6,0L258,0L258.4,0L258.8,0L259.2,0L259.6,0L260,0L260.4,0L260.8,0L261.2,0L261.6,0L262,0L262.4,0L262.8,0L263.2,0L263.6,0L264,0L264.4,0L264.8,0L265.2,0L265.6,0L266,0L266.4,0L266.8,0L267.2,0L267.6,0L268,0L268.4,0L268.8,0L269.2,0L269.6,0L270,0L270.4,0L270.8,0L271.2,0L271.6,0L272,0L272.4,0L272.8,0L273.2,0L273.6,0L274,0L274.4,0L274.8,0L275.2,0L275.6,0L276,0L276.4,0L276.8,0L277.2,0L277.6,0L278,0L278.4,0L278.8,0L279.2,0L279.6,0L280,273.913L280.4,273.913L280.8,260.87L281.2,260.87L281.6,260.87L282,247.826L282.4,234.783L282.8,234.783L283.2,234.783L283.6,208.696L284,208.696L284.4,195.652L284.8,195.652L285.2,182.609L285.6,156.522L286,143.478L286.4,143.478L286.8,130.435L287.2,117.391L287.6,104.348L288,104.348L288.4,91.304L288.8,91.304L289.2,78.261L289.6,78.261L290,52.174L290.4,52.174L290.8,39.13L291.2,39.13L291.6,26.087L292,26.087L292.4,26.087L292.8,26.087L293.2,13.043L293.6,13.043L294,13.043L294.4,13.043L294.8,13.043L295.2,13.043L295.6,13.043L296,13.043L296.4,13.043L296.8,13.043L297.2,13.043L297.6,13.043L298,13.043L298.4,13.043L298.8,13.043L299.2,0L299.6,0L300,0L300.4,0L300.8,0L301.2,0L301.6,0L302,0L302.4,0L302.8,0L303.2,0L303.6,0L304,0L304.4,0L304.8,0L305.2,0L305.6,0L306,0L306.4,0L306.8,0L307.2,0L307.6,0L308,0L308.4,0L308.8,0L309.2,0L309.6,0L310,0L310.4,0L310.8,0L311.2,0L311.6,0L312,0L312.4,0L312.8,0L313.2,0L313.6,0L314,0L314.4,0L314.8,0L315.2,0L315.6,0L316,0L316.4,0L316.8,0L317.2,0L317.6,0L318,0L318.4,0L318.8,0L319.2,0L319.6,0L320,286.957L320.4,286.957L320.8,273.913L321.2,260.87L321.6,247.826L322,208.696L322.4,208.696L322.8,208.696L323.2,169.565L323.6,169.565L324,156.522L324.4,143.478L324.8,143.478L325.2,130.435L325.6,130.435L326,117.391L326.4,91.304L326.8,91.304L327.2,78.261L327.6,78.261L328,65.217L328.4,65.217L328.8,65.217L329.2,65.217L329.6,65.217L330,65.217L330.4,65.217L330.8,65.217L331.2,65.217L331.6,65.217L332,52.174L332.4,39.13L332.8,39.13L333.2,39.13L333.6,39.13L334,39.13L334.4,39.13L334.8,26.087L335.2,26.087L335.6,26.087L336,26.087L336.4,26.087L336.8,26.087L337.2,26.087L337.6,26.087L338,26.087L338.4,26.087L338.8,13.043L339.2,0L339.6,0L340,0L340.4,0L340.8,0L341.2,0L341.6,0L342,0L342.4,0L342.8,0L343.2,0L343.6,0L344,0L344.4,0L344.8,0L345.2,0L345.6,0L346,0L346.4,0L346.8,0L347.2,0L347.6,0L348,0L348.4,0L348.8,0L349.2,0L349.6,0L350,0L350.4,0L350.8,0L351.2,0L351.6,0L352,0L352.4,0L352.8,0L353.2,0L353.6,0L354,0L354.4,0L354.8,0L355.2,0L355.6,0L356,0L356.4,0L356.8,0L357.2,0L357.6,0L358,0L358.4,0L358.8,0L359.2,0L359.6,0L360,286.957L360.4,286.957L360.8,273.913L361.2,247.826L361.6,247.826L362,221.739L362.4,195.652L362.8,195.652L363.2,182.609L363.6,156.522L364,143.478L364.4,143.478L364.8,117.391L365.2,117.391L365.6,117.391L366,117.391L366.4,104.348L366.8,91.304L367.2,91.304L367.6,91.304L368,91.304L368.4,91.304L368.8,91.304L369.2,78.261L369.6,78.261L370,65.217L370.4,65.217L370.8,65.217L371.2,65.217L371.6,65.217L372,52.174L372.4,52.174L372.8,52.174L373.2,52.174L373.6,39.13L374,26.087L374.4,26.087L374.8,26.087L375.2,26.087L375.6,26.087L376,13.043L376.4,13.043L376.8,13.043L377.2,13.043L377.6,13.043L378,13.043L378.4,0L378.8,0L379.2,0L379.6,0L380,0L380.4,0L380.8,0L381.2,0L381.6,0L382,0L382.4,0L382.8,0L383.2,0L383.6,0L384,0L384.4,0L384.8,0L385.2,0L385.6,0L386,0L386.4,0L386.8,0L387.2,0L387.6,0L388,0L388.4,0L388.8,0L389.2,0L389.6,0L390,0L390.4,0L390.8,0L391.2,0L391.6,0L392,0L392.4,0L392.8,0L393.2,0L393.6,0L394,0L394.4,0L394.8,0L395.2,0L395.6,0L396,0L396.4,0L396.8,0L397.2,0L397.6,0L398,0L398.4,0L398.8,0L399.2,0L399.6,0L400,286.957" stroke="#f58518" stroke-width="2"/></g></g><path class="foreground" aria-hidden="true" d="" display="none"/></g></g><g class="mark-group role-legend" role="graphics-symbol" aria-roledescription="legend" aria-label="Symbol legend titled 'Reset' for stroke color with 2 values: 0, 100"><g transform="translate(420,0)"><path class="background" aria-hidden="true" d="M0,0h48v63h-48Z" pointer-events="none"/><g><g class="mark-group role-legend-entry"><g transform="translate(0,21)"><path class="background" aria-hidden="true" d="M0,0h0v0h0Z" pointer-events="none"/><g><g class="mark-group role-scope" role="graphics-object" aria-roledescription="group mark container"><g transform="translate(0,0)"><path class="background" aria-hidden="true" d="M0,0h47.3583984375v20h-47.3583984375Z" pointer-events="none" opacity="1"/><g><g class="mark-symbol role-legend-symbol" pointer-events="none"><path transform="translate(10,10)" d="M-5,0L5,0" stroke="#4c78a8" stroke-width="10" opacity="1"/></g><g class="mark-text role-legend-label" pointer-events="none"><text text-anchor="start" transform="translate(24,14)" font-family="sans-serif" font-size="14px" fill="#000" opacity="1">0</text></g></g><path class="foreground" aria-hidden="true" d="" pointer-events="none" display="none"/></g><g transform="translate(0,22)"><path class="background" aria-hidden="true" d="M0,0h47.3583984375v20h-47.3583984375Z" pointer-events="none" opacity="1"/><g><g class="mark-symbol role-legend-symbol" pointer-events="none"><path transform="translate(10,10)" d="M-5,0L5,0" stroke="#f58518" stroke-width="10" opacity="1"/></g><g class="mark-text role-legend-label" pointer-events="none"><text text-anchor="start" transform="translate(24,14)" font-family="sans-serif" font-size="14px" fill="#000" opacity="1">100</text></g></g><path class="foreground" aria-hidden="true" d="" pointer-events="none" display="none"/></g></g></g><path class="foreground" aria-hidden="true" d="" pointer-events="none" display="none"/></g></g><g class="mark-text role-legend-title" pointer-events="none"><text text-anchor="start" transform="translate(0,13)" font-family="sans-serif" font-size="16px" font-weight="bold" fill="#000" opacity="1">Reset</text></g></g><path class="foreground" aria-hidden="true" d="" pointer-events="none" display="none"/></g></g><g class="mark-group role-title"><g transform="translate(200,-29)"><path class="background" aria-hidden="true" d="M0,0h0v0h0Z" pointer-events="none"/><g><g class="mark-text role-title-text" role="graphics-symbol" aria-roledescription="title" aria-label="Title text 'Reward Overtime (LR=1e-05)'" pointer-events="none"><text text-anchor="middle" transform="translate(0,14)" font-family="sans-serif" font-size="18px" font-weight="bold" fill="#000" opacity="1">Reward Overtime (LR=1e-05)</text></g></g><path class="foreground" aria-hidden="true" d="" pointer-events="none" display="none"/></g></g></g><path class="foreground" aria-hidden="true" d="" display="none"/></g></g></g></svg>