<svg xmlns="http://www.w3.org/2000/svg" xmlns:xlink="http://www.w3.org/1999/xlink" version="1.1" class="marks" width="525" height="380" viewBox="0 0 525 380"><rect width="525" height="380" fill="white"/><g fill="none" stroke-miterlimit="10" transform="translate(52,34)"><g class="mark-group role-frame root" role="graphics-object" aria-roledescription="group mark container"><g transform="translate(0,0)"><path class="background" aria-hidden="true" d="M0.5,0.5h400v300h-400Z" stroke="#ddd"/><g><g class="mark-group role-axis" aria-hidden="true"><g transform="translate(0.5,300.5)"><path class="background" aria-hidden="true" d="M0,0h0v0h0Z" pointer-events="none"/><g><g class="mark-rule role-axis-grid" pointer-events="none"><line transform="translate(0,-300)" x2="0" y2="300" stroke="#ddd" stroke-width="1" opacity="1"/><line transform="translate(40,-300)" x2="0" y2="300" stroke="#ddd" stroke-width="1" opacity="1"/><line transform="translate(80,-300)" x2="0" y2="300" stroke="#ddd" stroke-width="1" opacity="1"/><line transform="translate(120,-300)" x2="0" y2="300" stroke="#ddd" stroke-width="1" opacity="1"/><line transform="translate(160,-300)" x2="0" y2="300" stroke="#ddd" stroke-width="1" opacity="1"/><line transform="translate(200,-300)" x2="0" y2="300" stroke="#ddd" stroke-width="1" opacity="1"/><line transform="translate(240,-300)" x2="0" y2="300" stroke="#ddd" stroke-width="1" opacity="1"/><line transform="translate(280,-300)" x2="0" y2="300" stroke="#ddd" stroke-width="1" opacity="1"/><line transform="translate(320,-300)" x2="0" y2="300" stroke="#ddd" stroke-width="1" opacity="1"/><line transform="translate(360,-300)" x2="0" y2="300" stroke="#ddd" stroke-width="1" opacity="1"/><line transform="translate(400,-300)" x2="0" y2="300" stroke="#ddd" stroke-width="1" opacity="1"/></g></g><path class="foreground" aria-hidden="true" d="" pointer-events="none" display="none"/></g></g><g class="mark-group role-axis" aria-hidden="true"><g transform="translate(0.5,0.5)"><path class="background" aria-hidden="true" d="M0,0h0v0h0Z" pointer-events="none"/><g><g class="mark-rule role-axis-grid" pointer-events="none"><line transform="translate(0,300)" x2="400" y2="0" stroke="#ddd" stroke-width="1" opacity="1"/><line transform="translate(0,270)" x2="400" y2="0" stroke="#ddd" stroke-width="1" opacity="1"/><line transform="translate(0,240)" x2="400" y2="0" stroke="#ddd" stroke-width="1" opacity="1"/><line transform="translate(0,210)" x2="400" y2="0" stroke="#ddd" stroke-width="1" opacity="1"/><line transform="translate(0,180)" x2="400" y2="0" stroke="#ddd" stroke-width="1" opacity="1"/><line transform="translate(0,150)" x2="400" y2="0" stroke="#ddd" stroke-width="1" opacity="1"/><line transform="translate(0,120)" x2="400" y2="0" stroke="#ddd" stroke-width="1" opacity="1"/><line transform="translate(0,90)" x2="400" y2="0" stroke="#ddd" stroke-width="1" opacity="1"/><line transform="translate(0,60)" x2="400" y2="0" stroke="#ddd" stroke-width="1" opacity="1"/><line transform="translate(0,30)" x2="400" y2="0" stroke="#ddd" stroke-width="1" opacity="1"/><line transform="translate(0,0)" x2="400" y2="0" stroke="#ddd" stroke-width="1" opacity="1"/></g></g><path class="foreground" aria-hidden="true" d="" pointer-events="none" display="none"/></g></g><g class="mark-group role-axis" role="graphics-symbol" aria-roledescription="axis" aria-label="X-axis titled 'Episode' for a linear scale with values from 0 to 1,000"><g transform="translate(0.5,300.5)"><path class="background" aria-hidden="true" d="M0,0h0v0h0Z" pointer-events="none"/><g><g class="mark-rule role-axis-tick" pointer-events="none"><line transform="translate(0,0)" x2="0" y2="5" stroke="#888" stroke-width="1" opacity="1"/><line transform="translate(40,0)" x2="0" y2="5" stroke="#888" stroke-width="1" opacity="1"/><line transform="translate(80,0)" x2="0" y2="5" stroke="#888" stroke-width="1" opacity="1"/><line transform="translate(120,0)" x2="0" y2="5" stroke="#888" stroke-width="1" opacity="1"/><line transform="translate(160,0)" x2="0" y2="5" stroke="#888" stroke-width="1" opacity="1"/><line transform="translate(200,0)" x2="0" y2="5" stroke="#888" stroke-width="1" opacity="1"/><line transform="translate(240,0)" x2="0" y2="5" stroke="#888" stroke-width="1" opacity="1"/><line transform="translate(280,0)" x2="0" y2="5" stroke="#888" stroke-width="1" opacity="1"/><line transform="translate(320,0)" x2="0" y2="5" stroke="#888" stroke-width="1" opacity="1"/><line transform="translate(360,0)" x2="0" y2="5" stroke="#888" stroke-width="1" opacity="1"/><line transform="translate(400,0)" x2="0" y2="5" stroke="#888" stroke-width="1" opacity="1"/></g><g class="mark-text role-axis-label" pointer-events="none"><text text-anchor="start" transform="translate(0,18)" font-family="sans-serif" font-size="14px" fill="#000" opacity="1">0</text><text text-anchor="middle" transform="translate(40,18)" font-family="sans-serif" font-size="14px" fill="#000" opacity="0">100</text><text text-anchor="middle" transform="translate(80,18)" font-family="sans-serif" font-size="14px" fill="#000" opacity="1">200</text><text text-anchor="middle" transform="translate(120,18)" font-family="sans-serif" font-size="14px" fill="#000" opacity="0">300</text><text text-anchor="middle" transform="translate(160,18)" font-family="sans-serif" font-size="14px" fill="#000" opacity="1">400</text><text text-anchor="middle" transform="translate(200,18)" font-family="sans-serif" font-size="14px" fill="#000" opacity="0">500</text><text text-anchor="middle" transform="translate(240,18)" font-family="sans-serif" font-size="14px" fill="#000" opacity="1">600</text><text text-anchor="middle" transform="translate(280,18)" font-family="sans-serif" font-size="14px" fill="#000" opacity="0">700</text><text text-anchor="middle" transform="translate(320,18)" font-family="sans-serif" font-size="14px" fill="#000" opacity="1">800</text><text text-anchor="middle" transform="translate(360,18)" font-family="sans-serif" font-size="14px" fill="#000" opacity="0">900</text><text text-anchor="end" transform="translate(400,18)" font-family="sans-serif" font-size="14px" fill="#000" opacity="1">1,000</text></g><g class="mark-rule role-axis-domain" pointer-events="none"><line transform="translate(0,0)" x2="400" y2="0" stroke="#888" stroke-width="1" opacity="1"/></g><g class="mark-text role-axis-title" pointer-events="none"><text text-anchor="middle" transform="translate(200,38)" font-family="sans-serif" font-size="16px" font-weight="bold" fill="#000" opacity="1">Episode</text></g></g><path class="foreground" aria-hidden="true" d="" pointer-events="none" display="none"/></g></g><g class="mark-group role-axis" role="graphics-symbol" aria-roledescription="axis" aria-label="Y-axis titled 'Reward' for a linear scale with values from 0.0 to 1.0"><g transform="translate(0.5,0.5)"><path class="background" aria-hidden="true" d="M0,0h0v0h0Z" pointer-events="none"/><g><g class="mark-rule role-axis-tick" pointer-events="none"><line transform="translate(0,300)" x2="-5" y2="0" stroke="#888" stroke-width="1" opacity="1"/><line transform="translate(0,270)" x2="-5" y2="0" stroke="#888" stroke-width="1" opacity="1"/><line transform="translate(0,240)" x2="-5" y2="0" stroke="#888" stroke-width="1" opacity="1"/><line transform="translate(0,210)" x2="-5" y2="0" stroke="#888" stroke-width="1" opacity="1"/><line transform="translate(0,180)" x2="-5" y2="0" stroke="#888" stroke-width="1" opacity="1"/><line transform="translate(0,150)" x2="-5" y2="0" stroke="#888" stroke-width="1" opacity="1"/><line transform="translate(0,120)" x2="-5" y2="0" stroke="#888" stroke-width="1" opacity="1"/><line transform="translate(0,90)" x2="-5" y2="0" stroke="#888" stroke-width="1" opacity="1"/><line transform="translate(0,60)" x2="-5" y2="0" stroke="#888" stroke-width="1" opacity="1"/><line transform="translate(0,30)" x2="-5" y2="0" stroke="#888" stroke-width="1" opacity="1"/><line transform="translate(0,0)" x2="-5" y2="0" stroke="#888" stroke-width="1" opacity="1"/></g><g class="mark-text role-axis-label" pointer-events="none"><text text-anchor="end" transform="translate(-7,304)" font-family="sans-serif" font-size="14px" fill="#000" opacity="1">0.0</text><text text-anchor="end" transform="translate(-7,274)" font-family="sans-serif" font-size="14px" fill="#000" opacity="1">0.1</text><text text-anchor="end" transform="translate(-7,244)" font-family="sans-serif" font-size="14px" fill="#000" opacity="1">0.2</text><text text-anchor="end" transform="translate(-7,214)" font-family="sans-serif" font-size="14px" fill="#000" opacity="1">0.3</text><text text-anchor="end" transform="translate(-7,184)" font-family="sans-serif" font-size="14px" fill="#000" opacity="1">0.4</text><text text-anchor="end" transform="translate(-7,154)" font-family="sans-serif" font-size="14px" fill="#000" opacity="1">0.5</text><text text-anchor="end" transform="translate(-7,124)" font-family="sans-serif" font-size="14px" fill="#000" opacity="1">0.6</text><text text-anchor="end" transform="translate(-7,94.00000000000001)" font-family="sans-serif" font-size="14px" fill="#000" opacity="1">0.7</text><text text-anchor="end" transform="translate(-7,63.999999999999986)" font-family="sans-serif" font-size="14px" fill="#000" opacity="1">0.8</text><text text-anchor="end" transform="translate(-7,33.99999999999999)" font-family="sans-serif" font-size="14px" fill="#000" opacity="1">0.9</text><text text-anchor="end" transform="translate(-7,4)" font-family="sans-serif" font-size="14px" fill="#000" opacity="1">1.0</text></g><g class="mark-rule role-axis-domain" pointer-events="none"><line transform="translate(0,300)" x2="0" y2="-300" stroke="#888" stroke-width="1" opacity="1"/></g><g class="mark-text role-axis-title" pointer-events="none"><text text-anchor="middle" transform="translate(-30.4619140625,150) rotate(-90) translate(0,-3)" font-family="sans-serif" font-size="16px" font-weight="bold" fill="#000" opacity="1">Reward</text></g></g><path class="foreground" aria-hidden="true" d="" pointer-events="none" display="none"/></g></g><g class="mark-group role-scope pathgroup" role="graphics-object" aria-roledescription="group mark container"><g transform="translate(0,0)"><path class="background" aria-hidden="true" d="M0,0h400v300h-400Z"/><g><g class="mark-line role-mark marks" role="graphics-object" aria-roledescription="line mark container"><path aria-label="Episode: 1; Reward: 0; Reset: 0" role="graphics-symbol" aria-roledescription="line mark" d="M0.4,300L0.8,300L1.2,300L1.6,300L2,300L2.4,300L2.8,300L3.2,300L3.6,300L4,300L4.4,300L4.8,300L5.2,300L5.6,300L6,300L6.4,300L6.8,300L7.2,300L7.6,286.957L8,286.957L8.4,260.87L8.8,273.913L9.2,234.783L9.6,208.696L10,182.609L10.4,117.391L10.8,78.261L11.2,65.217L11.6,39.13L12,39.13L12.4,39.13L12.8,13.043L13.2,13.043L13.6,0L14,0L14.4,0L14.8,0L15.2,0L15.6,0L16,0L16.4,0L16.8,0L17.2,0L17.6,0L18,0L18.4,0L18.8,0L19.2,0L19.6,0L20,0L20.4,0L20.8,0L21.2,0L21.6,0L22,0L22.4,0L22.8,0L23.2,0L23.6,0L24,0L24.4,0L24.8,0L25.2,0L25.6,0L26,0L26.4,0L26.8,0L27.2,0L27.6,0L28,0L28.4,0L28.8,0L29.2,0L29.6,0L30,0L30.4,0L30.8,0L31.2,0L31.6,0L32,0L32.4,0L32.8,0L33.2,0L33.6,0L34,0L34.4,0L34.8,0L35.2,0L35.6,0L36,0L36.4,0L36.8,0L37.2,0L37.6,0L38,0L38.4,0L38.8,0L39.2,0L39.6,0L40,0L40.4,0L40.8,0L41.2,0L41.6,0L42,0L42.4,0L42.8,0L43.2,0L43.6,0L44,0L44.4,0L44.8,0L45.2,0L45.6,0L46,0L46.4,0L46.8,0L47.2,0L47.6,0L48,0L48.4,0L48.8,0L49.2,0L49.6,0L50,0L50.4,0L50.8,0L51.2,0L51.6,0L52,0L52.4,0L52.8,0L53.2,0L53.6,0L54,0L54.4,0L54.8,0L55.2,0L55.6,0L56,0L56.4,0L56.8,0L57.2,0L57.6,0L58,0L58.4,0L58.8,0L59.2,0L59.6,0L60,0L60.4,0L60.8,0L61.2,0L61.6,0L62,0L62.4,0L62.8,0L63.2,0L63.6,0L64,0L64.4,0L64.8,0L65.2,0L65.6,0L66,0L66.4,0L66.8,0L67.2,0L67.6,0L68,0L68.4,0L68.8,0L69.2,0L69.6,0L70,0L70.4,0L70.8,0L71.2,0L71.6,0L72,0L72.4,0L72.8,0L73.2,0L73.6,0L74,0L74.4,0L74.8,0L75.2,0L75.6,0L76,0L76.4,0L76.8,0L77.2,0L77.6,0L78,0L78.4,0L78.8,0L79.2,0L79.6,0L80,0L80.4,0L80.8,300L81.2,300L81.6,300L82,300L82.4,300L82.8,300L83.2,300L83.6,300L84,300L84.4,300L84.8,300L85.2,300L85.6,300L86,300L86.4,300L86.8,300L87.2,300L87.6,300L88,300L88.4,300L88.8,300L89.2,300L89.6,300L90,300L90.4,300L90.8,300L91.2,300L91.6,300L92,300L92.4,300L92.8,300L93.2,300L93.6,300L94,300L94.4,300L94.8,300L95.2,300L95.6,300L96,300L96.4,300L96.8,300L97.2,300L97.6,300L98,300L98.4,300L98.8,300L99.2,300L99.6,300L100,300L100.4,300L100.8,300L101.2,300L101.6,300L102,300L102.4,300L102.8,300L103.2,300L103.6,300L104,300L104.4,300L104.8,300L105.2,300L105.6,300L106,300L106.4,300L106.8,300L107.2,300L107.6,300L108,300L108.4,300L108.8,300L109.2,300L109.6,300L110,300L110.4,300L110.8,300L111.2,300L111.6,300L112,300L112.4,300L112.8,300L113.2,300L113.6,300L114,300L114.4,300L114.8,300L115.2,300L115.6,300L116,300L116.4,300L116.8,300L117.2,300L117.6,300L118,300L118.4,300L118.8,300L119.2,300L119.6,300L120,300L120.4,300L120.8,300L121.2,300L121.6,300L122,300L122.4,300L122.8,300L123.2,300L123.6,300L124,300L124.4,300L124.8,300L125.2,300L125.6,300L126,300L126.4,300L126.8,300L127.2,300L127.6,300L128,300L128.4,300L128.8,300L129.2,300L129.6,300L130,300L130.4,300L130.8,300L131.2,300L131.6,300L132,300L132.4,300L132.8,300L133.2,300L133.6,300L134,300L134.4,300L134.8,300L135.2,300L135.6,300L136,300L136.4,300L136.8,300L137.2,300L137.6,300L138,300L138.4,300L138.8,300L139.2,300L139.6,300L140,300L140.4,300L140.8,300L141.2,300L141.6,300L142,300L142.4,300L142.8,300L143.2,300L143.6,300L144,300L144.4,300L144.8,300L145.2,300L145.6,300L146,300L146.4,300L146.8,300L147.2,300L147.6,300L148,300L148.4,300L148.8,300L149.2,300L149.6,300L150,300L150.4,300L150.8,300L151.2,300L151.6,300L152,300L152.4,300L152.8,300L153.2,300L153.6,300L154,300L154.4,300L154.8,300L155.2,300L155.6,300L156,300L156.4,300L156.8,300L157.2,300L157.6,300L158,300L158.4,300L158.8,300L159.2,300L159.6,300L160,300L160.4,300L160.8,300L161.2,300L161.6,300L162,300L162.4,300L162.8,300L163.2,300L163.6,300L164,300L164.4,300L164.8,300L165.2,300L165.6,300L166,286.957L166.4,300L166.8,300L167.2,300L167.6,300L168,286.957L168.4,286.957L168.8,286.957L169.2,286.957L169.6,286.957L170,300L170.4,300L170.8,286.957L171.2,286.957L171.6,300L172,286.957L172.4,286.957L172.8,286.957L173.2,286.957L173.6,286.957L174,286.957L174.4,286.957L174.8,286.957L175.2,286.957L175.6,300L176,300L176.4,286.957L176.8,286.957L177.2,286.957L177.6,286.957L178,286.957L178.4,300L178.8,286.957L179.2,286.957L179.6,286.957L180,286.957L180.4,286.957L180.8,286.957L181.2,286.957L181.6,286.957L182,286.957L182.4,286.957L182.8,286.957L183.2,286.957L183.6,286.957L184,286.957L184.4,286.957L184.8,286.957L185.2,286.957L185.6,286.957L186,286.957L186.4,286.957L186.8,286.957L187.2,286.957L187.6,286.957L188,286.957L188.4,286.957L188.8,286.957L189.2,286.957L189.6,286.957L190,286.957L190.4,286.957L190.8,286.957L191.2,286.957L191.6,286.957L192,286.957L192.4,286.957L192.8,286.957L193.2,286.957L193.6,286.957L194,286.957L194.4,286.957L194.8,286.957L195.2,286.957L195.6,286.957L196,286.957L196.4,286.957L196.8,286.957L197.2,286.957L197.6,286.957L198,286.957L198.4,286.957L198.8,286.957L199.2,286.957L199.6,286.957L200,286.957L200.4,286.957L200.8,286.957L201.2,286.957L201.6,286.957L202,286.957L202.4,286.957L202.8,286.957L203.2,286.957L203.6,286.957L204,286.957L204.4,273.913L204.8,286.957L205.2,273.913L205.6,286.957L206,286.957L206.4,260.87L206.8,260.87L207.2,286.957L207.6,286.957L208,286.957L208.4,273.913L208.8,273.913L209.2,273.913L209.6,273.913L210,286.957L210.4,260.87L210.8,247.826L211.2,260.87L211.6,260.87L212,260.87L212.4,260.87L212.8,260.87L213.2,260.87L213.6,247.826L214,247.826L214.4,247.826L214.8,260.87L215.2,260.87L215.6,247.826L216,234.783L216.4,234.783L216.8,234.783L217.2,234.783L217.6,234.783L218,234.783L218.4,234.783L218.8,234.783L219.2,234.783L219.6,234.783L220,234.783L220.4,234.783L220.8,234.783L221.2,234.783L221.6,234.783L222,234.783L222.4,234.783L222.8,234.783L223.2,234.783L223.6,234.783L224,234.783L224.4,234.783L224.8,234.783L225.2,234.783L225.6,234.783L226,234.783L226.4,234.783L226.8,234.783L227.2,234.783L227.6,234.783L228,234.783L228.4,234.783L228.8,234.783L229.2,234.783L229.6,234.783L230,234.783L230.4,234.783L230.8,234.783L231.2,234.783L231.6,234.783L232,221.739L232.4,234.783L232.8,234.783L233.2,234.783L233.6,234.783L234,234.783L234.4,234.783L234.8,221.739L235.2,234.783L235.6,234.783L236,234.783L236.4,221.739L236.8,221.739L237.2,208.696L237.6,221.739L238,221.739L238.4,221.739L238.8,234.783L239.2,195.652L239.6,195.652L240,195.652L240.4,208.696L240.8,195.652L241.2,208.696L241.6,208.696L242,195.652L242.4,208.696L242.8,221.739L243.2,208.696L243.6,195.652L244,195.652L244.4,195.652L244.8,195.652L245.2,195.652L245.6,195.652L246,182.609L246.4,182.609L246.8,182.609L247.2,195.652L247.6,182.609L248,182.609L248.4,182.609L248.8,182.609L249.2,182.609L249.6,182.609L250,182.609L250.4,182.609L250.8,182.609L251.2,182.609L251.6,182.609L252,169.565L252.4,169.565L252.8,169.565L253.2,169.565L253.6,169.565L254,169.565L254.4,169.565L254.8,169.565L255.2,169.565L255.6,156.522L256,169.565L256.4,156.522L256.8,156.522L257.2,156.522L257.6,169.565L258,156.522L258.4,156.522L258.8,156.522L259.2,156.522L259.6,156.522L260,156.522L260.4,156.522L260.8,156.522L261.2,156.522L261.6,156.522L262,156.522L262.4,156.522L262.8,156.522L263.2,156.522L263.6,156.522L264,156.522L264.4,156.522L264.8,156.522L265.2,156.522L265.6,156.522L266,156.522L266.4,156.522L266.8,156.522L267.2,156.522L267.6,156.522L268,156.522L268.4,156.522L268.8,156.522L269.2,156.522L269.6,156.522L270,156.522L270.4,156.522L270.8,156.522L271.2,156.522L271.6,156.522L272,156.522L272.4,156.522L272.8,156.522L273.2,156.522L273.6,156.522L274,156.522L274.4,156.522L274.8,156.522L275.2,156.522L275.6,156.522L276,156.522L276.4,156.522L276.8,156.522L277.2,156.522L277.6,156.522L278,156.522L278.4,156.522L278.8,156.522L279.2,156.522L279.6,156.522L280,143.478L280.4,143.478L280.8,143.478L281.2,143.478L281.6,117.391L282,130.435L282.4,143.478L282.8,117.391L283.2,117.391L283.6,130.435L284,117.391L284.4,130.435L284.8,104.348L285.2,91.304L285.6,117.391L286,117.391L286.4,91.304L286.8,91.304L287.2,91.304L287.6,91.304L288,91.304L288.4,91.304L288.8,91.304L289.2,91.304L289.6,91.304L290,91.304L290.4,91.304L290.8,91.304L291.2,91.304L291.6,91.304L292,91.304L292.4,91.304L292.8,91.304L293.2,91.304L293.6,91.304L294,91.304L294.4,91.304L294.8,91.304L295.2,91.304L295.6,91.304L296,91.304L296.4,91.304L296.8,91.304L297.2,91.304L297.6,91.304L298,91.304L298.4,91.304L298.8,91.304L299.2,91.304L299.6,91.304L300,91.304L300.4,78.261L300.8,78.261L301.2,78.261L301.6,78.261L302,78.261L302.4,78.261L302.8,78.261L303.2,78.261L303.6,78.261L304,78.261L304.4,78.261L304.8,78.261L305.2,78.261L305.6,78.261L306,78.261L306.4,78.261L306.8,78.261L307.2,78.261L307.6,78.261L308,78.261L308.4,78.261L308.8,78.261L309.2,78.261L309.6,78.261L310,78.261L310.4,78.261L310.8,78.261L311.2,78.261L311.6,78.261L312,78.261L312.4,78.261L312.8,78.261L313.2,78.261L313.6,78.261L314,78.261L314.4,65.217L314.8,78.261L315.2,78.261L315.6,65.217L316,65.217L316.4,65.217L316.8,65.217L317.2,65.217L317.6,65.217L318,65.217L318.4,65.217L318.8,65.217L319.2,52.174L319.6,52.174L320,52.174L320.4,52.174L320.8,52.174L321.2,52.174L321.6,65.217L322,65.217L322.4,65.217L322.8,52.174L323.2,52.174L323.6,52.174L324,52.174L324.4,52.174L324.8,52.174L325.2,52.174L325.6,52.174L326,52.174L326.4,39.13L326.8,52.174L327.2,39.13L327.6,39.13L328,52.174L328.4,52.174L328.8,52.174L329.2,39.13L329.6,39.13L330,39.13L330.4,39.13L330.8,39.13L331.2,39.13L331.6,39.13L332,39.13L332.4,39.13L332.8,26.087L333.2,26.087L333.6,26.087L334,26.087L334.4,26.087L334.8,26.087L335.2,26.087L335.6,26.087L336,26.087L336.4,26.087L336.8,26.087L337.2,26.087L337.6,13.043L338,13.043L338.4,13.043L338.8,13.043L339.2,13.043L339.6,13.043L340,13.043L340.4,13.043L340.8,13.043L341.2,13.043L341.6,13.043L342,0L342.4,0L342.8,0L343.2,0L343.6,0L344,0L344.4,13.043L344.8,13.043L345.2,13.043L345.6,13.043L346,0L346.4,0L346.8,0L347.2,0L347.6,0L348,0L348.4,0L348.8,0L349.2,0L349.6,0L350,0L350.4,0L350.8,0L351.2,0L351.6,0L352,0L352.4,0L352.8,0L353.2,0L353.6,0L354,0L354.4,0L354.8,0L355.2,0L355.6,0L356,0L356.4,0L356.8,0L357.2,0L357.6,0L358,0L358.4,0L358.8,0L359.2,0L359.6,0L360,0L360.4,0L360.8,0L361.2,0L361.6,0L362,0L362.4,0L362.8,0L363.2,0L363.6,0L364,0L364.4,0L364.8,0L365.2,0L365.6,0L366,0L366.4,0L366.8,0L367.2,0L367.6,0L368,0L368.4,0L368.8,0L369.2,0L369.6,0L370,0L370.4,0L370.8,0L371.2,0L371.6,0L372,0L372.4,0L372.8,0L373.2,0L373.6,0L374,0L374.4,0L374.8,0L375.2,0L375.6,0L376,0L376.4,0L376.8,0L377.2,0L377.6,0L378,0L378.4,0L378.8,0L379.2,0L379.6,0L380,0L380.4,0L380.8,0L381.2,0L381.6,0L382,0L382.4,0L382.8,0L383.2,0L383.6,0L384,0L384.4,0L384.8,0L385.2,0L385.6,0L386,0L386.4,0L386.8,0L387.2,0L387.6,0L388,0L388.4,0L388.8,0L389.2,0L389.6,0L390,0L390.4,0L390.8,0L391.2,0L391.6,0L392,0L392.4,0L392.8,0L393.2,0L393.6,0L394,0L394.4,0L394.8,0L395.2,0L395.6,0L396,0L396.4,0L396.8,0L397.2,0L397.6,0L398,0L398.4,0L398.8,0L399.2,0L399.6,0L400,0" stroke="#4c78a8" stroke-width="2"/></g></g><path class="foreground" aria-hidden="true" d="" display="none"/></g><g transform="translate(0,0)"><path class="background" aria-hidden="true" d="M0,0h400v300h-400Z"/><g><g class="mark-line role-mark marks" role="graphics-object" aria-roledescription="line mark container"><path aria-label="Episode: 1; Reward: 0; Reset: 100" role="graphics-symbol" aria-roledescription="line mark" d="M0.4,300L0.8,300L1.2,300L1.6,300L2,300L2.4,300L2.8,300L3.2,300L3.6,300L4,300L4.4,300L4.8,300L5.2,300L5.6,300L6,300L6.4,300L6.8,300L7.2,273.913L7.6,260.87L8,234.783L8.4,208.696L8.8,182.609L9.2,169.565L9.6,156.522L10,143.478L10.4,91.304L10.8,78.261L11.2,65.217L11.6,26.087L12,13.043L12.4,0L12.8,0L13.2,0L13.6,0L14,0L14.4,0L14.8,0L15.2,0L15.6,0L16,0L16.4,0L16.8,0L17.2,0L17.6,0L18,0L18.4,0L18.8,0L19.2,0L19.6,0L20,0L20.4,0L20.8,0L21.2,0L21.6,0L22,0L22.4,0L22.8,0L23.2,0L23.6,0L24,0L24.4,0L24.8,0L25.2,0L25.6,0L26,0L26.4,0L26.8,0L27.2,0L27.6,0L28,0L28.4,0L28.8,0L29.2,0L29.6,0L30,0L30.4,0L30.8,0L31.2,0L31.6,0L32,0L32.4,0L32.8,0L33.2,0L33.6,0L34,0L34.4,0L34.8,0L35.2,0L35.6,0L36,0L36.4,0L36.8,0L37.2,0L37.6,0L38,0L38.4,0L38.8,0L39.2,0L39.6,0L40,195.652L40.4,260.87L40.8,260.87L41.2,247.826L41.6,234.783L42,195.652L42.4,156.522L42.8,117.391L43.2,52.174L43.6,39.13L44,26.087L44.4,0L44.8,0L45.2,0L45.6,0L46,0L46.4,0L46.8,0L47.2,0L47.6,0L48,0L48.4,0L48.8,0L49.2,0L49.6,0L50,0L50.4,0L50.8,0L51.2,0L51.6,0L52,0L52.4,0L52.8,0L53.2,0L53.6,0L54,0L54.4,0L54.8,0L55.2,0L55.6,0L56,0L56.4,0L56.8,0L57.2,0L57.6,0L58,0L58.4,0L58.8,0L59.2,0L59.6,0L60,0L60.4,0L60.8,0L61.2,0L61.6,0L62,0L62.4,0L62.8,0L63.2,0L63.6,0L64,0L64.4,0L64.8,0L65.2,0L65.6,0L66,0L66.4,0L66.8,0L67.2,0L67.6,0L68,0L68.4,0L68.8,0L69.2,0L69.6,0L70,0L70.4,0L70.8,0L71.2,0L71.6,0L72,0L72.4,0L72.8,0L73.2,0L73.6,0L74,0L74.4,0L74.8,0L75.2,0L75.6,0L76,0L76.4,0L76.8,0L77.2,0L77.6,0L78,0L78.4,0L78.8,0L79.2,0L79.6,0L80,208.696L80.4,247.826L80.8,300L81.2,300L81.6,300L82,300L82.4,300L82.8,300L83.2,300L83.6,300L84,300L84.4,300L84.8,300L85.2,300L85.6,300L86,300L86.4,300L86.8,300L87.2,300L87.6,300L88,300L88.4,300L88.8,300L89.2,300L89.6,300L90,300L90.4,300L90.8,300L91.2,300L91.6,300L92,300L92.4,300L92.8,300L93.2,300L93.6,300L94,300L94.4,300L94.8,300L95.2,300L95.6,300L96,300L96.4,300L96.8,300L97.2,300L97.6,300L98,300L98.4,300L98.8,300L99.2,300L99.6,300L100,300L100.4,300L100.8,300L101.2,300L101.6,300L102,300L102.4,300L102.8,300L103.2,300L103.6,300L104,300L104.4,300L104.8,300L105.2,300L105.6,300L106,300L106.4,300L106.8,300L107.2,300L107.6,300L108,300L108.4,300L108.8,300L109.2,300L109.6,300L110,300L110.4,300L110.8,300L111.2,300L111.6,300L112,300L112.4,300L112.8,300L113.2,300L113.6,300L114,300L114.4,300L114.8,300L115.2,300L115.6,300L116,300L116.4,300L116.8,300L117.2,300L117.6,300L118,300L118.4,300L118.8,300L119.2,300L119.6,300L120,300L120.4,300L120.8,300L121.2,300L121.6,300L122,300L122.4,300L122.8,300L123.2,300L123.6,300L124,300L124.4,300L124.8,300L125.2,300L125.6,300L126,300L126.4,300L126.8,300L127.2,300L127.6,300L128,300L128.4,300L128.8,300L129.2,300L129.6,300L130,300L130.4,300L130.8,300L131.2,300L131.6,300L132,300L132.4,300L132.8,300L133.2,300L133.6,300L134,300L134.4,300L134.8,300L135.2,300L135.6,300L136,300L136.4,300L136.8,300L137.2,300L137.6,300L138,300L138.4,300L138.8,300L139.2,300L139.6,300L140,300L140.4,300L140.8,300L141.2,300L141.6,300L142,300L142.4,300L142.8,300L143.2,300L143.6,300L144,300L144.4,300L144.8,300L145.2,300L145.6,300L146,300L146.4,300L146.8,300L147.2,300L147.6,300L148,300L148.4,300L148.8,300L149.2,300L149.6,300L150,300L150.4,300L150.8,300L151.2,300L151.6,300L152,300L152.4,300L152.8,300L153.2,300L153.6,300L154,300L154.4,300L154.8,300L155.2,300L155.6,300L156,300L156.4,300L156.8,300L157.2,300L157.6,300L158,300L158.4,300L158.8,300L159.2,300L159.6,300L160,300L160.4,300L160.8,300L161.2,300L161.6,300L162,300L162.4,300L162.8,273.913L163.2,260.87L163.6,286.957L164,300L164.4,300L164.8,300L165.2,300L165.6,300L166,300L166.4,300L166.8,300L167.2,300L167.6,300L168,300L168.4,300L168.8,300L169.2,300L169.6,300L170,300L170.4,300L170.8,300L171.2,300L171.6,300L172,300L172.4,300L172.8,300L173.2,300L173.6,300L174,300L174.4,300L174.8,300L175.2,300L175.6,300L176,300L176.4,300L176.8,300L177.2,300L177.6,300L178,300L178.4,300L178.8,300L179.2,300L179.6,300L180,300L180.4,300L180.8,300L181.2,300L181.6,300L182,300L182.4,300L182.8,300L183.2,300L183.6,300L184,300L184.4,300L184.8,300L185.2,300L185.6,300L186,300L186.4,286.957L186.8,300L187.2,300L187.6,300L188,300L188.4,300L188.8,300L189.2,300L189.6,300L190,300L190.4,286.957L190.8,286.957L191.2,300L191.6,286.957L192,286.957L192.4,300L192.8,300L193.2,286.957L193.6,286.957L194,273.913L194.4,286.957L194.8,286.957L195.2,286.957L195.6,273.913L196,286.957L196.4,286.957L196.8,273.913L197.2,273.913L197.6,286.957L198,273.913L198.4,286.957L198.8,260.87L199.2,273.913L199.6,273.913L200,300L200.4,300L200.8,300L201.2,300L201.6,300L202,286.957L202.4,273.913L202.8,234.783L203.2,182.609L203.6,130.435L204,195.652L204.4,208.696L204.8,247.826L205.2,273.913L205.6,273.913L206,234.783L206.4,260.87L206.8,286.957L207.2,286.957L207.6,286.957L208,273.913L208.4,273.913L208.8,247.826L209.2,260.87L209.6,260.87L210,260.87L210.4,260.87L210.8,260.87L211.2,260.87L211.6,260.87L212,247.826L212.4,247.826L212.8,247.826L213.2,234.783L213.6,234.783L214,247.826L214.4,247.826L214.8,221.739L215.2,208.696L215.6,221.739L216,221.739L216.4,208.696L216.8,208.696L217.2,195.652L217.6,221.739L218,195.652L218.4,169.565L218.8,169.565L219.2,156.522L219.6,156.522L220,169.565L220.4,169.565L220.8,143.478L221.2,143.478L221.6,156.522L222,156.522L222.4,156.522L222.8,156.522L223.2,143.478L223.6,130.435L224,143.478L224.4,156.522L224.8,143.478L225.2,156.522L225.6,130.435L226,130.435L226.4,130.435L226.8,143.478L227.2,130.435L227.6,117.391L228,130.435L228.4,130.435L228.8,117.391L229.2,130.435L229.6,130.435L230,130.435L230.4,130.435L230.8,130.435L231.2,117.391L231.6,117.391L232,117.391L232.4,117.391L232.8,117.391L233.2,117.391L233.6,104.348L234,104.348L234.4,104.348L234.8,104.348L235.2,91.304L235.6,117.391L236,91.304L236.4,78.261L236.8,78.261L237.2,78.261L237.6,91.304L238,91.304L238.4,91.304L238.8,78.261L239.2,78.261L239.6,78.261L240,260.87L240.4,260.87L240.8,208.696L241.2,182.609L241.6,169.565L242,143.478L242.4,130.435L242.8,117.391L243.2,91.304L243.6,78.261L244,52.174L244.4,39.13L244.8,39.13L245.2,26.087L245.6,52.174L246,39.13L246.4,65.217L246.8,52.174L247.2,65.217L247.6,52.174L248,52.174L248.4,39.13L248.8,39.13L249.2,39.13L249.6,39.13L250,26.087L250.4,26.087L250.8,26.087L251.2,26.087L251.6,26.087L252,26.087L252.4,26.087L252.8,26.087L253.2,26.087L253.6,26.087L254,26.087L254.4,26.087L254.8,26.087L255.2,26.087L255.6,26.087L256,26.087L256.4,26.087L256.8,26.087L257.2,26.087L257.6,26.087L258,26.087L258.4,26.087L258.8,26.087L259.2,26.087L259.6,26.087L260,26.087L260.4,26.087L260.8,26.087L261.2,26.087L261.6,26.087L262,26.087L262.4,26.087L262.8,26.087L263.2,26.087L263.6,26.087L264,26.087L264.4,26.087L264.8,26.087L265.2,26.087L265.6,26.087L266,26.087L266.4,26.087L266.8,26.087L267.2,26.087L267.6,13.043L268,13.043L268.4,26.087L268.8,13.043L269.2,13.043L269.6,13.043L270,13.043L270.4,13.043L270.8,26.087L271.2,13.043L271.6,13.043L272,13.043L272.4,13.043L272.8,13.043L273.2,13.043L273.6,13.043L274,13.043L274.4,13.043L274.8,13.043L275.2,13.043L275.6,13.043L276,13.043L276.4,0L276.8,0L277.2,0L277.6,13.043L278,13.043L278.4,13.043L278.8,13.043L279.2,0L279.6,0L280,195.652L280.4,117.391L280.8,39.13L281.2,13.043L281.6,13.043L282,13.043L282.4,13.043L282.8,13.043L283.2,0L283.6,0L284,0L284.4,0L284.8,0L285.2,0L285.6,0L286,0L286.4,0L286.8,0L287.2,0L287.6,0L288,0L288.4,0L288.8,0L289.2,0L289.6,0L290,0L290.4,0L290.8,0L291.2,0L291.6,0L292,0L292.4,0L292.8,0L293.2,0L293.6,0L294,0L294.4,0L294.8,0L295.2,0L295.6,0L296,0L296.4,0L296.8,0L297.2,0L297.6,0L298,0L298.4,0L298.8,0L299.2,0L299.6,0L300,0L300.4,0L300.8,0L301.2,0L301.6,0L302,0L302.4,0L302.8,0L303.2,0L303.6,0L304,0L304.4,0L304.8,0L305.2,0L305.6,0L306,0L306.4,0L306.8,0L307.2,0L307.6,0L308,0L308.4,0L308.8,0L309.2,0L309.6,0L310,0L310.4,0L310.8,0L311.2,0L311.6,0L312,0L312.4,0L312.8,0L313.2,0L313.6,0L314,0L314.4,0L314.8,0L315.2,0L315.6,0L316,0L316.4,0L316.8,0L317.2,0L317.6,0L318,0L318.4,0L318.8,0L319.2,0L319.6,0L320,260.87L320.4,169.565L320.8,39.13L321.2,13.043L321.6,0L322,0L322.4,0L322.8,0L323.2,0L323.6,0L324,0L324.4,0L324.8,0L325.2,0L325.6,0L326,0L326.4,0L326.8,0L327.2,0L327.6,0L328,0L328.4,0L328.8,0L329.2,0L329.6,0L330,0L330.4,0L330.8,0L331.2,0L331.6,0L332,0L332.4,0L332.8,0L333.2,0L333.6,0L334,0L334.4,0L334.8,0L335.2,0L335.6,0L336,0L336.4,0L336.8,0L337.2,0L337.6,0L338,0L338.4,0L338.8,0L339.2,0L339.6,0L340,0L340.4,0L340.8,0L341.2,0L341.6,0L342,0L342.4,0L342.8,0L343.2,0L343.6,0L344,0L344.4,0L344.8,0L345.2,0L345.6,0L346,0L346.4,0L346.8,0L347.2,0L347.6,0L348,0L348.4,0L348.8,0L349.2,0L349.6,0L350,0L350.4,0L350.8,0L351.2,0L351.6,0L352,0L352.4,0L352.8,0L353.2,0L353.6,0L354,0L354.4,0L354.8,0L355.2,0L355.6,0L356,0L356.4,0L356.8,0L357.2,0L357.6,0L358,0L358.4,0L358.8,0L359.2,0L359.6,0L360,182.609L360.4,104.348L360.8,52.174L361.2,0L361.6,0L362,0L362.4,0L362.8,0L363.2,0L363.6,0L364,0L364.4,0L364.8,0L365.2,0L365.6,0L366,0L366.4,0L366.8,0L367.2,0L367.6,0L368,0L368.4,0L368.8,0L369.2,0L369.6,0L370,0L370.4,0L370.8,0L371.2,0L371.6,0L372,0L372.4,0L372.8,0L373.2,0L373.6,0L374,0L374.4,0L374.8,0L375.2,0L375.6,0L376,0L376.4,0L376.8,0L377.2,0L377.6,0L378,0L378.4,0L378.8,0L379.2,0L379.6,0L380,0L380.4,0L380.8,0L381.2,0L381.6,0L382,0L382.4,0L382.8,0L383.2,0L383.6,0L384,0L384.4,0L384.8,0L385.2,0L385.6,0L386,0L386.4,0L386.8,0L387.2,0L387.6,0L388,0L388.4,0L388.8,0L389.2,0L389.6,0L390,0L390.4,0L390.8,0L391.2,0L391.6,0L392,0L392.4,0L392.8,0L393.2,0L393.6,0L394,0L394.4,0L394.8,0L395.2,0L395.6,0L396,0L396.4,0L396.8,0L397.2,0L397.6,0L398,0L398.4,0L398.8,0L399.2,0L399.6,0L400,208.696" stroke="#f58518" stroke-width="2"/></g></g><path class="foreground" aria-hidden="true" d="" display="none"/></g></g><g class="mark-group role-legend" role="graphics-symbol" aria-roledescription="legend" aria-label="Symbol legend titled 'Reset' for stroke color with 2 values: 0, 100"><g transform="translate(420,0)"><path class="background" aria-hidden="true" d="M0,0h48v63h-48Z" pointer-events="none"/><g><g class="mark-group role-legend-entry"><g transform="translate(0,21)"><path class="background" aria-hidden="true" d="M0,0h0v0h0Z" pointer-events="none"/><g><g class="mark-group role-scope" role="graphics-object" aria-roledescription="group mark container"><g transform="translate(0,0)"><path class="background" aria-hidden="true" d="M0,0h47.3583984375v20h-47.3583984375Z" pointer-events="none" opacity="1"/><g><g class="mark-symbol role-legend-symbol" pointer-events="none"><path transform="translate(10,10)" d="M-5,0L5,0" stroke="#4c78a8" stroke-width="10" opacity="1"/></g><g class="mark-text role-legend-label" pointer-events="none"><text text-anchor="start" transform="translate(24,14)" font-family="sans-serif" font-size="14px" fill="#000" opacity="1">0</text></g></g><path class="foreground" aria-hidden="true" d="" pointer-events="none" display="none"/></g><g transform="translate(0,22)"><path class="background" aria-hidden="true" d="M0,0h47.3583984375v20h-47.3583984375Z" pointer-events="none" opacity="1"/><g><g class="mark-symbol role-legend-symbol" pointer-events="none"><path transform="translate(10,10)" d="M-5,0L5,0" stroke="#f58518" stroke-width="10" opacity="1"/></g><g class="mark-text role-legend-label" pointer-events="none"><text text-anchor="start" transform="translate(24,14)" font-family="sans-serif" font-size="14px" fill="#000" opacity="1">100</text></g></g><path class="foreground" aria-hidden="true" d="" pointer-events="none" display="none"/></g></g></g><path class="foreground" aria-hidden="true" d="" pointer-events="none" display="none"/></g></g><g class="mark-text role-legend-title" pointer-events="none"><text text-anchor="start" transform="translate(0,13)" font-family="sans-serif" font-size="16px" font-weight="bold" fill="#000" opacity="1">Reset</text></g></g><path class="foreground" aria-hidden="true" d="" pointer-events="none" display="none"/></g></g><g class="mark-group role-title"><g transform="translate(200,-29)"><path class="background" aria-hidden="true" d="M0,0h0v0h0Z" pointer-events="none"/><g><g class="mark-text role-title-text" role="graphics-symbol" aria-roledescription="title" aria-label="Title text 'Reward Overtime (LR=0.0001)'" pointer-events="none"><text text-anchor="middle" transform="translate(0,14)" font-family="sans-serif" font-size="18px" font-weight="bold" fill="#000" opacity="1">Reward Overtime (LR=0.0001)</text></g></g><path class="foreground" aria-hidden="true" d="" pointer-events="none" display="none"/></g></g></g><path class="foreground" aria-hidden="true" d="" display="none"/></g></g></g></svg>