<svg xmlns="http://www.w3.org/2000/svg" xmlns:xlink="http://www.w3.org/1999/xlink" version="1.1" class="marks" width="525" height="380" viewBox="0 0 525 380"><rect width="525" height="380" fill="white"/><g fill="none" stroke-miterlimit="10" transform="translate(52,34)"><g class="mark-group role-frame root" role="graphics-object" aria-roledescription="group mark container"><g transform="translate(0,0)"><path class="background" aria-hidden="true" d="M0.5,0.5h400v300h-400Z" stroke="#ddd"/><g><g class="mark-group role-axis" aria-hidden="true"><g transform="translate(0.5,300.5)"><path class="background" aria-hidden="true" d="M0,0h0v0h0Z" pointer-events="none"/><g><g class="mark-rule role-axis-grid" pointer-events="none"><line transform="translate(0,-300)" x2="0" y2="300" stroke="#ddd" stroke-width="1" opacity="1"/><line transform="translate(40,-300)" x2="0" y2="300" stroke="#ddd" stroke-width="1" opacity="1"/><line transform="translate(80,-300)" x2="0" y2="300" stroke="#ddd" stroke-width="1" opacity="1"/><line transform="translate(120,-300)" x2="0" y2="300" stroke="#ddd" stroke-width="1" opacity="1"/><line transform="translate(160,-300)" x2="0" y2="300" stroke="#ddd" stroke-width="1" opacity="1"/><line transform="translate(200,-300)" x2="0" y2="300" stroke="#ddd" stroke-width="1" opacity="1"/><line transform="translate(240,-300)" x2="0" y2="300" stroke="#ddd" stroke-width="1" opacity="1"/><line transform="translate(280,-300)" x2="0" y2="300" stroke="#ddd" stroke-width="1" opacity="1"/><line transform="translate(320,-300)" x2="0" y2="300" stroke="#ddd" stroke-width="1" opacity="1"/><line transform="translate(360,-300)" x2="0" y2="300" stroke="#ddd" stroke-width="1" opacity="1"/><line transform="translate(400,-300)" x2="0" y2="300" stroke="#ddd" stroke-width="1" opacity="1"/></g></g><path class="foreground" aria-hidden="true" d="" pointer-events="none" display="none"/></g></g><g class="mark-group role-axis" aria-hidden="true"><g transform="translate(0.5,0.5)"><path class="background" aria-hidden="true" d="M0,0h0v0h0Z" pointer-events="none"/><g><g class="mark-rule role-axis-grid" pointer-events="none"><line transform="translate(0,300)" x2="400" y2="0" stroke="#ddd" stroke-width="1" opacity="1"/><line transform="translate(0,270)" x2="400" y2="0" stroke="#ddd" stroke-width="1" opacity="1"/><line transform="translate(0,240)" x2="400" y2="0" stroke="#ddd" stroke-width="1" opacity="1"/><line transform="translate(0,210)" x2="400" y2="0" stroke="#ddd" stroke-width="1" opacity="1"/><line transform="translate(0,180)" x2="400" y2="0" stroke="#ddd" stroke-width="1" opacity="1"/><line transform="translate(0,150)" x2="400" y2="0" stroke="#ddd" stroke-width="1" opacity="1"/><line transform="translate(0,120)" x2="400" y2="0" stroke="#ddd" stroke-width="1" opacity="1"/><line transform="translate(0,90)" x2="400" y2="0" stroke="#ddd" stroke-width="1" opacity="1"/><line transform="translate(0,60)" x2="400" y2="0" stroke="#ddd" stroke-width="1" opacity="1"/><line transform="translate(0,30)" x2="400" y2="0" stroke="#ddd" stroke-width="1" opacity="1"/><line transform="translate(0,0)" x2="400" y2="0" stroke="#ddd" stroke-width="1" opacity="1"/></g></g><path class="foreground" aria-hidden="true" d="" pointer-events="none" display="none"/></g></g><g class="mark-group role-axis" role="graphics-symbol" aria-roledescription="axis" aria-label="X-axis titled 'Episode' for a linear scale with values from 0 to 1,000"><g transform="translate(0.5,300.5)"><path class="background" aria-hidden="true" d="M0,0h0v0h0Z" pointer-events="none"/><g><g class="mark-rule role-axis-tick" pointer-events="none"><line transform="translate(0,0)" x2="0" y2="5" stroke="#888" stroke-width="1" opacity="1"/><line transform="translate(40,0)" x2="0" y2="5" stroke="#888" stroke-width="1" opacity="1"/><line transform="translate(80,0)" x2="0" y2="5" stroke="#888" stroke-width="1" opacity="1"/><line transform="translate(120,0)" x2="0" y2="5" stroke="#888" stroke-width="1" opacity="1"/><line transform="translate(160,0)" x2="0" y2="5" stroke="#888" stroke-width="1" opacity="1"/><line transform="translate(200,0)" x2="0" y2="5" stroke="#888" stroke-width="1" opacity="1"/><line transform="translate(240,0)" x2="0" y2="5" stroke="#888" stroke-width="1" opacity="1"/><line transform="translate(280,0)" x2="0" y2="5" stroke="#888" stroke-width="1" opacity="1"/><line transform="translate(320,0)" x2="0" y2="5" stroke="#888" stroke-width="1" opacity="1"/><line transform="translate(360,0)" x2="0" y2="5" stroke="#888" stroke-width="1" opacity="1"/><line transform="translate(400,0)" x2="0" y2="5" stroke="#888" stroke-width="1" opacity="1"/></g><g class="mark-text role-axis-label" pointer-events="none"><text text-anchor="start" transform="translate(0,18)" font-family="sans-serif" font-size="14px" fill="#000" opacity="1">0</text><text text-anchor="middle" transform="translate(40,18)" font-family="sans-serif" font-size="14px" fill="#000" opacity="0">100</text><text text-anchor="middle" transform="translate(80,18)" font-family="sans-serif" font-size="14px" fill="#000" opacity="1">200</text><text text-anchor="middle" transform="translate(120,18)" font-family="sans-serif" font-size="14px" fill="#000" opacity="0">300</text><text text-anchor="middle" transform="translate(160,18)" font-family="sans-serif" font-size="14px" fill="#000" opacity="1">400</text><text text-anchor="middle" transform="translate(200,18)" font-family="sans-serif" font-size="14px" fill="#000" opacity="0">500</text><text text-anchor="middle" transform="translate(240,18)" font-family="sans-serif" font-size="14px" fill="#000" opacity="1">600</text><text text-anchor="middle" transform="translate(280,18)" font-family="sans-serif" font-size="14px" fill="#000" opacity="0">700</text><text text-anchor="middle" transform="translate(320,18)" font-family="sans-serif" font-size="14px" fill="#000" opacity="1">800</text><text text-anchor="middle" transform="translate(360,18)" font-family="sans-serif" font-size="14px" fill="#000" opacity="0">900</text><text text-anchor="end" transform="translate(400,18)" font-family="sans-serif" font-size="14px" fill="#000" opacity="1">1,000</text></g><g class="mark-rule role-axis-domain" pointer-events="none"><line transform="translate(0,0)" x2="400" y2="0" stroke="#888" stroke-width="1" opacity="1"/></g><g class="mark-text role-axis-title" pointer-events="none"><text text-anchor="middle" transform="translate(200,38)" font-family="sans-serif" font-size="16px" font-weight="bold" fill="#000" opacity="1">Episode</text></g></g><path class="foreground" aria-hidden="true" d="" pointer-events="none" display="none"/></g></g><g class="mark-group role-axis" role="graphics-symbol" aria-roledescription="axis" aria-label="Y-axis titled 'Reward' for a linear scale with values from 0.0 to 1.0"><g transform="translate(0.5,0.5)"><path class="background" aria-hidden="true" d="M0,0h0v0h0Z" pointer-events="none"/><g><g class="mark-rule role-axis-tick" pointer-events="none"><line transform="translate(0,300)" x2="-5" y2="0" stroke="#888" stroke-width="1" opacity="1"/><line transform="translate(0,270)" x2="-5" y2="0" stroke="#888" stroke-width="1" opacity="1"/><line transform="translate(0,240)" x2="-5" y2="0" stroke="#888" stroke-width="1" opacity="1"/><line transform="translate(0,210)" x2="-5" y2="0" stroke="#888" stroke-width="1" opacity="1"/><line transform="translate(0,180)" x2="-5" y2="0" stroke="#888" stroke-width="1" opacity="1"/><line transform="translate(0,150)" x2="-5" y2="0" stroke="#888" stroke-width="1" opacity="1"/><line transform="translate(0,120)" x2="-5" y2="0" stroke="#888" stroke-width="1" opacity="1"/><line transform="translate(0,90)" x2="-5" y2="0" stroke="#888" stroke-width="1" opacity="1"/><line transform="translate(0,60)" x2="-5" y2="0" stroke="#888" stroke-width="1" opacity="1"/><line transform="translate(0,30)" x2="-5" y2="0" stroke="#888" stroke-width="1" opacity="1"/><line transform="translate(0,0)" x2="-5" y2="0" stroke="#888" stroke-width="1" opacity="1"/></g><g class="mark-text role-axis-label" pointer-events="none"><text text-anchor="end" transform="translate(-7,304)" font-family="sans-serif" font-size="14px" fill="#000" opacity="1">0.0</text><text text-anchor="end" transform="translate(-7,274)" font-family="sans-serif" font-size="14px" fill="#000" opacity="1">0.1</text><text text-anchor="end" transform="translate(-7,244)" font-family="sans-serif" font-size="14px" fill="#000" opacity="1">0.2</text><text text-anchor="end" transform="translate(-7,214)" font-family="sans-serif" font-size="14px" fill="#000" opacity="1">0.3</text><text text-anchor="end" transform="translate(-7,184)" font-family="sans-serif" font-size="14px" fill="#000" opacity="1">0.4</text><text text-anchor="end" transform="translate(-7,154)" font-family="sans-serif" font-size="14px" fill="#000" opacity="1">0.5</text><text text-anchor="end" transform="translate(-7,124)" font-family="sans-serif" font-size="14px" fill="#000" opacity="1">0.6</text><text text-anchor="end" transform="translate(-7,94.00000000000001)" font-family="sans-serif" font-size="14px" fill="#000" opacity="1">0.7</text><text text-anchor="end" transform="translate(-7,63.999999999999986)" font-family="sans-serif" font-size="14px" fill="#000" opacity="1">0.8</text><text text-anchor="end" transform="translate(-7,33.99999999999999)" font-family="sans-serif" font-size="14px" fill="#000" opacity="1">0.9</text><text text-anchor="end" transform="translate(-7,4)" font-family="sans-serif" font-size="14px" fill="#000" opacity="1">1.0</text></g><g class="mark-rule role-axis-domain" pointer-events="none"><line transform="translate(0,300)" x2="0" y2="-300" stroke="#888" stroke-width="1" opacity="1"/></g><g class="mark-text role-axis-title" pointer-events="none"><text text-anchor="middle" transform="translate(-30.4619140625,150) rotate(-90) translate(0,-3)" font-family="sans-serif" font-size="16px" font-weight="bold" fill="#000" opacity="1">Reward</text></g></g><path class="foreground" aria-hidden="true" d="" pointer-events="none" display="none"/></g></g><g class="mark-group role-scope pathgroup" role="graphics-object" aria-roledescription="group mark container"><g transform="translate(0,0)"><path class="background" aria-hidden="true" d="M0,0h400v300h-400Z"/><g><g class="mark-line role-mark marks" role="graphics-object" aria-roledescription="line mark container"><path aria-label="Episode: 1; Reward: 0.0434782608696; Reset: 0" role="graphics-symbol" aria-roledescription="line mark" d="M0.4,286.957L0.8,286.957L1.2,286.957L1.6,286.957L2,286.957L2.4,286.957L2.8,286.957L3.2,286.957L3.6,286.957L4,286.957L4.4,286.957L4.8,286.957L5.2,286.957L5.6,286.957L6,286.957L6.4,286.957L6.8,286.957L7.2,300L7.6,273.913L8,247.826L8.4,195.652L8.8,143.478L9.2,78.261L9.6,65.217L10,52.174L10.4,26.087L10.8,13.043L11.2,13.043L11.6,13.043L12,13.043L12.4,13.043L12.8,0L13.2,0L13.6,0L14,0L14.4,0L14.8,0L15.2,0L15.6,0L16,0L16.4,0L16.8,0L17.2,0L17.6,0L18,0L18.4,0L18.8,0L19.2,0L19.6,0L20,0L20.4,0L20.8,0L21.2,0L21.6,0L22,0L22.4,0L22.8,0L23.2,0L23.6,0L24,0L24.4,0L24.8,0L25.2,0L25.6,0L26,0L26.4,0L26.8,0L27.2,0L27.6,0L28,0L28.4,0L28.8,0L29.2,0L29.6,0L30,0L30.4,0L30.8,0L31.2,0L31.6,0L32,0L32.4,0L32.8,0L33.2,0L33.6,0L34,0L34.4,0L34.8,0L35.2,0L35.6,0L36,0L36.4,0L36.8,0L37.2,0L37.6,0L38,0L38.4,0L38.8,0L39.2,0L39.6,0L40,0L40.4,0L40.8,0L41.2,0L41.6,0L42,0L42.4,0L42.8,0L43.2,0L43.6,0L44,0L44.4,0L44.8,0L45.2,0L45.6,0L46,0L46.4,0L46.8,0L47.2,0L47.6,0L48,0L48.4,0L48.8,0L49.2,0L49.6,0L50,0L50.4,0L50.8,0L51.2,0L51.6,0L52,0L52.4,0L52.8,0L53.2,0L53.6,0L54,0L54.4,0L54.8,0L55.2,0L55.6,0L56,0L56.4,0L56.8,0L57.2,0L57.6,0L58,0L58.4,0L58.8,0L59.2,0L59.6,0L60,0L60.4,0L60.8,0L61.2,0L61.6,0L62,0L62.4,0L62.8,0L63.2,0L63.6,0L64,0L64.4,0L64.8,0L65.2,0L65.6,0L66,0L66.4,0L66.8,0L67.2,0L67.6,0L68,0L68.4,0L68.8,0L69.2,0L69.6,0L70,0L70.4,0L70.8,0L71.2,0L71.6,0L72,0L72.4,0L72.8,0L73.2,0L73.6,0L74,0L74.4,0L74.8,0L75.2,0L75.6,0L76,0L76.4,0L76.8,0L77.2,0L77.6,0L78,0L78.4,0L78.8,0L79.2,0L79.6,0L80,0L80.4,0L80.8,300L81.2,300L81.6,300L82,300L82.4,300L82.8,300L83.2,300L83.6,300L84,300L84.4,300L84.8,300L85.2,300L85.6,300L86,300L86.4,300L86.8,300L87.2,300L87.6,300L88,300L88.4,300L88.8,300L89.2,300L89.6,300L90,300L90.4,300L90.8,300L91.2,300L91.6,300L92,300L92.4,300L92.8,300L93.2,300L93.6,300L94,300L94.4,300L94.8,300L95.2,300L95.6,300L96,300L96.4,300L96.8,300L97.2,300L97.6,300L98,300L98.4,300L98.8,300L99.2,300L99.6,300L100,300L100.4,300L100.8,300L101.2,300L101.6,300L102,300L102.4,300L102.8,300L103.2,300L103.6,300L104,300L104.4,300L104.8,300L105.2,300L105.6,300L106,300L106.4,300L106.8,300L107.2,300L107.6,300L108,300L108.4,300L108.8,300L109.2,300L109.6,300L110,300L110.4,300L110.8,300L111.2,300L111.6,300L112,300L112.4,300L112.8,300L113.2,300L113.6,300L114,300L114.4,300L114.8,300L115.2,300L115.6,300L116,300L116.4,300L116.8,300L117.2,300L117.6,300L118,300L118.4,300L118.8,300L119.2,300L119.6,300L120,300L120.4,300L120.8,300L121.2,300L121.6,300L122,300L122.4,300L122.8,300L123.2,300L123.6,300L124,300L124.4,300L124.8,300L125.2,300L125.6,300L126,300L126.4,300L126.8,300L127.2,300L127.6,300L128,300L128.4,300L128.8,300L129.2,300L129.6,300L130,300L130.4,300L130.8,300L131.2,300L131.6,300L132,300L132.4,300L132.8,300L133.2,300L133.6,300L134,300L134.4,300L134.8,300L135.2,300L135.6,300L136,300L136.4,300L136.8,300L137.2,300L137.6,300L138,300L138.4,300L138.8,300L139.2,300L139.6,300L140,300L140.4,300L140.8,300L141.2,300L141.6,300L142,300L142.4,300L142.8,300L143.2,300L143.6,300L144,300L144.4,300L144.8,300L145.2,300L145.6,300L146,300L146.4,300L146.8,300L147.2,300L147.6,300L148,300L148.4,300L148.8,300L149.2,300L149.6,300L150,300L150.4,300L150.8,300L151.2,300L151.6,300L152,300L152.4,300L152.8,300L153.2,300L153.6,300L154,300L154.4,300L154.8,300L155.2,300L155.6,300L156,300L156.4,300L156.8,300L157.2,300L157.6,300L158,300L158.4,300L158.8,300L159.2,300L159.6,300L160,300L160.4,300L160.8,300L161.2,300L161.6,300L162,300L162.4,300L162.8,300L163.2,300L163.6,300L164,300L164.4,300L164.8,300L165.2,300L165.6,300L166,300L166.4,300L166.8,300L167.2,300L167.6,300L168,300L168.4,300L168.8,300L169.2,300L169.6,300L170,300L170.4,300L170.8,300L171.2,300L171.6,300L172,286.957L172.4,300L172.8,300L173.2,300L173.6,300L174,300L174.4,300L174.8,300L175.2,300L175.6,300L176,286.957L176.4,300L176.8,300L177.2,286.957L177.6,300L178,300L178.4,300L178.8,286.957L179.2,286.957L179.6,286.957L180,286.957L180.4,286.957L180.8,286.957L181.2,286.957L181.6,286.957L182,286.957L182.4,286.957L182.8,286.957L183.2,286.957L183.6,286.957L184,286.957L184.4,286.957L184.8,300L185.2,286.957L185.6,286.957L186,286.957L186.4,286.957L186.8,286.957L187.2,286.957L187.6,286.957L188,286.957L188.4,286.957L188.8,286.957L189.2,286.957L189.6,286.957L190,286.957L190.4,286.957L190.8,286.957L191.2,286.957L191.6,286.957L192,286.957L192.4,286.957L192.8,286.957L193.2,286.957L193.6,286.957L194,286.957L194.4,286.957L194.8,286.957L195.2,286.957L195.6,286.957L196,286.957L196.4,286.957L196.8,286.957L197.2,286.957L197.6,286.957L198,286.957L198.4,286.957L198.8,286.957L199.2,286.957L199.6,286.957L200,286.957L200.4,286.957L200.8,286.957L201.2,286.957L201.6,286.957L202,286.957L202.4,286.957L202.8,286.957L203.2,286.957L203.6,286.957L204,286.957L204.4,286.957L204.8,286.957L205.2,286.957L205.6,286.957L206,286.957L206.4,286.957L206.8,286.957L207.2,286.957L207.6,286.957L208,286.957L208.4,286.957L208.8,286.957L209.2,286.957L209.6,286.957L210,286.957L210.4,286.957L210.8,286.957L211.2,286.957L211.6,286.957L212,286.957L212.4,286.957L212.8,286.957L213.2,286.957L213.6,286.957L214,286.957L214.4,286.957L214.8,286.957L215.2,286.957L215.6,286.957L216,286.957L216.4,286.957L216.8,286.957L217.2,286.957L217.6,286.957L218,286.957L218.4,286.957L218.8,286.957L219.2,286.957L219.6,286.957L220,286.957L220.4,286.957L220.8,286.957L221.2,286.957L221.6,286.957L222,286.957L222.4,286.957L222.8,286.957L223.2,286.957L223.6,286.957L224,286.957L224.4,286.957L224.8,286.957L225.2,286.957L225.6,286.957L226,286.957L226.4,286.957L226.8,286.957L227.2,286.957L227.6,286.957L228,286.957L228.4,286.957L228.8,286.957L229.2,286.957L229.6,286.957L230,286.957L230.4,286.957L230.8,286.957L231.2,286.957L231.6,286.957L232,286.957L232.4,286.957L232.8,286.957L233.2,286.957L233.6,286.957L234,286.957L234.4,286.957L234.8,286.957L235.2,286.957L235.6,286.957L236,286.957L236.4,286.957L236.8,286.957L237.2,286.957L237.6,286.957L238,286.957L238.4,286.957L238.8,286.957L239.2,286.957L239.6,286.957L240,286.957L240.4,286.957L240.8,286.957L241.2,273.913L241.6,273.913L242,273.913L242.4,286.957L242.8,273.913L243.2,273.913L243.6,273.913L244,273.913L244.4,273.913L244.8,273.913L245.2,273.913L245.6,273.913L246,273.913L246.4,260.87L246.8,273.913L247.2,273.913L247.6,273.913L248,273.913L248.4,273.913L248.8,273.913L249.2,273.913L249.6,273.913L250,273.913L250.4,273.913L250.8,273.913L251.2,273.913L251.6,273.913L252,273.913L252.4,273.913L252.8,260.87L253.2,260.87L253.6,260.87L254,260.87L254.4,260.87L254.8,260.87L255.2,260.87L255.6,260.87L256,260.87L256.4,260.87L256.8,260.87L257.2,260.87L257.6,260.87L258,260.87L258.4,260.87L258.8,260.87L259.2,260.87L259.6,260.87L260,260.87L260.4,260.87L260.8,260.87L261.2,260.87L261.6,260.87L262,260.87L262.4,260.87L262.8,260.87L263.2,260.87L263.6,260.87L264,260.87L264.4,260.87L264.8,260.87L265.2,260.87L265.6,260.87L266,260.87L266.4,260.87L266.8,260.87L267.2,260.87L267.6,260.87L268,260.87L268.4,260.87L268.8,247.826L269.2,247.826L269.6,247.826L270,260.87L270.4,260.87L270.8,260.87L271.2,247.826L271.6,260.87L272,247.826L272.4,234.783L272.8,234.783L273.2,260.87L273.6,260.87L274,247.826L274.4,247.826L274.8,247.826L275.2,247.826L275.6,247.826L276,247.826L276.4,234.783L276.8,234.783L277.2,234.783L277.6,234.783L278,234.783L278.4,234.783L278.8,234.783L279.2,234.783L279.6,234.783L280,234.783L280.4,234.783L280.8,234.783L281.2,234.783L281.6,234.783L282,234.783L282.4,234.783L282.8,234.783L283.2,234.783L283.6,221.739L284,221.739L284.4,221.739L284.8,221.739L285.2,221.739L285.6,221.739L286,195.652L286.4,195.652L286.8,208.696L287.2,208.696L287.6,208.696L288,195.652L288.4,195.652L288.8,195.652L289.2,195.652L289.6,195.652L290,182.609L290.4,195.652L290.8,182.609L291.2,195.652L291.6,195.652L292,169.565L292.4,182.609L292.8,182.609L293.2,169.565L293.6,169.565L294,169.565L294.4,169.565L294.8,156.522L295.2,156.522L295.6,156.522L296,156.522L296.4,156.522L296.8,156.522L297.2,156.522L297.6,156.522L298,156.522L298.4,156.522L298.8,156.522L299.2,156.522L299.6,130.435L300,130.435L300.4,130.435L300.8,130.435L301.2,143.478L301.6,130.435L302,130.435L302.4,130.435L302.8,130.435L303.2,130.435L303.6,130.435L304,130.435L304.4,130.435L304.8,130.435L305.2,130.435L305.6,130.435L306,130.435L306.4,130.435L306.8,130.435L307.2,130.435L307.6,130.435L308,130.435L308.4,130.435L308.8,130.435L309.2,130.435L309.6,130.435L310,130.435L310.4,130.435L310.8,130.435L311.2,130.435L311.6,130.435L312,130.435L312.4,130.435L312.8,130.435L313.2,130.435L313.6,130.435L314,130.435L314.4,130.435L314.8,130.435L315.2,130.435L315.6,130.435L316,130.435L316.4,117.391L316.8,117.391L317.2,117.391L317.6,117.391L318,117.391L318.4,117.391L318.8,117.391L319.2,117.391L319.6,117.391L320,117.391L320.4,117.391L320.8,117.391L321.2,117.391L321.6,117.391L322,117.391L322.4,117.391L322.8,117.391L323.2,117.391L323.6,117.391L324,117.391L324.4,117.391L324.8,117.391L325.2,117.391L325.6,117.391L326,117.391L326.4,117.391L326.8,117.391L327.2,117.391L327.6,117.391L328,104.348L328.4,104.348L328.8,104.348L329.2,104.348L329.6,104.348L330,104.348L330.4,104.348L330.8,104.348L331.2,104.348L331.6,91.304L332,91.304L332.4,91.304L332.8,91.304L333.2,91.304L333.6,91.304L334,91.304L334.4,91.304L334.8,91.304L335.2,91.304L335.6,91.304L336,91.304L336.4,91.304L336.8,91.304L337.2,91.304L337.6,91.304L338,91.304L338.4,91.304L338.8,91.304L339.2,78.261L339.6,78.261L340,78.261L340.4,78.261L340.8,78.261L341.2,91.304L341.6,91.304L342,65.217L342.4,78.261L342.8,78.261L343.2,65.217L343.6,78.261L344,78.261L344.4,65.217L344.8,65.217L345.2,65.217L345.6,52.174L346,65.217L346.4,52.174L346.8,26.087L347.2,26.087L347.6,26.087L348,26.087L348.4,26.087L348.8,26.087L349.2,26.087L349.6,26.087L350,26.087L350.4,26.087L350.8,26.087L351.2,26.087L351.6,26.087L352,26.087L352.4,26.087L352.8,26.087L353.2,26.087L353.6,26.087L354,26.087L354.4,26.087L354.8,26.087L355.2,26.087L355.6,26.087L356,26.087L356.4,26.087L356.8,26.087L357.2,26.087L357.6,26.087L358,26.087L358.4,26.087L358.8,26.087L359.2,26.087L359.6,26.087L360,26.087L360.4,26.087L360.8,26.087L361.2,26.087L361.6,26.087L362,26.087L362.4,26.087L362.8,26.087L363.2,26.087L363.6,26.087L364,26.087L364.4,26.087L364.8,26.087L365.2,26.087L365.6,26.087L366,26.087L366.4,26.087L366.8,26.087L367.2,26.087L367.6,26.087L368,26.087L368.4,26.087L368.8,26.087L369.2,26.087L369.6,26.087L370,26.087L370.4,26.087L370.8,26.087L371.2,26.087L371.6,26.087L372,26.087L372.4,26.087L372.8,26.087L373.2,26.087L373.6,26.087L374,26.087L374.4,26.087L374.8,26.087L375.2,26.087L375.6,26.087L376,26.087L376.4,26.087L376.8,26.087L377.2,26.087L377.6,26.087L378,26.087L378.4,26.087L378.8,26.087L379.2,26.087L379.6,26.087L380,26.087L380.4,26.087L380.8,26.087L381.2,26.087L381.6,26.087L382,26.087L382.4,26.087L382.8,26.087L383.2,26.087L383.6,26.087L384,26.087L384.4,13.043L384.8,26.087L385.2,26.087L385.6,26.087L386,26.087L386.4,26.087L386.8,26.087L387.2,26.087L387.6,26.087L388,26.087L388.4,26.087L388.8,26.087L389.2,26.087L389.6,26.087L390,26.087L390.4,26.087L390.8,26.087L391.2,26.087L391.6,26.087L392,26.087L392.4,26.087L392.8,26.087L393.2,26.087L393.6,26.087L394,26.087L394.4,26.087L394.8,26.087L395.2,26.087L395.6,26.087L396,26.087L396.4,26.087L396.8,26.087L397.2,26.087L397.6,26.087L398,26.087L398.4,26.087L398.8,26.087L399.2,26.087L399.6,26.087L400,26.087" stroke="#4c78a8" stroke-width="2"/></g></g><path class="foreground" aria-hidden="true" d="" display="none"/></g><g transform="translate(0,0)"><path class="background" aria-hidden="true" d="M0,0h400v300h-400Z"/><g><g class="mark-line role-mark marks" role="graphics-object" aria-roledescription="line mark container"><path aria-label="Episode: 1; Reward: 0; Reset: 100" role="graphics-symbol" aria-roledescription="line mark" d="M0.4,300L0.8,300L1.2,300L1.6,300L2,300L2.4,300L2.8,300L3.2,300L3.6,300L4,300L4.4,300L4.8,300L5.2,300L5.6,300L6,300L6.4,300L6.8,300L7.2,273.913L7.6,260.87L8,247.826L8.4,195.652L8.8,143.478L9.2,65.217L9.6,39.13L10,26.087L10.4,13.043L10.8,0L11.2,0L11.6,0L12,0L12.4,0L12.8,0L13.2,0L13.6,0L14,0L14.4,0L14.8,0L15.2,0L15.6,0L16,0L16.4,0L16.8,0L17.2,0L17.6,0L18,0L18.4,0L18.8,0L19.2,0L19.6,0L20,0L20.4,0L20.8,0L21.2,0L21.6,0L22,0L22.4,0L22.8,0L23.2,0L23.6,0L24,0L24.4,0L24.8,0L25.2,0L25.6,0L26,0L26.4,0L26.8,0L27.2,0L27.6,0L28,0L28.4,0L28.8,0L29.2,0L29.6,0L30,0L30.4,0L30.8,0L31.2,0L31.6,0L32,0L32.4,0L32.8,0L33.2,0L33.6,0L34,0L34.4,0L34.8,0L35.2,0L35.6,0L36,0L36.4,0L36.8,0L37.2,0L37.6,0L38,0L38.4,0L38.8,0L39.2,0L39.6,0L40,300L40.4,65.217L40.8,0L41.2,0L41.6,0L42,0L42.4,0L42.8,0L43.2,0L43.6,0L44,0L44.4,0L44.8,0L45.2,0L45.6,0L46,0L46.4,0L46.8,0L47.2,0L47.6,0L48,0L48.4,0L48.8,0L49.2,0L49.6,0L50,0L50.4,0L50.8,0L51.2,0L51.6,0L52,0L52.4,0L52.8,0L53.2,0L53.6,0L54,0L54.4,0L54.8,0L55.2,0L55.6,0L56,0L56.4,0L56.8,0L57.2,0L57.6,0L58,0L58.4,0L58.8,0L59.2,0L59.6,0L60,0L60.4,0L60.8,0L61.2,0L61.6,0L62,0L62.4,0L62.8,0L63.2,0L63.6,0L64,0L64.4,0L64.8,0L65.2,0L65.6,0L66,0L66.4,0L66.8,0L67.2,0L67.6,0L68,0L68.4,0L68.8,0L69.2,0L69.6,0L70,0L70.4,0L70.8,0L71.2,0L71.6,0L72,0L72.4,0L72.8,0L73.2,0L73.6,0L74,0L74.4,0L74.8,0L75.2,0L75.6,0L76,0L76.4,0L76.8,0L77.2,0L77.6,0L78,0L78.4,0L78.8,0L79.2,0L79.6,0L80,300L80.4,52.174L80.8,300L81.2,300L81.6,300L82,300L82.4,300L82.8,300L83.2,300L83.6,300L84,300L84.4,300L84.8,300L85.2,300L85.6,300L86,300L86.4,300L86.8,300L87.2,300L87.6,300L88,300L88.4,300L88.8,300L89.2,300L89.6,300L90,300L90.4,300L90.8,300L91.2,300L91.6,300L92,300L92.4,300L92.8,300L93.2,300L93.6,300L94,300L94.4,300L94.8,300L95.2,300L95.6,300L96,300L96.4,300L96.8,300L97.2,300L97.6,300L98,300L98.4,300L98.8,300L99.2,300L99.6,300L100,300L100.4,300L100.8,300L101.2,300L101.6,300L102,300L102.4,300L102.8,300L103.2,300L103.6,300L104,300L104.4,300L104.8,300L105.2,300L105.6,300L106,300L106.4,300L106.8,300L107.2,300L107.6,300L108,300L108.4,300L108.8,300L109.2,300L109.6,300L110,300L110.4,300L110.8,300L111.2,300L111.6,300L112,300L112.4,300L112.8,300L113.2,300L113.6,300L114,300L114.4,300L114.8,300L115.2,300L115.6,300L116,300L116.4,300L116.8,300L117.2,300L117.6,300L118,300L118.4,300L118.8,300L119.2,300L119.6,300L120,300L120.4,300L120.8,300L121.2,300L121.6,300L122,300L122.4,300L122.8,300L123.2,300L123.6,300L124,300L124.4,300L124.8,300L125.2,300L125.6,300L126,300L126.4,300L126.8,300L127.2,300L127.6,300L128,300L128.4,300L128.8,300L129.2,300L129.6,300L130,300L130.4,300L130.8,300L131.2,300L131.6,300L132,300L132.4,300L132.8,300L133.2,300L133.6,300L134,300L134.4,300L134.8,300L135.2,300L135.6,300L136,300L136.4,300L136.8,300L137.2,300L137.6,300L138,300L138.4,300L138.8,300L139.2,300L139.6,300L140,300L140.4,300L140.8,300L141.2,300L141.6,300L142,300L142.4,300L142.8,300L143.2,300L143.6,300L144,300L144.4,300L144.8,300L145.2,300L145.6,300L146,300L146.4,300L146.8,300L147.2,300L147.6,300L148,300L148.4,300L148.8,300L149.2,300L149.6,300L150,300L150.4,300L150.8,300L151.2,300L151.6,300L152,300L152.4,300L152.8,300L153.2,300L153.6,300L154,300L154.4,300L154.8,300L155.2,300L155.6,300L156,300L156.4,300L156.8,300L157.2,300L157.6,300L158,300L158.4,300L158.8,300L159.2,300L159.6,300L160,300L160.4,300L160.8,300L161.2,300L161.6,300L162,300L162.4,300L162.8,300L163.2,300L163.6,300L164,300L164.4,300L164.8,300L165.2,300L165.6,300L166,300L166.4,300L166.8,300L167.2,300L167.6,300L168,300L168.4,300L168.8,300L169.2,300L169.6,300L170,300L170.4,300L170.8,300L171.2,300L171.6,300L172,300L172.4,300L172.8,300L173.2,300L173.6,300L174,300L174.4,300L174.8,300L175.2,300L175.6,300L176,300L176.4,300L176.8,300L177.2,300L177.6,300L178,300L178.4,300L178.8,300L179.2,300L179.6,300L180,300L180.4,300L180.8,300L181.2,300L181.6,300L182,300L182.4,300L182.8,300L183.2,300L183.6,300L184,300L184.4,300L184.8,300L185.2,300L185.6,300L186,300L186.4,300L186.8,300L187.2,300L187.6,300L188,300L188.4,300L188.8,300L189.2,300L189.6,300L190,300L190.4,300L190.8,300L191.2,300L191.6,300L192,300L192.4,300L192.8,300L193.2,300L193.6,300L194,300L194.4,300L194.8,300L195.2,300L195.6,300L196,300L196.4,300L196.8,300L197.2,300L197.6,300L198,300L198.4,300L198.8,300L199.2,300L199.6,300L200,300L200.4,273.913L200.8,260.87L201.2,273.913L201.6,286.957L202,300L202.4,286.957L202.8,300L203.2,300L203.6,300L204,300L204.4,300L204.8,300L205.2,300L205.6,286.957L206,300L206.4,273.913L206.8,286.957L207.2,286.957L207.6,286.957L208,273.913L208.4,286.957L208.8,286.957L209.2,273.913L209.6,273.913L210,260.87L210.4,286.957L210.8,273.913L211.2,273.913L211.6,273.913L212,273.913L212.4,260.87L212.8,260.87L213.2,273.913L213.6,260.87L214,221.739L214.4,260.87L214.8,247.826L215.2,247.826L215.6,260.87L216,260.87L216.4,234.783L216.8,221.739L217.2,208.696L217.6,221.739L218,208.696L218.4,221.739L218.8,221.739L219.2,221.739L219.6,221.739L220,208.696L220.4,195.652L220.8,208.696L221.2,208.696L221.6,195.652L222,195.652L222.4,182.609L222.8,195.652L223.2,195.652L223.6,195.652L224,195.652L224.4,182.609L224.8,195.652L225.2,195.652L225.6,182.609L226,182.609L226.4,182.609L226.8,182.609L227.2,182.609L227.6,156.522L228,169.565L228.4,169.565L228.8,169.565L229.2,169.565L229.6,169.565L230,156.522L230.4,156.522L230.8,156.522L231.2,156.522L231.6,156.522L232,156.522L232.4,143.478L232.8,143.478L233.2,156.522L233.6,143.478L234,156.522L234.4,156.522L234.8,130.435L235.2,143.478L235.6,143.478L236,143.478L236.4,130.435L236.8,130.435L237.2,130.435L237.6,130.435L238,130.435L238.4,130.435L238.8,130.435L239.2,130.435L239.6,130.435L240,221.739L240.4,143.478L240.8,117.391L241.2,130.435L241.6,130.435L242,117.391L242.4,130.435L242.8,130.435L243.2,117.391L243.6,143.478L244,130.435L244.4,117.391L244.8,130.435L245.2,117.391L245.6,117.391L246,130.435L246.4,117.391L246.8,117.391L247.2,104.348L247.6,104.348L248,117.391L248.4,91.304L248.8,117.391L249.2,104.348L249.6,91.304L250,104.348L250.4,104.348L250.8,104.348L251.2,91.304L251.6,91.304L252,91.304L252.4,91.304L252.8,91.304L253.2,91.304L253.6,91.304L254,78.261L254.4,91.304L254.8,91.304L255.2,91.304L255.6,78.261L256,78.261L256.4,78.261L256.8,78.261L257.2,78.261L257.6,78.261L258,78.261L258.4,65.217L258.8,78.261L259.2,78.261L259.6,78.261L260,65.217L260.4,65.217L260.8,65.217L261.2,65.217L261.6,65.217L262,65.217L262.4,65.217L262.8,65.217L263.2,52.174L263.6,52.174L264,52.174L264.4,65.217L264.8,65.217L265.2,52.174L265.6,52.174L266,52.174L266.4,52.174L266.8,52.174L267.2,52.174L267.6,52.174L268,52.174L268.4,52.174L268.8,52.174L269.2,52.174L269.6,52.174L270,52.174L270.4,52.174L270.8,52.174L271.2,52.174L271.6,52.174L272,39.13L272.4,52.174L272.8,52.174L273.2,52.174L273.6,52.174L274,52.174L274.4,39.13L274.8,39.13L275.2,52.174L275.6,52.174L276,39.13L276.4,39.13L276.8,39.13L277.2,39.13L277.6,39.13L278,39.13L278.4,39.13L278.8,39.13L279.2,39.13L279.6,39.13L280,104.348L280.4,52.174L280.8,52.174L281.2,52.174L281.6,39.13L282,39.13L282.4,39.13L282.8,39.13L283.2,39.13L283.6,39.13L284,39.13L284.4,39.13L284.8,39.13L285.2,39.13L285.6,39.13L286,39.13L286.4,39.13L286.8,39.13L287.2,39.13L287.6,39.13L288,39.13L288.4,39.13L288.8,39.13L289.2,39.13L289.6,39.13L290,39.13L290.4,39.13L290.8,39.13L291.2,39.13L291.6,26.087L292,26.087L292.4,26.087L292.8,26.087L293.2,26.087L293.6,26.087L294,26.087L294.4,26.087L294.8,26.087L295.2,26.087L295.6,26.087L296,26.087L296.4,26.087L296.8,26.087L297.2,26.087L297.6,26.087L298,26.087L298.4,26.087L298.8,13.043L299.2,0L299.6,13.043L300,13.043L300.4,13.043L300.8,13.043L301.2,13.043L301.6,13.043L302,0L302.4,0L302.8,0L303.2,0L303.6,0L304,0L304.4,0L304.8,0L305.2,0L305.6,0L306,0L306.4,0L306.8,0L307.2,0L307.6,0L308,0L308.4,0L308.8,0L309.2,0L309.6,0L310,0L310.4,0L310.8,0L311.2,0L311.6,0L312,0L312.4,0L312.8,0L313.2,0L313.6,0L314,0L314.4,0L314.8,0L315.2,0L315.6,0L316,0L316.4,0L316.8,0L317.2,0L317.6,0L318,0L318.4,0L318.8,0L319.2,0L319.6,0L320,13.043L320.4,13.043L320.8,0L321.2,0L321.6,0L322,0L322.4,0L322.8,0L323.2,0L323.6,0L324,0L324.4,0L324.8,0L325.2,0L325.6,0L326,0L326.4,0L326.8,0L327.2,0L327.6,0L328,0L328.4,0L328.8,0L329.2,0L329.6,0L330,0L330.4,0L330.8,0L331.2,0L331.6,0L332,0L332.4,0L332.8,0L333.2,0L333.6,0L334,0L334.4,0L334.8,0L335.2,0L335.6,0L336,0L336.4,0L336.8,0L337.2,0L337.6,0L338,0L338.4,0L338.8,0L339.2,0L339.6,0L340,0L340.4,0L340.8,0L341.2,0L341.6,0L342,0L342.4,0L342.8,0L343.2,0L343.6,0L344,0L344.4,0L344.8,0L345.2,0L345.6,0L346,0L346.4,0L346.8,0L347.2,0L347.6,0L348,0L348.4,0L348.8,0L349.2,0L349.6,0L350,0L350.4,0L350.8,0L351.2,0L351.6,0L352,0L352.4,0L352.8,0L353.2,0L353.6,0L354,0L354.4,0L354.8,0L355.2,0L355.6,0L356,0L356.4,0L356.8,0L357.2,0L357.6,0L358,0L358.4,0L358.8,0L359.2,0L359.6,0L360,0L360.4,0L360.8,0L361.2,0L361.6,0L362,0L362.4,0L362.8,0L363.2,0L363.6,0L364,0L364.4,0L364.8,0L365.2,0L365.6,0L366,0L366.4,0L366.8,0L367.2,0L367.6,0L368,0L368.4,0L368.8,0L369.2,0L369.6,0L370,0L370.4,0L370.8,0L371.2,0L371.6,0L372,0L372.4,0L372.8,0L373.2,0L373.6,0L374,0L374.4,0L374.8,0L375.2,0L375.6,0L376,0L376.4,0L376.8,0L377.2,0L377.6,0L378,0L378.4,0L378.8,0L379.2,0L379.6,0L380,0L380.4,0L380.8,0L381.2,0L381.6,0L382,0L382.4,0L382.8,0L383.2,0L383.6,0L384,0L384.4,0L384.8,0L385.2,0L385.6,0L386,0L386.4,0L386.8,0L387.2,0L387.6,0L388,0L388.4,0L388.8,0L389.2,0L389.6,0L390,0L390.4,0L390.8,0L391.2,0L391.6,0L392,0L392.4,0L392.8,0L393.2,0L393.6,0L394,0L394.4,0L394.8,0L395.2,0L395.6,0L396,0L396.4,0L396.8,0L397.2,0L397.6,0L398,0L398.4,0L398.8,0L399.2,0L399.6,0L400,0" stroke="#f58518" stroke-width="2"/></g></g><path class="foreground" aria-hidden="true" d="" display="none"/></g></g><g class="mark-group role-legend" role="graphics-symbol" aria-roledescription="legend" aria-label="Symbol legend titled 'Reset' for stroke color with 2 values: 0, 100"><g transform="translate(420,0)"><path class="background" aria-hidden="true" d="M0,0h48v63h-48Z" pointer-events="none"/><g><g class="mark-group role-legend-entry"><g transform="translate(0,21)"><path class="background" aria-hidden="true" d="M0,0h0v0h0Z" pointer-events="none"/><g><g class="mark-group role-scope" role="graphics-object" aria-roledescription="group mark container"><g transform="translate(0,0)"><path class="background" aria-hidden="true" d="M0,0h47.3583984375v20h-47.3583984375Z" pointer-events="none" opacity="1"/><g><g class="mark-symbol role-legend-symbol" pointer-events="none"><path transform="translate(10,10)" d="M-5,0L5,0" stroke="#4c78a8" stroke-width="10" opacity="1"/></g><g class="mark-text role-legend-label" pointer-events="none"><text text-anchor="start" transform="translate(24,14)" font-family="sans-serif" font-size="14px" fill="#000" opacity="1">0</text></g></g><path class="foreground" aria-hidden="true" d="" pointer-events="none" display="none"/></g><g transform="translate(0,22)"><path class="background" aria-hidden="true" d="M0,0h47.3583984375v20h-47.3583984375Z" pointer-events="none" opacity="1"/><g><g class="mark-symbol role-legend-symbol" pointer-events="none"><path transform="translate(10,10)" d="M-5,0L5,0" stroke="#f58518" stroke-width="10" opacity="1"/></g><g class="mark-text role-legend-label" pointer-events="none"><text text-anchor="start" transform="translate(24,14)" font-family="sans-serif" font-size="14px" fill="#000" opacity="1">100</text></g></g><path class="foreground" aria-hidden="true" d="" pointer-events="none" display="none"/></g></g></g><path class="foreground" aria-hidden="true" d="" pointer-events="none" display="none"/></g></g><g class="mark-text role-legend-title" pointer-events="none"><text text-anchor="start" transform="translate(0,13)" font-family="sans-serif" font-size="16px" font-weight="bold" fill="#000" opacity="1">Reset</text></g></g><path class="foreground" aria-hidden="true" d="" pointer-events="none" display="none"/></g></g><g class="mark-group role-title"><g transform="translate(200,-29)"><path class="background" aria-hidden="true" d="M0,0h0v0h0Z" pointer-events="none"/><g><g class="mark-text role-title-text" role="graphics-symbol" aria-roledescription="title" aria-label="Title text 'Reward Overtime (LR=0.001)'" pointer-events="none"><text text-anchor="middle" transform="translate(0,14)" font-family="sans-serif" font-size="18px" font-weight="bold" fill="#000" opacity="1">Reward Overtime (LR=0.001)</text></g></g><path class="foreground" aria-hidden="true" d="" pointer-events="none" display="none"/></g></g></g><path class="foreground" aria-hidden="true" d="" display="none"/></g></g></g></svg>