<svg xmlns="http://www.w3.org/2000/svg" xmlns:xlink="http://www.w3.org/1999/xlink" version="1.1" class="marks" width="525" height="380" viewBox="0 0 525 380"><rect width="525" height="380" fill="white"/><g fill="none" stroke-miterlimit="10" transform="translate(52,34)"><g class="mark-group role-frame root" role="graphics-object" aria-roledescription="group mark container"><g transform="translate(0,0)"><path class="background" aria-hidden="true" d="M0.5,0.5h400v300h-400Z" stroke="#ddd"/><g><g class="mark-group role-axis" aria-hidden="true"><g transform="translate(0.5,300.5)"><path class="background" aria-hidden="true" d="M0,0h0v0h0Z" pointer-events="none"/><g><g class="mark-rule role-axis-grid" pointer-events="none"><line transform="translate(0,-300)" x2="0" y2="300" stroke="#ddd" stroke-width="1" opacity="1"/><line transform="translate(40,-300)" x2="0" y2="300" stroke="#ddd" stroke-width="1" opacity="1"/><line transform="translate(80,-300)" x2="0" y2="300" stroke="#ddd" stroke-width="1" opacity="1"/><line transform="translate(120,-300)" x2="0" y2="300" stroke="#ddd" stroke-width="1" opacity="1"/><line transform="translate(160,-300)" x2="0" y2="300" stroke="#ddd" stroke-width="1" opacity="1"/><line transform="translate(200,-300)" x2="0" y2="300" stroke="#ddd" stroke-width="1" opacity="1"/><line transform="translate(240,-300)" x2="0" y2="300" stroke="#ddd" stroke-width="1" opacity="1"/><line transform="translate(280,-300)" x2="0" y2="300" stroke="#ddd" stroke-width="1" opacity="1"/><line transform="translate(320,-300)" x2="0" y2="300" stroke="#ddd" stroke-width="1" opacity="1"/><line transform="translate(360,-300)" x2="0" y2="300" stroke="#ddd" stroke-width="1" opacity="1"/><line transform="translate(400,-300)" x2="0" y2="300" stroke="#ddd" stroke-width="1" opacity="1"/></g></g><path class="foreground" aria-hidden="true" d="" pointer-events="none" display="none"/></g></g><g class="mark-group role-axis" aria-hidden="true"><g transform="translate(0.5,0.5)"><path class="background" aria-hidden="true" d="M0,0h0v0h0Z" pointer-events="none"/><g><g class="mark-rule role-axis-grid" pointer-events="none"><line transform="translate(0,300)" x2="400" y2="0" stroke="#ddd" stroke-width="1" opacity="1"/><line transform="translate(0,270)" x2="400" y2="0" stroke="#ddd" stroke-width="1" opacity="1"/><line transform="translate(0,240)" x2="400" y2="0" stroke="#ddd" stroke-width="1" opacity="1"/><line transform="translate(0,210)" x2="400" y2="0" stroke="#ddd" stroke-width="1" opacity="1"/><line transform="translate(0,180)" x2="400" y2="0" stroke="#ddd" stroke-width="1" opacity="1"/><line transform="translate(0,150)" x2="400" y2="0" stroke="#ddd" stroke-width="1" opacity="1"/><line transform="translate(0,120)" x2="400" y2="0" stroke="#ddd" stroke-width="1" opacity="1"/><line transform="translate(0,90)" x2="400" y2="0" stroke="#ddd" stroke-width="1" opacity="1"/><line transform="translate(0,60)" x2="400" y2="0" stroke="#ddd" stroke-width="1" opacity="1"/><line transform="translate(0,30)" x2="400" y2="0" stroke="#ddd" stroke-width="1" opacity="1"/><line transform="translate(0,0)" x2="400" y2="0" stroke="#ddd" stroke-width="1" opacity="1"/></g></g><path class="foreground" aria-hidden="true" d="" pointer-events="none" display="none"/></g></g><g class="mark-group role-axis" role="graphics-symbol" aria-roledescription="axis" aria-label="X-axis titled 'Episode' for a linear scale with values from 0 to 1,000"><g transform="translate(0.5,300.5)"><path class="background" aria-hidden="true" d="M0,0h0v0h0Z" pointer-events="none"/><g><g class="mark-rule role-axis-tick" pointer-events="none"><line transform="translate(0,0)" x2="0" y2="5" stroke="#888" stroke-width="1" opacity="1"/><line transform="translate(40,0)" x2="0" y2="5" stroke="#888" stroke-width="1" opacity="1"/><line transform="translate(80,0)" x2="0" y2="5" stroke="#888" stroke-width="1" opacity="1"/><line transform="translate(120,0)" x2="0" y2="5" stroke="#888" stroke-width="1" opacity="1"/><line transform="translate(160,0)" x2="0" y2="5" stroke="#888" stroke-width="1" opacity="1"/><line transform="translate(200,0)" x2="0" y2="5" stroke="#888" stroke-width="1" opacity="1"/><line transform="translate(240,0)" x2="0" y2="5" stroke="#888" stroke-width="1" opacity="1"/><line transform="translate(280,0)" x2="0" y2="5" stroke="#888" stroke-width="1" opacity="1"/><line transform="translate(320,0)" x2="0" y2="5" stroke="#888" stroke-width="1" opacity="1"/><line transform="translate(360,0)" x2="0" y2="5" stroke="#888" stroke-width="1" opacity="1"/><line transform="translate(400,0)" x2="0" y2="5" stroke="#888" stroke-width="1" opacity="1"/></g><g class="mark-text role-axis-label" pointer-events="none"><text text-anchor="start" transform="translate(0,18)" font-family="sans-serif" font-size="14px" fill="#000" opacity="1">0</text><text text-anchor="middle" transform="translate(40,18)" font-family="sans-serif" font-size="14px" fill="#000" opacity="0">100</text><text text-anchor="middle" transform="translate(80,18)" font-family="sans-serif" font-size="14px" fill="#000" opacity="1">200</text><text text-anchor="middle" transform="translate(120,18)" font-family="sans-serif" font-size="14px" fill="#000" opacity="0">300</text><text text-anchor="middle" transform="translate(160,18)" font-family="sans-serif" font-size="14px" fill="#000" opacity="1">400</text><text text-anchor="middle" transform="translate(200,18)" font-family="sans-serif" font-size="14px" fill="#000" opacity="0">500</text><text text-anchor="middle" transform="translate(240,18)" font-family="sans-serif" font-size="14px" fill="#000" opacity="1">600</text><text text-anchor="middle" transform="translate(280,18)" font-family="sans-serif" font-size="14px" fill="#000" opacity="0">700</text><text text-anchor="middle" transform="translate(320,18)" font-family="sans-serif" font-size="14px" fill="#000" opacity="1">800</text><text text-anchor="middle" transform="translate(360,18)" font-family="sans-serif" font-size="14px" fill="#000" opacity="0">900</text><text text-anchor="end" transform="translate(400,18)" font-family="sans-serif" font-size="14px" fill="#000" opacity="1">1,000</text></g><g class="mark-rule role-axis-domain" pointer-events="none"><line transform="translate(0,0)" x2="400" y2="0" stroke="#888" stroke-width="1" opacity="1"/></g><g class="mark-text role-axis-title" pointer-events="none"><text text-anchor="middle" transform="translate(200,38)" font-family="sans-serif" font-size="16px" font-weight="bold" fill="#000" opacity="1">Episode</text></g></g><path class="foreground" aria-hidden="true" d="" pointer-events="none" display="none"/></g></g><g class="mark-group role-axis" role="graphics-symbol" aria-roledescription="axis" aria-label="Y-axis titled 'Reward' for a linear scale with values from 0.0 to 1.0"><g transform="translate(0.5,0.5)"><path class="background" aria-hidden="true" d="M0,0h0v0h0Z" pointer-events="none"/><g><g class="mark-rule role-axis-tick" pointer-events="none"><line transform="translate(0,300)" x2="-5" y2="0" stroke="#888" stroke-width="1" opacity="1"/><line transform="translate(0,270)" x2="-5" y2="0" stroke="#888" stroke-width="1" opacity="1"/><line transform="translate(0,240)" x2="-5" y2="0" stroke="#888" stroke-width="1" opacity="1"/><line transform="translate(0,210)" x2="-5" y2="0" stroke="#888" stroke-width="1" opacity="1"/><line transform="translate(0,180)" x2="-5" y2="0" stroke="#888" stroke-width="1" opacity="1"/><line transform="translate(0,150)" x2="-5" y2="0" stroke="#888" stroke-width="1" opacity="1"/><line transform="translate(0,120)" x2="-5" y2="0" stroke="#888" stroke-width="1" opacity="1"/><line transform="translate(0,90)" x2="-5" y2="0" stroke="#888" stroke-width="1" opacity="1"/><line transform="translate(0,60)" x2="-5" y2="0" stroke="#888" stroke-width="1" opacity="1"/><line transform="translate(0,30)" x2="-5" y2="0" stroke="#888" stroke-width="1" opacity="1"/><line transform="translate(0,0)" x2="-5" y2="0" stroke="#888" stroke-width="1" opacity="1"/></g><g class="mark-text role-axis-label" pointer-events="none"><text text-anchor="end" transform="translate(-7,304)" font-family="sans-serif" font-size="14px" fill="#000" opacity="1">0.0</text><text text-anchor="end" transform="translate(-7,274)" font-family="sans-serif" font-size="14px" fill="#000" opacity="1">0.1</text><text text-anchor="end" transform="translate(-7,244)" font-family="sans-serif" font-size="14px" fill="#000" opacity="1">0.2</text><text text-anchor="end" transform="translate(-7,214)" font-family="sans-serif" font-size="14px" fill="#000" opacity="1">0.3</text><text text-anchor="end" transform="translate(-7,184)" font-family="sans-serif" font-size="14px" fill="#000" opacity="1">0.4</text><text text-anchor="end" transform="translate(-7,154)" font-family="sans-serif" font-size="14px" fill="#000" opacity="1">0.5</text><text text-anchor="end" transform="translate(-7,124)" font-family="sans-serif" font-size="14px" fill="#000" opacity="1">0.6</text><text text-anchor="end" transform="translate(-7,94.00000000000001)" font-family="sans-serif" font-size="14px" fill="#000" opacity="1">0.7</text><text text-anchor="end" transform="translate(-7,63.999999999999986)" font-family="sans-serif" font-size="14px" fill="#000" opacity="1">0.8</text><text text-anchor="end" transform="translate(-7,33.99999999999999)" font-family="sans-serif" font-size="14px" fill="#000" opacity="1">0.9</text><text text-anchor="end" transform="translate(-7,4)" font-family="sans-serif" font-size="14px" fill="#000" opacity="1">1.0</text></g><g class="mark-rule role-axis-domain" pointer-events="none"><line transform="translate(0,300)" x2="0" y2="-300" stroke="#888" stroke-width="1" opacity="1"/></g><g class="mark-text role-axis-title" pointer-events="none"><text text-anchor="middle" transform="translate(-30.4619140625,150) rotate(-90) translate(0,-3)" font-family="sans-serif" font-size="16px" font-weight="bold" fill="#000" opacity="1">Reward</text></g></g><path class="foreground" aria-hidden="true" d="" pointer-events="none" display="none"/></g></g><g class="mark-group role-scope pathgroup" role="graphics-object" aria-roledescription="group mark container"><g transform="translate(0,0)"><path class="background" aria-hidden="true" d="M0,0h400v300h-400Z"/><g><g class="mark-line role-mark marks" role="graphics-object" aria-roledescription="line mark container"><path aria-label="Episode: 1; Reward: 0; Reset: 0" role="graphics-symbol" aria-roledescription="line mark" d="M0.4,300L0.8,300L1.2,300L1.6,300L2,300L2.4,300L2.8,300L3.2,300L3.6,300L4,300L4.4,300L4.8,300L5.2,300L5.6,300L6,300L6.4,300L6.8,300L7.2,300L7.6,273.913L8,260.87L8.4,182.609L8.8,104.348L9.2,52.174L9.6,52.174L10,26.087L10.4,26.087L10.8,0L11.2,0L11.6,0L12,0L12.4,0L12.8,0L13.2,0L13.6,0L14,0L14.4,0L14.8,0L15.2,0L15.6,0L16,0L16.4,0L16.8,0L17.2,0L17.6,0L18,0L18.4,0L18.8,0L19.2,0L19.6,0L20,0L20.4,0L20.8,0L21.2,0L21.6,0L22,0L22.4,0L22.8,0L23.2,0L23.6,0L24,0L24.4,0L24.8,0L25.2,0L25.6,0L26,0L26.4,0L26.8,0L27.2,0L27.6,0L28,0L28.4,0L28.8,0L29.2,0L29.6,0L30,0L30.4,0L30.8,0L31.2,0L31.6,0L32,0L32.4,0L32.8,0L33.2,0L33.6,0L34,0L34.4,0L34.8,0L35.2,0L35.6,0L36,0L36.4,0L36.8,0L37.2,0L37.6,0L38,0L38.4,0L38.8,0L39.2,0L39.6,0L40,0L40.4,0L40.8,0L41.2,0L41.6,0L42,0L42.4,0L42.8,0L43.2,0L43.6,0L44,0L44.4,0L44.8,0L45.2,0L45.6,0L46,0L46.4,0L46.8,0L47.2,0L47.6,0L48,0L48.4,0L48.8,0L49.2,0L49.6,0L50,0L50.4,0L50.8,0L51.2,0L51.6,0L52,0L52.4,0L52.8,0L53.2,0L53.6,0L54,0L54.4,0L54.8,0L55.2,0L55.6,0L56,0L56.4,0L56.8,0L57.2,0L57.6,0L58,0L58.4,0L58.8,0L59.2,0L59.6,0L60,0L60.4,0L60.8,0L61.2,0L61.6,0L62,0L62.4,0L62.8,0L63.2,0L63.6,0L64,0L64.4,0L64.8,0L65.2,0L65.6,0L66,0L66.4,0L66.8,0L67.2,0L67.6,0L68,0L68.4,0L68.8,0L69.2,0L69.6,0L70,0L70.4,0L70.8,0L71.2,0L71.6,0L72,0L72.4,0L72.8,0L73.2,0L73.6,0L74,0L74.4,0L74.8,0L75.2,0L75.6,0L76,0L76.4,0L76.8,0L77.2,0L77.6,0L78,0L78.4,0L78.8,0L79.2,0L79.6,0L80,0L80.4,0L80.8,300L81.2,300L81.6,300L82,300L82.4,300L82.8,300L83.2,300L83.6,300L84,300L84.4,300L84.8,300L85.2,300L85.6,300L86,300L86.4,300L86.8,300L87.2,300L87.6,300L88,300L88.4,300L88.8,300L89.2,300L89.6,300L90,300L90.4,300L90.8,300L91.2,300L91.6,300L92,300L92.4,300L92.8,300L93.2,300L93.6,300L94,300L94.4,300L94.8,300L95.2,300L95.6,300L96,300L96.4,300L96.8,300L97.2,300L97.6,300L98,300L98.4,300L98.8,300L99.2,300L99.6,300L100,300L100.4,300L100.8,300L101.2,300L101.6,300L102,300L102.4,300L102.8,300L103.2,300L103.6,300L104,300L104.4,300L104.8,300L105.2,300L105.6,300L106,300L106.4,300L106.8,300L107.2,300L107.6,300L108,300L108.4,300L108.8,300L109.2,300L109.6,300L110,300L110.4,300L110.8,300L111.2,300L111.6,300L112,300L112.4,300L112.8,300L113.2,300L113.6,300L114,300L114.4,300L114.8,300L115.2,300L115.6,300L116,300L116.4,300L116.8,300L117.2,300L117.6,300L118,300L118.4,300L118.8,300L119.2,300L119.6,300L120,300L120.4,300L120.8,300L121.2,300L121.6,300L122,300L122.4,300L122.8,300L123.2,300L123.6,300L124,300L124.4,300L124.8,300L125.2,300L125.6,300L126,300L126.4,300L126.8,300L127.2,300L127.6,300L128,300L128.4,300L128.8,300L129.2,300L129.6,300L130,300L130.4,300L130.8,300L131.2,300L131.6,300L132,300L132.4,300L132.8,300L133.2,300L133.6,300L134,300L134.4,300L134.8,300L135.2,300L135.6,300L136,300L136.4,300L136.8,300L137.2,300L137.6,300L138,300L138.4,300L138.8,300L139.2,300L139.6,300L140,300L140.4,300L140.8,300L141.2,300L141.6,300L142,300L142.4,300L142.8,300L143.2,300L143.6,300L144,300L144.4,300L144.8,300L145.2,300L145.6,300L146,300L146.4,300L146.8,300L147.2,300L147.6,300L148,300L148.4,300L148.8,300L149.2,300L149.6,300L150,300L150.4,300L150.8,300L151.2,300L151.6,300L152,300L152.4,300L152.8,300L153.2,300L153.6,300L154,300L154.4,300L154.8,300L155.2,300L155.6,300L156,300L156.4,300L156.8,300L157.2,300L157.6,300L158,300L158.4,300L158.8,300L159.2,300L159.6,300L160,300L160.4,300L160.8,300L161.2,300L161.6,300L162,300L162.4,300L162.8,300L163.2,300L163.6,300L164,300L164.4,300L164.8,300L165.2,300L165.6,300L166,300L166.4,300L166.8,300L167.2,300L167.6,300L168,300L168.4,300L168.8,300L169.2,300L169.6,300L170,300L170.4,300L170.8,300L171.2,300L171.6,300L172,300L172.4,300L172.8,300L173.2,300L173.6,300L174,300L174.4,300L174.8,300L175.2,300L175.6,300L176,300L176.4,300L176.8,300L177.2,300L177.6,300L178,300L178.4,300L178.8,300L179.2,300L179.6,300L180,300L180.4,300L180.8,300L181.2,300L181.6,300L182,300L182.4,300L182.8,300L183.2,300L183.6,300L184,300L184.4,300L184.8,300L185.2,300L185.6,300L186,300L186.4,300L186.8,300L187.2,300L187.6,300L188,300L188.4,300L188.8,300L189.2,300L189.6,300L190,300L190.4,300L190.8,300L191.2,300L191.6,300L192,300L192.4,300L192.8,300L193.2,300L193.6,300L194,300L194.4,300L194.8,300L195.2,300L195.6,300L196,300L196.4,300L196.8,300L197.2,300L197.6,300L198,300L198.4,300L198.8,300L199.2,300L199.6,300L200,300L200.4,300L200.8,300L201.2,300L201.6,300L202,300L202.4,300L202.8,300L203.2,300L203.6,300L204,300L204.4,300L204.8,300L205.2,300L205.6,300L206,300L206.4,300L206.8,300L207.2,300L207.6,300L208,300L208.4,300L208.8,300L209.2,300L209.6,300L210,300L210.4,300L210.8,300L211.2,300L211.6,300L212,300L212.4,300L212.8,300L213.2,300L213.6,300L214,300L214.4,300L214.8,300L215.2,300L215.6,300L216,300L216.4,300L216.8,300L217.2,300L217.6,300L218,300L218.4,300L218.8,300L219.2,300L219.6,300L220,300L220.4,300L220.8,300L221.2,300L221.6,300L222,300L222.4,300L222.8,300L223.2,300L223.6,300L224,300L224.4,300L224.8,300L225.2,300L225.6,300L226,300L226.4,300L226.8,300L227.2,300L227.6,300L228,300L228.4,300L228.8,300L229.2,300L229.6,300L230,300L230.4,300L230.8,300L231.2,300L231.6,300L232,300L232.4,300L232.8,300L233.2,300L233.6,300L234,300L234.4,300L234.8,300L235.2,300L235.6,300L236,300L236.4,300L236.8,300L237.2,300L237.6,300L238,300L238.4,300L238.8,300L239.2,300L239.6,300L240,300L240.4,300L240.8,300L241.2,300L241.6,300L242,300L242.4,300L242.8,300L243.2,300L243.6,300L244,300L244.4,300L244.8,300L245.2,300L245.6,300L246,300L246.4,300L246.8,300L247.2,300L247.6,300L248,300L248.4,300L248.8,300L249.2,300L249.6,300L250,300L250.4,300L250.8,300L251.2,300L251.6,300L252,300L252.4,300L252.8,300L253.2,300L253.6,300L254,300L254.4,300L254.8,300L255.2,300L255.6,300L256,300L256.4,300L256.8,273.913L257.2,286.957L257.6,300L258,300L258.4,300L258.8,300L259.2,300L259.6,300L260,286.957L260.4,286.957L260.8,286.957L261.2,273.913L261.6,300L262,273.913L262.4,247.826L262.8,247.826L263.2,260.87L263.6,260.87L264,247.826L264.4,260.87L264.8,221.739L265.2,247.826L265.6,247.826L266,247.826L266.4,234.783L266.8,247.826L267.2,247.826L267.6,247.826L268,234.783L268.4,247.826L268.8,234.783L269.2,247.826L269.6,247.826L270,247.826L270.4,247.826L270.8,247.826L271.2,247.826L271.6,247.826L272,247.826L272.4,234.783L272.8,247.826L273.2,234.783L273.6,234.783L274,234.783L274.4,247.826L274.8,234.783L275.2,208.696L275.6,234.783L276,234.783L276.4,247.826L276.8,234.783L277.2,234.783L277.6,234.783L278,234.783L278.4,234.783L278.8,234.783L279.2,234.783L279.6,234.783L280,234.783L280.4,234.783L280.8,234.783L281.2,221.739L281.6,234.783L282,234.783L282.4,234.783L282.8,234.783L283.2,234.783L283.6,234.783L284,234.783L284.4,234.783L284.8,234.783L285.2,234.783L285.6,234.783L286,234.783L286.4,221.739L286.8,234.783L287.2,221.739L287.6,234.783L288,234.783L288.4,234.783L288.8,221.739L289.2,234.783L289.6,234.783L290,234.783L290.4,221.739L290.8,234.783L291.2,221.739L291.6,234.783L292,234.783L292.4,234.783L292.8,234.783L293.2,208.696L293.6,234.783L294,234.783L294.4,234.783L294.8,234.783L295.2,221.739L295.6,234.783L296,234.783L296.4,234.783L296.8,234.783L297.2,234.783L297.6,234.783L298,234.783L298.4,234.783L298.8,234.783L299.2,234.783L299.6,234.783L300,234.783L300.4,234.783L300.8,234.783L301.2,234.783L301.6,234.783L302,234.783L302.4,234.783L302.8,221.739L303.2,234.783L303.6,234.783L304,221.739L304.4,234.783L304.8,234.783L305.2,234.783L305.6,234.783L306,234.783L306.4,234.783L306.8,234.783L307.2,234.783L307.6,221.739L308,221.739L308.4,221.739L308.8,221.739L309.2,195.652L309.6,221.739L310,208.696L310.4,221.739L310.8,221.739L311.2,221.739L311.6,221.739L312,208.696L312.4,221.739L312.8,221.739L313.2,208.696L313.6,208.696L314,208.696L314.4,208.696L314.8,208.696L315.2,208.696L315.6,208.696L316,195.652L316.4,195.652L316.8,195.652L317.2,195.652L317.6,195.652L318,169.565L318.4,182.609L318.8,169.565L319.2,195.652L319.6,195.652L320,169.565L320.4,169.565L320.8,182.609L321.2,169.565L321.6,169.565L322,169.565L322.4,143.478L322.8,156.522L323.2,169.565L323.6,169.565L324,169.565L324.4,169.565L324.8,156.522L325.2,169.565L325.6,169.565L326,169.565L326.4,169.565L326.8,169.565L327.2,169.565L327.6,169.565L328,169.565L328.4,169.565L328.8,169.565L329.2,169.565L329.6,169.565L330,169.565L330.4,169.565L330.8,169.565L331.2,156.522L331.6,169.565L332,169.565L332.4,169.565L332.8,169.565L333.2,169.565L333.6,169.565L334,169.565L334.4,169.565L334.8,169.565L335.2,169.565L335.6,169.565L336,169.565L336.4,169.565L336.8,169.565L337.2,169.565L337.6,169.565L338,169.565L338.4,169.565L338.8,169.565L339.2,169.565L339.6,156.522L340,169.565L340.4,169.565L340.8,156.522L341.2,169.565L341.6,169.565L342,169.565L342.4,169.565L342.8,169.565L343.2,169.565L343.6,169.565L344,169.565L344.4,156.522L344.8,156.522L345.2,169.565L345.6,169.565L346,156.522L346.4,169.565L346.8,169.565L347.2,169.565L347.6,169.565L348,169.565L348.4,169.565L348.8,169.565L349.2,169.565L349.6,156.522L350,169.565L350.4,169.565L350.8,156.522L351.2,169.565L351.6,169.565L352,169.565L352.4,169.565L352.8,169.565L353.2,169.565L353.6,169.565L354,169.565L354.4,156.522L354.8,169.565L355.2,169.565L355.6,169.565L356,169.565L356.4,169.565L356.8,156.522L357.2,169.565L357.6,169.565L358,156.522L358.4,169.565L358.8,169.565L359.2,169.565L359.6,169.565L360,169.565L360.4,169.565L360.8,169.565L361.2,156.522L361.6,169.565L362,169.565L362.4,169.565L362.8,169.565L363.2,169.565L363.6,169.565L364,169.565L364.4,169.565L364.8,169.565L365.2,169.565L365.6,156.522L366,156.522L366.4,169.565L366.8,169.565L367.2,169.565L367.6,169.565L368,156.522L368.4,143.478L368.8,169.565L369.2,169.565L369.6,169.565L370,156.522L370.4,169.565L370.8,169.565L371.2,169.565L371.6,169.565L372,169.565L372.4,169.565L372.8,169.565L373.2,169.565L373.6,169.565L374,169.565L374.4,156.522L374.8,169.565L375.2,169.565L375.6,169.565L376,169.565L376.4,169.565L376.8,169.565L377.2,169.565L377.6,169.565L378,169.565L378.4,169.565L378.8,169.565L379.2,169.565L379.6,169.565L380,169.565L380.4,169.565L380.8,169.565L381.2,169.565L381.6,169.565L382,169.565L382.4,169.565L382.8,169.565L383.2,156.522L383.6,169.565L384,169.565L384.4,156.522L384.8,169.565L385.2,156.522L385.6,169.565L386,169.565L386.4,169.565L386.8,169.565L387.2,169.565L387.6,169.565L388,169.565L388.4,169.565L388.8,169.565L389.2,169.565L389.6,156.522L390,169.565L390.4,169.565L390.8,169.565L391.2,169.565L391.6,156.522L392,156.522L392.4,156.522L392.8,169.565L393.2,169.565L393.6,156.522L394,156.522L394.4,156.522L394.8,169.565L395.2,169.565L395.6,169.565L396,169.565L396.4,169.565L396.8,169.565L397.2,156.522L397.6,169.565L398,169.565L398.4,169.565L398.8,169.565L399.2,169.565L399.6,169.565L400,169.565" stroke="#4c78a8" stroke-width="2"/></g></g><path class="foreground" aria-hidden="true" d="" display="none"/></g><g transform="translate(0,0)"><path class="background" aria-hidden="true" d="M0,0h400v300h-400Z"/><g><g class="mark-line role-mark marks" role="graphics-object" aria-roledescription="line mark container"><path aria-label="Episode: 1; Reward: 0.130434782609; Reset: 100" role="graphics-symbol" aria-roledescription="line mark" d="M0.4,260.87L0.8,260.87L1.2,260.87L1.6,260.87L2,260.87L2.4,260.87L2.8,260.87L3.2,260.87L3.6,260.87L4,260.87L4.4,260.87L4.8,260.87L5.2,260.87L5.6,260.87L6,260.87L6.4,260.87L6.8,260.87L7.2,260.87L7.6,234.783L8,208.696L8.4,182.609L8.8,117.391L9.2,78.261L9.6,65.217L10,65.217L10.4,39.13L10.8,39.13L11.2,39.13L11.6,26.087L12,26.087L12.4,26.087L12.8,26.087L13.2,26.087L13.6,0L14,13.043L14.4,0L14.8,0L15.2,0L15.6,0L16,0L16.4,0L16.8,0L17.2,0L17.6,0L18,0L18.4,0L18.8,0L19.2,0L19.6,0L20,0L20.4,0L20.8,0L21.2,0L21.6,0L22,0L22.4,0L22.8,0L23.2,0L23.6,0L24,0L24.4,0L24.8,0L25.2,0L25.6,0L26,0L26.4,0L26.8,0L27.2,0L27.6,0L28,0L28.4,0L28.8,0L29.2,0L29.6,0L30,0L30.4,0L30.8,0L31.2,0L31.6,0L32,0L32.4,0L32.8,0L33.2,0L33.6,0L34,0L34.4,0L34.8,0L35.2,0L35.6,0L36,0L36.4,0L36.8,0L37.2,0L37.6,0L38,0L38.4,0L38.8,0L39.2,0L39.6,0L40,286.957L40.4,0L40.8,0L41.2,0L41.6,0L42,0L42.4,0L42.8,0L43.2,0L43.6,0L44,0L44.4,0L44.8,0L45.2,0L45.6,0L46,0L46.4,0L46.8,0L47.2,0L47.6,0L48,0L48.4,0L48.8,0L49.2,0L49.6,0L50,0L50.4,0L50.8,0L51.2,0L51.6,0L52,0L52.4,0L52.8,0L53.2,0L53.6,0L54,0L54.4,0L54.8,0L55.2,0L55.6,0L56,0L56.4,0L56.8,0L57.2,0L57.6,0L58,0L58.4,0L58.8,0L59.2,0L59.6,0L60,0L60.4,0L60.8,0L61.2,0L61.6,0L62,0L62.4,0L62.8,0L63.2,0L63.6,0L64,0L64.4,0L64.8,0L65.2,0L65.6,0L66,0L66.4,0L66.8,0L67.2,0L67.6,0L68,0L68.4,0L68.8,0L69.2,0L69.6,0L70,13.043L70.4,0L70.8,0L71.2,0L71.6,0L72,0L72.4,0L72.8,0L73.2,0L73.6,0L74,0L74.4,0L74.8,0L75.2,0L75.6,0L76,0L76.4,0L76.8,0L77.2,0L77.6,0L78,0L78.4,0L78.8,0L79.2,0L79.6,0L80,286.957L80.4,0L80.8,300L81.2,300L81.6,300L82,300L82.4,300L82.8,300L83.2,300L83.6,300L84,300L84.4,300L84.8,300L85.2,300L85.6,300L86,300L86.4,300L86.8,300L87.2,300L87.6,300L88,300L88.4,300L88.8,300L89.2,300L89.6,300L90,300L90.4,300L90.8,300L91.2,300L91.6,300L92,300L92.4,300L92.8,300L93.2,300L93.6,300L94,300L94.4,300L94.8,300L95.2,300L95.6,300L96,300L96.4,300L96.8,300L97.2,300L97.6,300L98,300L98.4,300L98.8,300L99.2,300L99.6,300L100,300L100.4,300L100.8,300L101.2,300L101.6,300L102,300L102.4,300L102.8,300L103.2,300L103.6,300L104,300L104.4,300L104.8,300L105.2,300L105.6,300L106,300L106.4,300L106.8,300L107.2,300L107.6,300L108,300L108.4,300L108.8,300L109.2,300L109.6,300L110,300L110.4,300L110.8,300L111.2,300L111.6,300L112,300L112.4,300L112.8,300L113.2,300L113.6,300L114,300L114.4,300L114.8,300L115.2,300L115.6,300L116,300L116.4,300L116.8,286.957L117.2,300L117.6,286.957L118,300L118.4,300L118.8,300L119.2,300L119.6,300L120,182.609L120.4,300L120.8,300L121.2,300L121.6,300L122,300L122.4,300L122.8,300L123.2,300L123.6,300L124,300L124.4,300L124.8,300L125.2,300L125.6,300L126,300L126.4,300L126.8,300L127.2,300L127.6,300L128,300L128.4,300L128.8,300L129.2,300L129.6,300L130,300L130.4,300L130.8,300L131.2,300L131.6,300L132,300L132.4,300L132.8,300L133.2,300L133.6,300L134,300L134.4,300L134.8,300L135.2,300L135.6,300L136,300L136.4,300L136.8,300L137.2,300L137.6,300L138,300L138.4,300L138.8,300L139.2,300L139.6,300L140,300L140.4,300L140.8,300L141.2,300L141.6,300L142,300L142.4,300L142.8,300L143.2,300L143.6,300L144,300L144.4,300L144.8,300L145.2,300L145.6,300L146,300L146.4,300L146.8,300L147.2,300L147.6,300L148,300L148.4,300L148.8,300L149.2,300L149.6,300L150,300L150.4,300L150.8,300L151.2,300L151.6,300L152,300L152.4,300L152.8,300L153.2,300L153.6,300L154,300L154.4,300L154.8,300L155.2,300L155.6,300L156,300L156.4,300L156.8,300L157.2,300L157.6,300L158,300L158.4,300L158.8,300L159.2,300L159.6,300L160,221.739L160.4,286.957L160.8,300L161.2,300L161.6,300L162,300L162.4,300L162.8,300L163.2,300L163.6,300L164,300L164.4,300L164.8,300L165.2,300L165.6,300L166,300L166.4,300L166.8,300L167.2,300L167.6,300L168,300L168.4,300L168.8,300L169.2,300L169.6,300L170,300L170.4,300L170.8,300L171.2,300L171.6,300L172,300L172.4,300L172.8,300L173.2,300L173.6,300L174,300L174.4,300L174.8,300L175.2,300L175.6,300L176,300L176.4,300L176.8,300L177.2,300L177.6,300L178,300L178.4,300L178.8,300L179.2,300L179.6,300L180,300L180.4,300L180.8,300L181.2,300L181.6,300L182,300L182.4,300L182.8,300L183.2,286.957L183.6,300L184,300L184.4,300L184.8,300L185.2,300L185.6,300L186,300L186.4,300L186.8,300L187.2,300L187.6,300L188,300L188.4,300L188.8,300L189.2,300L189.6,300L190,300L190.4,300L190.8,300L191.2,300L191.6,300L192,300L192.4,300L192.8,300L193.2,300L193.6,300L194,300L194.4,300L194.8,300L195.2,300L195.6,300L196,300L196.4,300L196.8,286.957L197.2,300L197.6,300L198,300L198.4,300L198.8,300L199.2,300L199.6,300L200,221.739L200.4,273.913L200.8,300L201.2,286.957L201.6,300L202,300L202.4,286.957L202.8,286.957L203.2,300L203.6,300L204,286.957L204.4,300L204.8,273.913L205.2,273.913L205.6,300L206,286.957L206.4,273.913L206.8,273.913L207.2,286.957L207.6,260.87L208,247.826L208.4,247.826L208.8,247.826L209.2,247.826L209.6,234.783L210,247.826L210.4,247.826L210.8,234.783L211.2,247.826L211.6,234.783L212,247.826L212.4,247.826L212.8,234.783L213.2,221.739L213.6,221.739L214,221.739L214.4,221.739L214.8,221.739L215.2,221.739L215.6,221.739L216,221.739L216.4,221.739L216.8,221.739L217.2,221.739L217.6,208.696L218,195.652L218.4,208.696L218.8,208.696L219.2,208.696L219.6,208.696L220,182.609L220.4,208.696L220.8,195.652L221.2,195.652L221.6,182.609L222,169.565L222.4,169.565L222.8,169.565L223.2,156.522L223.6,169.565L224,169.565L224.4,182.609L224.8,169.565L225.2,156.522L225.6,169.565L226,169.565L226.4,169.565L226.8,156.522L227.2,156.522L227.6,156.522L228,143.478L228.4,143.478L228.8,143.478L229.2,156.522L229.6,156.522L230,143.478L230.4,143.478L230.8,143.478L231.2,130.435L231.6,143.478L232,143.478L232.4,143.478L232.8,143.478L233.2,143.478L233.6,130.435L234,130.435L234.4,130.435L234.8,117.391L235.2,117.391L235.6,117.391L236,117.391L236.4,117.391L236.8,117.391L237.2,117.391L237.6,117.391L238,117.391L238.4,117.391L238.8,117.391L239.2,117.391L239.6,117.391L240,273.913L240.4,156.522L240.8,104.348L241.2,91.304L241.6,104.348L242,104.348L242.4,104.348L242.8,91.304L243.2,104.348L243.6,104.348L244,91.304L244.4,104.348L244.8,104.348L245.2,104.348L245.6,78.261L246,78.261L246.4,78.261L246.8,78.261L247.2,78.261L247.6,39.13L248,52.174L248.4,52.174L248.8,65.217L249.2,65.217L249.6,65.217L250,65.217L250.4,65.217L250.8,52.174L251.2,52.174L251.6,39.13L252,52.174L252.4,52.174L252.8,52.174L253.2,52.174L253.6,52.174L254,52.174L254.4,39.13L254.8,39.13L255.2,39.13L255.6,39.13L256,39.13L256.4,39.13L256.8,39.13L257.2,39.13L257.6,39.13L258,39.13L258.4,39.13L258.8,39.13L259.2,39.13L259.6,39.13L260,39.13L260.4,39.13L260.8,39.13L261.2,39.13L261.6,39.13L262,39.13L262.4,39.13L262.8,39.13L263.2,39.13L263.6,39.13L264,39.13L264.4,39.13L264.8,39.13L265.2,39.13L265.6,39.13L266,39.13L266.4,39.13L266.8,39.13L267.2,39.13L267.6,39.13L268,39.13L268.4,39.13L268.8,39.13L269.2,39.13L269.6,39.13L270,39.13L270.4,39.13L270.8,39.13L271.2,39.13L271.6,39.13L272,39.13L272.4,39.13L272.8,39.13L273.2,39.13L273.6,39.13L274,39.13L274.4,39.13L274.8,39.13L275.2,39.13L275.6,39.13L276,39.13L276.4,39.13L276.8,39.13L277.2,39.13L277.6,39.13L278,39.13L278.4,39.13L278.8,39.13L279.2,39.13L279.6,39.13L280,273.913L280.4,26.087L280.8,39.13L281.2,26.087L281.6,39.13L282,26.087L282.4,26.087L282.8,26.087L283.2,26.087L283.6,26.087L284,26.087L284.4,26.087L284.8,26.087L285.2,13.043L285.6,26.087L286,26.087L286.4,26.087L286.8,26.087L287.2,26.087L287.6,26.087L288,26.087L288.4,26.087L288.8,26.087L289.2,26.087L289.6,26.087L290,26.087L290.4,26.087L290.8,26.087L291.2,26.087L291.6,26.087L292,26.087L292.4,26.087L292.8,26.087L293.2,26.087L293.6,26.087L294,26.087L294.4,26.087L294.8,26.087L295.2,26.087L295.6,26.087L296,26.087L296.4,26.087L296.8,26.087L297.2,26.087L297.6,26.087L298,26.087L298.4,26.087L298.8,26.087L299.2,26.087L299.6,26.087L300,26.087L300.4,26.087L300.8,26.087L301.2,26.087L301.6,26.087L302,26.087L302.4,26.087L302.8,26.087L303.2,26.087L303.6,26.087L304,26.087L304.4,26.087L304.8,26.087L305.2,13.043L305.6,13.043L306,26.087L306.4,26.087L306.8,26.087L307.2,13.043L307.6,13.043L308,13.043L308.4,13.043L308.8,13.043L309.2,13.043L309.6,13.043L310,13.043L310.4,13.043L310.8,13.043L311.2,13.043L311.6,13.043L312,13.043L312.4,13.043L312.8,13.043L313.2,13.043L313.6,13.043L314,13.043L314.4,13.043L314.8,13.043L315.2,13.043L315.6,13.043L316,13.043L316.4,13.043L316.8,13.043L317.2,13.043L317.6,13.043L318,13.043L318.4,13.043L318.8,13.043L319.2,13.043L319.6,13.043L320,273.913L320.4,13.043L320.8,0L321.2,0L321.6,0L322,13.043L322.4,0L322.8,0L323.2,0L323.6,0L324,0L324.4,0L324.8,0L325.2,0L325.6,0L326,0L326.4,0L326.8,0L327.2,0L327.6,0L328,0L328.4,0L328.8,0L329.2,0L329.6,0L330,0L330.4,0L330.8,0L331.2,0L331.6,0L332,0L332.4,0L332.8,0L333.2,0L333.6,0L334,0L334.4,0L334.8,0L335.2,0L335.6,0L336,0L336.4,0L336.8,0L337.2,0L337.6,0L338,0L338.4,0L338.8,0L339.2,0L339.6,0L340,0L340.4,0L340.8,0L341.2,0L341.6,0L342,0L342.4,0L342.8,0L343.2,0L343.6,0L344,0L344.4,0L344.8,0L345.2,0L345.6,0L346,0L346.4,0L346.8,0L347.2,0L347.6,0L348,0L348.4,0L348.8,0L349.2,13.043L349.6,13.043L350,0L350.4,0L350.8,0L351.2,0L351.6,0L352,0L352.4,0L352.8,0L353.2,0L353.6,0L354,0L354.4,0L354.8,0L355.2,0L355.6,0L356,0L356.4,0L356.8,0L357.2,0L357.6,0L358,0L358.4,0L358.8,0L359.2,0L359.6,0L360,286.957L360.4,0L360.8,13.043L361.2,0L361.6,0L362,0L362.4,0L362.8,0L363.2,0L363.6,0L364,0L364.4,0L364.8,0L365.2,0L365.6,0L366,0L366.4,0L366.8,0L367.2,0L367.6,0L368,0L368.4,0L368.8,0L369.2,0L369.6,0L370,0L370.4,0L370.8,0L371.2,0L371.6,0L372,0L372.4,0L372.8,0L373.2,0L373.6,0L374,0L374.4,0L374.8,0L375.2,0L375.6,0L376,0L376.4,0L376.8,0L377.2,0L377.6,0L378,0L378.4,0L378.8,0L379.2,0L379.6,0L380,0L380.4,0L380.8,0L381.2,0L381.6,0L382,0L382.4,0L382.8,0L383.2,0L383.6,0L384,0L384.4,0L384.8,0L385.2,0L385.6,0L386,0L386.4,0L386.8,0L387.2,0L387.6,0L388,0L388.4,0L388.8,0L389.2,0L389.6,0L390,0L390.4,0L390.8,0L391.2,0L391.6,0L392,0L392.4,0L392.8,0L393.2,0L393.6,0L394,0L394.4,0L394.8,0L395.2,0L395.6,0L396,0L396.4,0L396.8,0L397.2,0L397.6,0L398,0L398.4,0L398.8,0L399.2,0L399.6,0L400,260.87" stroke="#f58518" stroke-width="2"/></g></g><path class="foreground" aria-hidden="true" d="" display="none"/></g></g><g class="mark-group role-legend" role="graphics-symbol" aria-roledescription="legend" aria-label="Symbol legend titled 'Reset' for stroke color with 2 values: 0, 100"><g transform="translate(420,0)"><path class="background" aria-hidden="true" d="M0,0h48v63h-48Z" pointer-events="none"/><g><g class="mark-group role-legend-entry"><g transform="translate(0,21)"><path class="background" aria-hidden="true" d="M0,0h0v0h0Z" pointer-events="none"/><g><g class="mark-group role-scope" role="graphics-object" aria-roledescription="group mark container"><g transform="translate(0,0)"><path class="background" aria-hidden="true" d="M0,0h47.3583984375v20h-47.3583984375Z" pointer-events="none" opacity="1"/><g><g class="mark-symbol role-legend-symbol" pointer-events="none"><path transform="translate(10,10)" d="M-5,0L5,0" stroke="#4c78a8" stroke-width="10" opacity="1"/></g><g class="mark-text role-legend-label" pointer-events="none"><text text-anchor="start" transform="translate(24,14)" font-family="sans-serif" font-size="14px" fill="#000" opacity="1">0</text></g></g><path class="foreground" aria-hidden="true" d="" pointer-events="none" display="none"/></g><g transform="translate(0,22)"><path class="background" aria-hidden="true" d="M0,0h47.3583984375v20h-47.3583984375Z" pointer-events="none" opacity="1"/><g><g class="mark-symbol role-legend-symbol" pointer-events="none"><path transform="translate(10,10)" d="M-5,0L5,0" stroke="#f58518" stroke-width="10" opacity="1"/></g><g class="mark-text role-legend-label" pointer-events="none"><text text-anchor="start" transform="translate(24,14)" font-family="sans-serif" font-size="14px" fill="#000" opacity="1">100</text></g></g><path class="foreground" aria-hidden="true" d="" pointer-events="none" display="none"/></g></g></g><path class="foreground" aria-hidden="true" d="" pointer-events="none" display="none"/></g></g><g class="mark-text role-legend-title" pointer-events="none"><text text-anchor="start" transform="translate(0,13)" font-family="sans-serif" font-size="16px" font-weight="bold" fill="#000" opacity="1">Reset</text></g></g><path class="foreground" aria-hidden="true" d="" pointer-events="none" display="none"/></g></g><g class="mark-group role-title"><g transform="translate(200,-29)"><path class="background" aria-hidden="true" d="M0,0h0v0h0Z" pointer-events="none"/><g><g class="mark-text role-title-text" role="graphics-symbol" aria-roledescription="title" aria-label="Title text 'Reward Overtime (LR=0.01)'" pointer-events="none"><text text-anchor="middle" transform="translate(0,14)" font-family="sans-serif" font-size="18px" font-weight="bold" fill="#000" opacity="1">Reward Overtime (LR=0.01)</text></g></g><path class="foreground" aria-hidden="true" d="" pointer-events="none" display="none"/></g></g></g><path class="foreground" aria-hidden="true" d="" display="none"/></g></g></g></svg>