<svg xmlns="http://www.w3.org/2000/svg" xmlns:xlink="http://www.w3.org/1999/xlink" version="1.1" class="marks" width="631" height="380" viewBox="0 0 631 380"><rect width="631" height="380" fill="white"/><g fill="none" stroke-miterlimit="10" transform="translate(52,34)"><g class="mark-group role-frame root" role="graphics-object" aria-roledescription="group mark container"><g transform="translate(0,0)"><path class="background" aria-hidden="true" d="M0.5,0.5h400v300h-400Z" stroke="#ddd"/><g><g class="mark-group role-axis" aria-hidden="true"><g transform="translate(0.5,300.5)"><path class="background" aria-hidden="true" d="M0,0h0v0h0Z" pointer-events="none"/><g><g class="mark-rule role-axis-grid" pointer-events="none"><line transform="translate(0,-300)" x2="0" y2="300" stroke="#ddd" stroke-width="1" opacity="1"/><line transform="translate(40,-300)" x2="0" y2="300" stroke="#ddd" stroke-width="1" opacity="1"/><line transform="translate(80,-300)" x2="0" y2="300" stroke="#ddd" stroke-width="1" opacity="1"/><line transform="translate(120,-300)" x2="0" y2="300" stroke="#ddd" stroke-width="1" opacity="1"/><line transform="translate(160,-300)" x2="0" y2="300" stroke="#ddd" stroke-width="1" opacity="1"/><line transform="translate(200,-300)" x2="0" y2="300" stroke="#ddd" stroke-width="1" opacity="1"/><line transform="translate(240,-300)" x2="0" y2="300" stroke="#ddd" stroke-width="1" opacity="1"/><line transform="translate(280,-300)" x2="0" y2="300" stroke="#ddd" stroke-width="1" opacity="1"/><line transform="translate(320,-300)" x2="0" y2="300" stroke="#ddd" stroke-width="1" opacity="1"/><line transform="translate(360,-300)" x2="0" y2="300" stroke="#ddd" stroke-width="1" opacity="1"/><line transform="translate(400,-300)" x2="0" y2="300" stroke="#ddd" stroke-width="1" opacity="1"/></g></g><path class="foreground" aria-hidden="true" d="" pointer-events="none" display="none"/></g></g><g class="mark-group role-axis" aria-hidden="true"><g transform="translate(0.5,0.5)"><path class="background" aria-hidden="true" d="M0,0h0v0h0Z" pointer-events="none"/><g><g class="mark-rule role-axis-grid" pointer-events="none"><line transform="translate(0,300)" x2="400" y2="0" stroke="#ddd" stroke-width="1" opacity="1"/><line transform="translate(0,270)" x2="400" y2="0" stroke="#ddd" stroke-width="1" opacity="1"/><line transform="translate(0,240)" x2="400" y2="0" stroke="#ddd" stroke-width="1" opacity="1"/><line transform="translate(0,210)" x2="400" y2="0" stroke="#ddd" stroke-width="1" opacity="1"/><line transform="translate(0,180)" x2="400" y2="0" stroke="#ddd" stroke-width="1" opacity="1"/><line transform="translate(0,150)" x2="400" y2="0" stroke="#ddd" stroke-width="1" opacity="1"/><line transform="translate(0,120)" x2="400" y2="0" stroke="#ddd" stroke-width="1" opacity="1"/><line transform="translate(0,90)" x2="400" y2="0" stroke="#ddd" stroke-width="1" opacity="1"/><line transform="translate(0,60)" x2="400" y2="0" stroke="#ddd" stroke-width="1" opacity="1"/><line transform="translate(0,30)" x2="400" y2="0" stroke="#ddd" stroke-width="1" opacity="1"/><line transform="translate(0,0)" x2="400" y2="0" stroke="#ddd" stroke-width="1" opacity="1"/></g></g><path class="foreground" aria-hidden="true" d="" pointer-events="none" display="none"/></g></g><g class="mark-group role-axis" role="graphics-symbol" aria-roledescription="axis" aria-label="X-axis titled 'Episode' for a linear scale with values from 0 to 1,000"><g transform="translate(0.5,300.5)"><path class="background" aria-hidden="true" d="M0,0h0v0h0Z" pointer-events="none"/><g><g class="mark-rule role-axis-tick" pointer-events="none"><line transform="translate(0,0)" x2="0" y2="5" stroke="#888" stroke-width="1" opacity="1"/><line transform="translate(40,0)" x2="0" y2="5" stroke="#888" stroke-width="1" opacity="1"/><line transform="translate(80,0)" x2="0" y2="5" stroke="#888" stroke-width="1" opacity="1"/><line transform="translate(120,0)" x2="0" y2="5" stroke="#888" stroke-width="1" opacity="1"/><line transform="translate(160,0)" x2="0" y2="5" stroke="#888" stroke-width="1" opacity="1"/><line transform="translate(200,0)" x2="0" y2="5" stroke="#888" stroke-width="1" opacity="1"/><line transform="translate(240,0)" x2="0" y2="5" stroke="#888" stroke-width="1" opacity="1"/><line transform="translate(280,0)" x2="0" y2="5" stroke="#888" stroke-width="1" opacity="1"/><line transform="translate(320,0)" x2="0" y2="5" stroke="#888" stroke-width="1" opacity="1"/><line transform="translate(360,0)" x2="0" y2="5" stroke="#888" stroke-width="1" opacity="1"/><line transform="translate(400,0)" x2="0" y2="5" stroke="#888" stroke-width="1" opacity="1"/></g><g class="mark-text role-axis-label" pointer-events="none"><text text-anchor="start" transform="translate(0,18)" font-family="sans-serif" font-size="14px" fill="#000" opacity="1">0</text><text text-anchor="middle" transform="translate(40,18)" font-family="sans-serif" font-size="14px" fill="#000" opacity="0">100</text><text text-anchor="middle" transform="translate(80,18)" font-family="sans-serif" font-size="14px" fill="#000" opacity="1">200</text><text text-anchor="middle" transform="translate(120,18)" font-family="sans-serif" font-size="14px" fill="#000" opacity="0">300</text><text text-anchor="middle" transform="translate(160,18)" font-family="sans-serif" font-size="14px" fill="#000" opacity="1">400</text><text text-anchor="middle" transform="translate(200,18)" font-family="sans-serif" font-size="14px" fill="#000" opacity="0">500</text><text text-anchor="middle" transform="translate(240,18)" font-family="sans-serif" font-size="14px" fill="#000" opacity="1">600</text><text text-anchor="middle" transform="translate(280,18)" font-family="sans-serif" font-size="14px" fill="#000" opacity="0">700</text><text text-anchor="middle" transform="translate(320,18)" font-family="sans-serif" font-size="14px" fill="#000" opacity="1">800</text><text text-anchor="middle" transform="translate(360,18)" font-family="sans-serif" font-size="14px" fill="#000" opacity="0">900</text><text text-anchor="end" transform="translate(400,18)" font-family="sans-serif" font-size="14px" fill="#000" opacity="1">1,000</text></g><g class="mark-rule role-axis-domain" pointer-events="none"><line transform="translate(0,0)" x2="400" y2="0" stroke="#888" stroke-width="1" opacity="1"/></g><g class="mark-text role-axis-title" pointer-events="none"><text text-anchor="middle" transform="translate(200,38)" font-family="sans-serif" font-size="16px" font-weight="bold" fill="#000" opacity="1">Episode</text></g></g><path class="foreground" aria-hidden="true" d="" pointer-events="none" display="none"/></g></g><g class="mark-group role-axis" role="graphics-symbol" aria-roledescription="axis" aria-label="Y-axis titled 'Reward' for a linear scale with values from 0.0 to 1.0"><g transform="translate(0.5,0.5)"><path class="background" aria-hidden="true" d="M0,0h0v0h0Z" pointer-events="none"/><g><g class="mark-rule role-axis-tick" pointer-events="none"><line transform="translate(0,300)" x2="-5" y2="0" stroke="#888" stroke-width="1" opacity="1"/><line transform="translate(0,270)" x2="-5" y2="0" stroke="#888" stroke-width="1" opacity="1"/><line transform="translate(0,240)" x2="-5" y2="0" stroke="#888" stroke-width="1" opacity="1"/><line transform="translate(0,210)" x2="-5" y2="0" stroke="#888" stroke-width="1" opacity="1"/><line transform="translate(0,180)" x2="-5" y2="0" stroke="#888" stroke-width="1" opacity="1"/><line transform="translate(0,150)" x2="-5" y2="0" stroke="#888" stroke-width="1" opacity="1"/><line transform="translate(0,120)" x2="-5" y2="0" stroke="#888" stroke-width="1" opacity="1"/><line transform="translate(0,90)" x2="-5" y2="0" stroke="#888" stroke-width="1" opacity="1"/><line transform="translate(0,60)" x2="-5" y2="0" stroke="#888" stroke-width="1" opacity="1"/><line transform="translate(0,30)" x2="-5" y2="0" stroke="#888" stroke-width="1" opacity="1"/><line transform="translate(0,0)" x2="-5" y2="0" stroke="#888" stroke-width="1" opacity="1"/></g><g class="mark-text role-axis-label" pointer-events="none"><text text-anchor="end" transform="translate(-7,304)" font-family="sans-serif" font-size="14px" fill="#000" opacity="1">0.0</text><text text-anchor="end" transform="translate(-7,274)" font-family="sans-serif" font-size="14px" fill="#000" opacity="1">0.1</text><text text-anchor="end" transform="translate(-7,244)" font-family="sans-serif" font-size="14px" fill="#000" opacity="1">0.2</text><text text-anchor="end" transform="translate(-7,214)" font-family="sans-serif" font-size="14px" fill="#000" opacity="1">0.3</text><text text-anchor="end" transform="translate(-7,184)" font-family="sans-serif" font-size="14px" fill="#000" opacity="1">0.4</text><text text-anchor="end" transform="translate(-7,154)" font-family="sans-serif" font-size="14px" fill="#000" opacity="1">0.5</text><text text-anchor="end" transform="translate(-7,124)" font-family="sans-serif" font-size="14px" fill="#000" opacity="1">0.6</text><text text-anchor="end" transform="translate(-7,94.00000000000001)" font-family="sans-serif" font-size="14px" fill="#000" opacity="1">0.7</text><text text-anchor="end" transform="translate(-7,63.999999999999986)" font-family="sans-serif" font-size="14px" fill="#000" opacity="1">0.8</text><text text-anchor="end" transform="translate(-7,33.99999999999999)" font-family="sans-serif" font-size="14px" fill="#000" opacity="1">0.9</text><text text-anchor="end" transform="translate(-7,4)" font-family="sans-serif" font-size="14px" fill="#000" opacity="1">1.0</text></g><g class="mark-rule role-axis-domain" pointer-events="none"><line transform="translate(0,300)" x2="0" y2="-300" stroke="#888" stroke-width="1" opacity="1"/></g><g class="mark-text role-axis-title" pointer-events="none"><text text-anchor="middle" transform="translate(-30.4619140625,150) rotate(-90) translate(0,-3)" font-family="sans-serif" font-size="16px" font-weight="bold" fill="#000" opacity="1">Reward</text></g></g><path class="foreground" aria-hidden="true" d="" pointer-events="none" display="none"/></g></g><g class="mark-group role-scope pathgroup" role="graphics-object" aria-roledescription="group mark container"><g transform="translate(0,0)"><path class="background" aria-hidden="true" d="M0,0h400v300h-400Z"/><g><g class="mark-line role-mark marks" role="graphics-object" aria-roledescription="line mark container"><path aria-label="Episode: 1; Reward: 0.0461538461538; Model: Architecture: 3 Layer" role="graphics-symbol" aria-roledescription="line mark" d="M0.4,286.154L0.8,286.154L1.2,286.154L1.6,286.154L2,286.154L2.4,286.154L2.8,281.538L3.2,286.154L3.6,258.462L4,276.923L4.4,249.231L4.8,230.769L5.2,230.769L5.6,221.538L6,216.923L6.4,216.923L6.8,207.692L7.2,198.462L7.6,198.462L8,281.538L8.4,161.538L8.8,124.615L9.2,110.769L9.6,101.538L10,92.308L10.4,92.308L10.8,92.308L11.2,92.308L11.6,92.308L12,267.692L12.4,92.308L12.8,87.692L13.2,92.308L13.6,83.077L14,73.846L14.4,60L14.8,55.385L15.2,55.385L15.6,46.154L16,253.846L16.4,50.769L16.8,46.154L17.2,46.154L17.6,46.154L18,46.154L18.4,46.154L18.8,46.154L19.2,46.154L19.6,46.154L20,263.077L20.4,50.769L20.8,46.154L21.2,46.154L21.6,46.154L22,46.154L22.4,46.154L22.8,46.154L23.2,46.154L23.6,50.769L24,253.846L24.4,46.154L24.8,50.769L25.2,46.154L25.6,46.154L26,46.154L26.4,32.308L26.8,23.077L27.2,13.846L27.6,0L28,235.385L28.4,0L28.8,0L29.2,0L29.6,0L30,0L30.4,0L30.8,0L31.2,0L31.6,0L32,216.923L32.4,0L32.8,0L33.2,0L33.6,0L34,0L34.4,0L34.8,0L35.2,0L35.6,0L36,221.538L36.4,0L36.8,0L37.2,0L37.6,0L38,0L38.4,0L38.8,0L39.2,0L39.6,0L40,230.769L40.4,0L40.8,4.615L41.2,0L41.6,0L42,0L42.4,0L42.8,0L43.2,0L43.6,0L44,253.846L44.4,0L44.8,0L45.2,0L45.6,0L46,0L46.4,0L46.8,0L47.2,0L47.6,0L48,263.077L48.4,0L48.8,0L49.2,0L49.6,0L50,0L50.4,0L50.8,0L51.2,0L51.6,0L52,249.231L52.4,0L52.8,0L53.2,0L53.6,0L54,0L54.4,0L54.8,0L55.2,0L55.6,0L56,230.769L56.4,0L56.8,0L57.2,0L57.6,0L58,0L58.4,0L58.8,0L59.2,0L59.6,0L60,253.846L60.4,9.231L60.8,0L61.2,4.615L61.6,0L62,0L62.4,0L62.8,0L63.2,0L63.6,0L64,249.231L64.4,4.615L64.8,0L65.2,0L65.6,0L66,0L66.4,0L66.8,0L67.2,0L67.6,0L68,235.385L68.4,0L68.8,0L69.2,0L69.6,0L70,0L70.4,0L70.8,0L71.2,0L71.6,0L72,249.231L72.4,0L72.8,0L73.2,0L73.6,0L74,0L74.4,0L74.8,0L75.2,0L75.6,0L76,258.462L76.4,4.615L76.8,0L77.2,0L77.6,0L78,0L78.4,4.615L78.8,0L79.2,0L79.6,0L80,258.462L80.4,0L80.8,300L81.2,300L81.6,300L82,300L82.4,300L82.8,300L83.2,300L83.6,300L84,170.769L84.4,300L84.8,300L85.2,300L85.6,300L86,300L86.4,300L86.8,300L87.2,300L87.6,300L88,230.769L88.4,300L88.8,300L89.2,300L89.6,300L90,300L90.4,300L90.8,300L91.2,300L91.6,300L92,203.077L92.4,300L92.8,300L93.2,300L93.6,300L94,300L94.4,300L94.8,300L95.2,300L95.6,300L96,207.692L96.4,300L96.8,300L97.2,300L97.6,300L98,300L98.4,300L98.8,295.385L99.2,300L99.6,300L100,240L100.4,300L100.8,300L101.2,300L101.6,300L102,300L102.4,300L102.8,300L103.2,300L103.6,300L104,216.923L104.4,300L104.8,300L105.2,300L105.6,300L106,300L106.4,300L106.8,300L107.2,300L107.6,300L108,216.923L108.4,300L108.8,300L109.2,300L109.6,300L110,300L110.4,300L110.8,300L111.2,300L111.6,300L112,203.077L112.4,300L112.8,300L113.2,300L113.6,300L114,300L114.4,300L114.8,300L115.2,300L115.6,300L116,221.538L116.4,300L116.8,295.385L117.2,300L117.6,300L118,300L118.4,300L118.8,300L119.2,300L119.6,300L120,193.846L120.4,295.385L120.8,300L121.2,300L121.6,295.385L122,300L122.4,300L122.8,300L123.2,300L123.6,300L124,226.154L124.4,300L124.8,300L125.2,300L125.6,300L126,300L126.4,300L126.8,300L127.2,300L127.6,300L128,203.077L128.4,295.385L128.8,300L129.2,300L129.6,300L130,300L130.4,300L130.8,300L131.2,300L131.6,300L132,235.385L132.4,300L132.8,300L133.2,300L133.6,300L134,300L134.4,295.385L134.8,300L135.2,300L135.6,300L136,207.692L136.4,300L136.8,295.385L137.2,300L137.6,300L138,300L138.4,300L138.8,300L139.2,300L139.6,300L140,198.462L140.4,295.385L140.8,300L141.2,300L141.6,300L142,300L142.4,300L142.8,300L143.2,300L143.6,300L144,226.154L144.4,295.385L144.8,295.385L145.2,295.385L145.6,300L146,300L146.4,300L146.8,300L147.2,300L147.6,300L148,212.308L148.4,300L148.8,300L149.2,300L149.6,300L150,300L150.4,300L150.8,300L151.2,300L151.6,300L152,216.923L152.4,300L152.8,300L153.2,300L153.6,295.385L154,290.769L154.4,300L154.8,300L155.2,295.385L155.6,300L156,235.385L156.4,295.385L156.8,300L157.2,300L157.6,300L158,295.385L158.4,290.769L158.8,290.769L159.2,300L159.6,300L160,203.077L160.4,290.769L160.8,300L161.2,300L161.6,300L162,300L162.4,300L162.8,295.385L163.2,300L163.6,295.385L164,235.385L164.4,290.769L164.8,295.385L165.2,300L165.6,295.385L166,286.154L166.4,281.538L166.8,290.769L167.2,300L167.6,290.769L168,184.615L168.4,295.385L168.8,300L169.2,290.769L169.6,286.154L170,290.769L170.4,290.769L170.8,286.154L171.2,295.385L171.6,290.769L172,230.769L172.4,290.769L172.8,290.769L173.2,286.154L173.6,286.154L174,286.154L174.4,286.154L174.8,290.769L175.2,281.538L175.6,286.154L176,207.692L176.4,276.923L176.8,276.923L177.2,272.308L177.6,272.308L178,272.308L178.4,272.308L178.8,276.923L179.2,286.154L179.6,272.308L180,244.615L180.4,286.154L180.8,272.308L181.2,286.154L181.6,272.308L182,276.923L182.4,276.923L182.8,281.538L183.2,263.077L183.6,263.077L184,235.385L184.4,276.923L184.8,272.308L185.2,276.923L185.6,267.692L186,249.231L186.4,272.308L186.8,258.462L187.2,249.231L187.6,258.462L188,221.538L188.4,263.077L188.8,272.308L189.2,249.231L189.6,258.462L190,263.077L190.4,253.846L190.8,240L191.2,240L191.6,216.923L192,249.231L192.4,253.846L192.8,263.077L193.2,240L193.6,226.154L194,226.154L194.4,235.385L194.8,221.538L195.2,221.538L195.6,212.308L196,263.077L196.4,249.231L196.8,240L197.2,240L197.6,221.538L198,230.769L198.4,221.538L198.8,216.923L199.2,216.923L199.6,212.308L200,258.462L200.4,240L200.8,235.385L201.2,230.769L201.6,207.692L202,216.923L202.4,203.077L202.8,198.462L203.2,175.385L203.6,180L204,240L204.4,207.692L204.8,203.077L205.2,212.308L205.6,184.615L206,170.769L206.4,161.538L206.8,156.923L207.2,156.923L207.6,166.154L208,244.615L208.4,216.923L208.8,189.231L209.2,175.385L209.6,156.923L210,161.538L210.4,152.308L210.8,147.692L211.2,124.615L211.6,138.462L212,276.923L212.4,207.692L212.8,166.154L213.2,124.615L213.6,124.615L214,161.538L214.4,133.846L214.8,110.769L215.2,110.769L215.6,101.538L216,253.846L216.4,175.385L216.8,161.538L217.2,120L217.6,133.846L218,120L218.4,115.385L218.8,101.538L219.2,101.538L219.6,101.538L220,240L220.4,161.538L220.8,133.846L221.2,115.385L221.6,101.538L222,83.077L222.4,83.077L222.8,96.923L223.2,73.846L223.6,78.462L224,249.231L224.4,133.846L224.8,120L225.2,83.077L225.6,83.077L226,78.462L226.4,78.462L226.8,83.077L227.2,73.846L227.6,69.231L228,267.692L228.4,110.769L228.8,83.077L229.2,83.077L229.6,78.462L230,83.077L230.4,60L230.8,69.231L231.2,60L231.6,64.615L232,244.615L232.4,106.154L232.8,87.692L233.2,64.615L233.6,60L234,64.615L234.4,60L234.8,60L235.2,55.385L235.6,46.154L236,244.615L236.4,110.769L236.8,92.308L237.2,60L237.6,64.615L238,60L238.4,46.154L238.8,46.154L239.2,41.538L239.6,46.154L240,244.615L240.4,78.462L240.8,69.231L241.2,50.769L241.6,46.154L242,46.154L242.4,41.538L242.8,36.923L243.2,32.308L243.6,36.923L244,267.692L244.4,55.385L244.8,50.769L245.2,32.308L245.6,32.308L246,46.154L246.4,32.308L246.8,27.692L247.2,23.077L247.6,23.077L248,263.077L248.4,55.385L248.8,46.154L249.2,23.077L249.6,23.077L250,18.462L250.4,23.077L250.8,13.846L251.2,13.846L251.6,18.462L252,267.692L252.4,36.923L252.8,32.308L253.2,18.462L253.6,23.077L254,23.077L254.4,18.462L254.8,13.846L255.2,23.077L255.6,13.846L256,249.231L256.4,41.538L256.8,32.308L257.2,13.846L257.6,23.077L258,18.462L258.4,13.846L258.8,18.462L259.2,13.846L259.6,13.846L260,276.923L260.4,50.769L260.8,32.308L261.2,18.462L261.6,23.077L262,13.846L262.4,18.462L262.8,18.462L263.2,18.462L263.6,13.846L264,249.231L264.4,32.308L264.8,23.077L265.2,18.462L265.6,23.077L266,13.846L266.4,13.846L266.8,13.846L267.2,18.462L267.6,13.846L268,253.846L268.4,13.846L268.8,18.462L269.2,13.846L269.6,13.846L270,13.846L270.4,9.231L270.8,9.231L271.2,9.231L271.6,0L272,253.846L272.4,23.077L272.8,23.077L273.2,9.231L273.6,0L274,9.231L274.4,9.231L274.8,4.615L275.2,4.615L275.6,4.615L276,244.615L276.4,23.077L276.8,27.692L277.2,4.615L277.6,0L278,0L278.4,0L278.8,0L279.2,0L279.6,0L280,267.692L280.4,18.462L280.8,9.231L281.2,4.615L281.6,4.615L282,0L282.4,4.615L282.8,0L283.2,0L283.6,0L284,258.462L284.4,18.462L284.8,4.615L285.2,9.231L285.6,0L286,9.231L286.4,0L286.8,0L287.2,0L287.6,0L288,235.385L288.4,9.231L288.8,9.231L289.2,4.615L289.6,0L290,0L290.4,0L290.8,0L291.2,0L291.6,0L292,258.462L292.4,9.231L292.8,0L293.2,9.231L293.6,4.615L294,9.231L294.4,4.615L294.8,4.615L295.2,4.615L295.6,9.231L296,267.692L296.4,18.462L296.8,4.615L297.2,4.615L297.6,0L298,4.615L298.4,0L298.8,0L299.2,0L299.6,0L300,272.308L300.4,9.231L300.8,4.615L301.2,4.615L301.6,4.615L302,4.615L302.4,0L302.8,0L303.2,0L303.6,0L304,253.846L304.4,23.077L304.8,4.615L305.2,0L305.6,0L306,0L306.4,0L306.8,0L307.2,0L307.6,0L308,244.615L308.4,18.462L308.8,0L309.2,4.615L309.6,13.846L310,0L310.4,4.615L310.8,4.615L311.2,0L311.6,0L312,263.077L312.4,18.462L312.8,4.615L313.2,0L313.6,0L314,4.615L314.4,4.615L314.8,4.615L315.2,4.615L315.6,4.615L316,253.846L316.4,9.231L316.8,0L317.2,0L317.6,0L318,0L318.4,0L318.8,0L319.2,4.615L319.6,4.615L320,281.538L320.4,4.615L320.8,0L321.2,0L321.6,0L322,0L322.4,0L322.8,0L323.2,0L323.6,4.615L324,258.462L324.4,4.615L324.8,4.615L325.2,9.231L325.6,0L326,0L326.4,4.615L326.8,4.615L327.2,0L327.6,0L328,281.538L328.4,9.231L328.8,4.615L329.2,0L329.6,18.462L330,0L330.4,0L330.8,4.615L331.2,0L331.6,0L332,249.231L332.4,4.615L332.8,0L333.2,0L333.6,0L334,0L334.4,0L334.8,0L335.2,0L335.6,0L336,263.077L336.4,4.615L336.8,0L337.2,4.615L337.6,4.615L338,4.615L338.4,0L338.8,0L339.2,0L339.6,0L340,272.308L340.4,0L340.8,4.615L341.2,9.231L341.6,0L342,4.615L342.4,4.615L342.8,0L343.2,0L343.6,0L344,267.692L344.4,13.846L344.8,0L345.2,4.615L345.6,0L346,0L346.4,0L346.8,0L347.2,0L347.6,4.615L348,263.077L348.4,9.231L348.8,9.231L349.2,0L349.6,0L350,0L350.4,0L350.8,0L351.2,0L351.6,0L352,244.615L352.4,4.615L352.8,4.615L353.2,0L353.6,0L354,0L354.4,0L354.8,0L355.2,0L355.6,0L356,258.462L356.4,9.231L356.8,4.615L357.2,4.615L357.6,0L358,0L358.4,0L358.8,0L359.2,0L359.6,0L360,253.846L360.4,4.615L360.8,9.231L361.2,0L361.6,0L362,0L362.4,0L362.8,0L363.2,0L363.6,0L364,249.231L364.4,0L364.8,0L365.2,0L365.6,0L366,0L366.4,0L366.8,0L367.2,0L367.6,4.615L368,263.077L368.4,4.615L368.8,4.615L369.2,4.615L369.6,0L370,4.615L370.4,4.615L370.8,4.615L371.2,4.615L371.6,4.615L372,263.077L372.4,0L372.8,0L373.2,0L373.6,0L374,0L374.4,0L374.8,0L375.2,0L375.6,0L376,267.692L376.4,4.615L376.8,0L377.2,4.615L377.6,0L378,0L378.4,0L378.8,0L379.2,0L379.6,0L380,281.538L380.4,0L380.8,0L381.2,0L381.6,0L382,0L382.4,0L382.8,0L383.2,0L383.6,0L384,276.923L384.4,0L384.8,9.231L385.2,0L385.6,4.615L386,0L386.4,0L386.8,0L387.2,0L387.6,0L388,272.308L388.4,0L388.8,4.615L389.2,4.615L389.6,4.615L390,0L390.4,0L390.8,0L391.2,0L391.6,0L392,258.462L392.4,4.615L392.8,0L393.2,0L393.6,0L394,4.615L394.4,0L394.8,0L395.2,0L395.6,0L396,286.154L396.4,0L396.8,0L397.2,0L397.6,4.615L398,4.615L398.4,4.615L398.8,4.615L399.2,4.615L399.6,9.231L400,253.846" stroke="#f58518" stroke-width="2"/></g></g><path class="foreground" aria-hidden="true" d="" display="none"/></g><g transform="translate(0,0)"><path class="background" aria-hidden="true" d="M0,0h400v300h-400Z"/><g><g class="mark-line role-mark marks" role="graphics-object" aria-roledescription="line mark container"><path aria-label="Episode: 1; Reward: 0.04; Model: Architecture: 2 Layer" role="graphics-symbol" aria-roledescription="line mark" d="M0.4,288L0.8,288L1.2,288L1.6,288L2,288L2.4,288L2.8,288L3.2,288L3.6,288L4,276L4.4,276L4.8,276L5.2,276L5.6,276L6,276L6.4,276L6.8,276L7.2,276L7.6,228L8,300L8.4,180L8.8,60L9.2,48L9.6,36L10,24L10.4,12L10.8,12L11.2,12L11.6,12L12,252L12.4,12L12.8,12L13.2,12L13.6,0L14,0L14.4,0L14.8,0L15.2,0L15.6,0L16,228L16.4,0L16.8,0L17.2,0L17.6,0L18,0L18.4,0L18.8,0L19.2,0L19.6,0L20,192L20.4,0L20.8,0L21.2,0L21.6,0L22,0L22.4,0L22.8,0L23.2,0L23.6,0L24,168L24.4,0L24.8,0L25.2,0L25.6,0L26,0L26.4,0L26.8,0L27.2,0L27.6,0L28,240L28.4,0L28.8,0L29.2,0L29.6,0L30,0L30.4,0L30.8,0L31.2,0L31.6,0L32,252L32.4,0L32.8,0L33.2,0L33.6,0L34,0L34.4,0L34.8,0L35.2,0L35.6,0L36,216L36.4,0L36.8,0L37.2,0L37.6,0L38,0L38.4,0L38.8,0L39.2,0L39.6,0L40,228L40.4,0L40.8,0L41.2,0L41.6,0L42,0L42.4,0L42.8,0L43.2,0L43.6,0L44,264L44.4,0L44.8,0L45.2,0L45.6,0L46,0L46.4,0L46.8,0L47.2,0L47.6,0L48,228L48.4,0L48.8,0L49.2,0L49.6,0L50,0L50.4,0L50.8,0L51.2,0L51.6,0L52,276L52.4,0L52.8,0L53.2,0L53.6,0L54,0L54.4,0L54.8,0L55.2,0L55.6,0L56,252L56.4,0L56.8,0L57.2,0L57.6,0L58,0L58.4,0L58.8,0L59.2,0L59.6,0L60,276L60.4,0L60.8,0L61.2,0L61.6,0L62,0L62.4,0L62.8,0L63.2,0L63.6,0L64,252L64.4,0L64.8,0L65.2,0L65.6,0L66,0L66.4,0L66.8,0L67.2,0L67.6,0L68,240L68.4,0L68.8,0L69.2,0L69.6,0L70,0L70.4,0L70.8,0L71.2,0L71.6,0L72,240L72.4,0L72.8,0L73.2,0L73.6,0L74,0L74.4,0L74.8,0L75.2,0L75.6,0L76,252L76.4,0L76.8,0L77.2,0L77.6,0L78,0L78.4,0L78.8,0L79.2,0L79.6,0L80,264L80.4,0L80.8,300L81.2,300L81.6,300L82,300L82.4,300L82.8,300L83.2,300L83.6,300L84,180L84.4,300L84.8,300L85.2,300L85.6,300L86,300L86.4,300L86.8,300L87.2,300L87.6,300L88,144L88.4,300L88.8,300L89.2,300L89.6,300L90,300L90.4,300L90.8,300L91.2,300L91.6,300L92,84L92.4,300L92.8,300L93.2,300L93.6,300L94,300L94.4,300L94.8,300L95.2,300L95.6,300L96,108L96.4,300L96.8,300L97.2,300L97.6,300L98,300L98.4,300L98.8,300L99.2,300L99.6,300L100,84L100.4,300L100.8,300L101.2,300L101.6,300L102,300L102.4,300L102.8,300L103.2,300L103.6,300L104,72L104.4,300L104.8,300L105.2,300L105.6,300L106,300L106.4,300L106.8,300L107.2,300L107.6,300L108,12L108.4,300L108.8,300L109.2,300L109.6,300L110,300L110.4,300L110.8,300L111.2,300L111.6,300L112,24L112.4,300L112.8,300L113.2,300L113.6,300L114,300L114.4,300L114.8,300L115.2,300L115.6,300L116,24L116.4,300L116.8,300L117.2,300L117.6,300L118,300L118.4,300L118.8,300L119.2,300L119.6,300L120,12L120.4,300L120.8,300L121.2,300L121.6,300L122,300L122.4,300L122.8,300L123.2,300L123.6,300L124,36L124.4,300L124.8,300L125.2,300L125.6,300L126,300L126.4,300L126.8,300L127.2,300L127.6,300L128,24L128.4,300L128.8,300L129.2,300L129.6,300L130,300L130.4,300L130.8,300L131.2,300L131.6,300L132,0L132.4,300L132.8,300L133.2,300L133.6,300L134,300L134.4,300L134.8,300L135.2,300L135.6,300L136,24L136.4,300L136.8,300L137.2,300L137.6,300L138,300L138.4,300L138.8,300L139.2,300L139.6,300L140,12L140.4,300L140.8,300L141.2,288L141.6,276L142,300L142.4,288L142.8,288L143.2,276L143.6,300L144,0L144.4,288L144.8,300L145.2,264L145.6,276L146,276L146.4,276L146.8,300L147.2,300L147.6,288L148,24L148.4,288L148.8,288L149.2,276L149.6,252L150,276L150.4,276L150.8,276L151.2,264L151.6,276L152,0L152.4,288L152.8,300L153.2,276L153.6,276L154,276L154.4,264L154.8,216L155.2,228L155.6,216L156,0L156.4,276L156.8,276L157.2,252L157.6,216L158,204L158.4,240L158.8,192L159.2,252L159.6,216L160,0L160.4,264L160.8,228L161.2,204L161.6,144L162,156L162.4,192L162.8,144L163.2,144L163.6,168L164,0L164.4,240L164.8,204L165.2,204L165.6,156L166,192L166.4,144L166.8,144L167.2,168L167.6,120L168,12L168.4,240L168.8,168L169.2,180L169.6,144L170,84L170.4,96L170.8,72L171.2,60L171.6,72L172,0L172.4,168L172.8,144L173.2,108L173.6,96L174,60L174.4,96L174.8,108L175.2,84L175.6,96L176,0L176.4,156L176.8,120L177.2,48L177.6,72L178,48L178.4,96L178.8,48L179.2,60L179.6,36L180,0L180.4,84L180.8,84L181.2,60L181.6,24L182,72L182.4,72L182.8,12L183.2,48L183.6,36L184,0L184.4,48L184.8,36L185.2,60L185.6,12L186,24L186.4,24L186.8,24L187.2,36L187.6,48L188,24L188.4,36L188.8,12L189.2,36L189.6,72L190,12L190.4,12L190.8,24L191.2,48L191.6,0L192,12L192.4,48L192.8,24L193.2,108L193.6,12L194,24L194.4,24L194.8,60L195.2,36L195.6,12L196,0L196.4,60L196.8,36L197.2,12L197.6,12L198,12L198.4,0L198.8,36L199.2,12L199.6,12L200,12L200.4,24L200.8,12L201.2,12L201.6,12L202,12L202.4,48L202.8,0L203.2,24L203.6,0L204,36L204.4,36L204.8,36L205.2,48L205.6,24L206,24L206.4,12L206.8,0L207.2,12L207.6,12L208,12L208.4,36L208.8,0L209.2,12L209.6,0L210,0L210.4,0L210.8,0L211.2,24L211.6,0L212,0L212.4,24L212.8,0L213.2,36L213.6,0L214,12L214.4,0L214.8,24L215.2,0L215.6,0L216,24L216.4,48L216.8,12L217.2,24L217.6,24L218,0L218.4,0L218.8,12L219.2,12L219.6,24L220,24L220.4,0L220.8,12L221.2,12L221.6,0L222,0L222.4,0L222.8,0L223.2,0L223.6,0L224,0L224.4,12L224.8,12L225.2,12L225.6,0L226,0L226.4,24L226.8,12L227.2,0L227.6,0L228,12L228.4,12L228.8,24L229.2,0L229.6,12L230,12L230.4,24L230.8,0L231.2,0L231.6,0L232,12L232.4,0L232.8,12L233.2,12L233.6,48L234,12L234.4,24L234.8,0L235.2,0L235.6,0L236,0L236.4,0L236.8,36L237.2,0L237.6,0L238,0L238.4,0L238.8,0L239.2,24L239.6,0L240,12L240.4,0L240.8,12L241.2,12L241.6,12L242,0L242.4,12L242.8,0L243.2,0L243.6,0L244,12L244.4,12L244.8,0L245.2,0L245.6,0L246,0L246.4,0L246.8,0L247.2,0L247.6,0L248,24L248.4,0L248.8,12L249.2,0L249.6,0L250,0L250.4,0L250.8,0L251.2,0L251.6,12L252,0L252.4,12L252.8,24L253.2,0L253.6,0L254,0L254.4,0L254.8,0L255.2,0L255.6,12L256,0L256.4,0L256.8,12L257.2,0L257.6,12L258,0L258.4,0L258.8,0L259.2,12L259.6,0L260,24L260.4,0L260.8,0L261.2,0L261.6,0L262,0L262.4,0L262.8,0L263.2,0L263.6,0L264,0L264.4,0L264.8,0L265.2,0L265.6,0L266,0L266.4,0L266.8,0L267.2,0L267.6,0L268,12L268.4,12L268.8,12L269.2,0L269.6,0L270,0L270.4,0L270.8,0L271.2,0L271.6,0L272,0L272.4,12L272.8,0L273.2,0L273.6,0L274,0L274.4,0L274.8,0L275.2,12L275.6,0L276,0L276.4,12L276.8,0L277.2,0L277.6,0L278,0L278.4,0L278.8,0L279.2,0L279.6,0L280,0L280.4,0L280.8,0L281.2,0L281.6,0L282,0L282.4,12L282.8,0L283.2,0L283.6,0L284,0L284.4,0L284.8,0L285.2,0L285.6,12L286,0L286.4,0L286.8,0L287.2,0L287.6,0L288,12L288.4,0L288.8,0L289.2,0L289.6,0L290,0L290.4,0L290.8,0L291.2,0L291.6,0L292,24L292.4,0L292.8,0L293.2,0L293.6,0L294,0L294.4,0L294.8,0L295.2,0L295.6,12L296,12L296.4,0L296.8,0L297.2,0L297.6,0L298,0L298.4,0L298.8,0L299.2,0L299.6,0L300,0L300.4,0L300.8,0L301.2,12L301.6,0L302,12L302.4,0L302.8,0L303.2,0L303.6,0L304,0L304.4,0L304.8,0L305.2,0L305.6,0L306,0L306.4,0L306.8,0L307.2,0L307.6,0L308,12L308.4,0L308.8,0L309.2,0L309.6,0L310,0L310.4,0L310.8,0L311.2,0L311.6,0L312,0L312.4,0L312.8,0L313.2,0L313.6,0L314,0L314.4,0L314.8,0L315.2,0L315.6,0L316,0L316.4,0L316.8,0L317.2,0L317.6,0L318,0L318.4,0L318.8,0L319.2,0L319.6,0L320,0L320.4,0L320.8,0L321.2,0L321.6,0L322,0L322.4,12L322.8,0L323.2,0L323.6,0L324,12L324.4,0L324.8,0L325.2,0L325.6,0L326,0L326.4,0L326.8,0L327.2,0L327.6,0L328,36L328.4,0L328.8,0L329.2,0L329.6,0L330,0L330.4,0L330.8,0L331.2,0L331.6,0L332,12L332.4,0L332.8,0L333.2,0L333.6,0L334,0L334.4,0L334.8,0L335.2,0L335.6,0L336,12L336.4,0L336.8,0L337.2,0L337.6,0L338,0L338.4,0L338.8,0L339.2,12L339.6,0L340,24L340.4,0L340.8,0L341.2,0L341.6,0L342,0L342.4,0L342.8,0L343.2,0L343.6,0L344,0L344.4,0L344.8,0L345.2,0L345.6,0L346,0L346.4,0L346.8,0L347.2,0L347.6,0L348,0L348.4,0L348.8,0L349.2,0L349.6,0L350,0L350.4,0L350.8,0L351.2,0L351.6,0L352,0L352.4,0L352.8,0L353.2,0L353.6,0L354,0L354.4,0L354.8,0L355.2,0L355.6,0L356,12L356.4,0L356.8,0L357.2,0L357.6,0L358,0L358.4,0L358.8,0L359.2,0L359.6,0L360,0L360.4,0L360.8,0L361.2,0L361.6,0L362,0L362.4,0L362.8,0L363.2,0L363.6,0L364,12L364.4,0L364.8,0L365.2,0L365.6,0L366,0L366.4,0L366.8,0L367.2,0L367.6,0L368,24L368.4,0L368.8,0L369.2,0L369.6,0L370,0L370.4,0L370.8,0L371.2,0L371.6,0L372,12L372.4,0L372.8,0L373.2,0L373.6,0L374,0L374.4,0L374.8,0L375.2,0L375.6,0L376,0L376.4,0L376.8,0L377.2,0L377.6,0L378,0L378.4,0L378.8,0L379.2,0L379.6,0L380,12L380.4,0L380.8,0L381.2,0L381.6,0L382,0L382.4,0L382.8,0L383.2,0L383.6,0L384,12L384.4,0L384.8,0L385.2,0L385.6,0L386,0L386.4,0L386.8,0L387.2,0L387.6,0L388,0L388.4,0L388.8,0L389.2,0L389.6,0L390,0L390.4,0L390.8,0L391.2,0L391.6,0L392,24L392.4,0L392.8,0L393.2,0L393.6,0L394,0L394.4,0L394.8,0L395.2,0L395.6,0L396,0L396.4,0L396.8,0L397.2,0L397.6,0L398,0L398.4,0L398.8,0L399.2,0L399.6,0L400,36" stroke="#4c78a8" stroke-width="2"/></g></g><path class="foreground" aria-hidden="true" d="" display="none"/></g></g><g class="mark-group role-legend" role="graphics-symbol" aria-roledescription="legend" aria-label="Symbol legend titled 'Model' for stroke color with 2 values: Architecture: 2 Layer, Architecture: 3 Layer"><g transform="translate(420,0)"><path class="background" aria-hidden="true" d="M0,0h154v63h-154Z" pointer-events="none"/><g><g class="mark-group role-legend-entry"><g transform="translate(0,21)"><path class="background" aria-hidden="true" d="M0,0h0v0h0Z" pointer-events="none"/><g><g class="mark-group role-scope" role="graphics-object" aria-roledescription="group mark container"><g transform="translate(0,0)"><path class="background" aria-hidden="true" d="M0,0h153.171875v20h-153.171875Z" pointer-events="none" opacity="1"/><g><g class="mark-symbol role-legend-symbol" pointer-events="none"><path transform="translate(10,10)" d="M-5,0L5,0" stroke="#4c78a8" stroke-width="10" opacity="1"/></g><g class="mark-text role-legend-label" pointer-events="none"><text text-anchor="start" transform="translate(24,14)" font-family="sans-serif" font-size="14px" fill="#000" opacity="1">Architecture: 2 Layer</text></g></g><path class="foreground" aria-hidden="true" d="" pointer-events="none" display="none"/></g><g transform="translate(0,22)"><path class="background" aria-hidden="true" d="M0,0h153.171875v20h-153.171875Z" pointer-events="none" opacity="1"/><g><g class="mark-symbol role-legend-symbol" pointer-events="none"><path transform="translate(10,10)" d="M-5,0L5,0" stroke="#f58518" stroke-width="10" opacity="1"/></g><g class="mark-text role-legend-label" pointer-events="none"><text text-anchor="start" transform="translate(24,14)" font-family="sans-serif" font-size="14px" fill="#000" opacity="1">Architecture: 3 Layer</text></g></g><path class="foreground" aria-hidden="true" d="" pointer-events="none" display="none"/></g></g></g><path class="foreground" aria-hidden="true" d="" pointer-events="none" display="none"/></g></g><g class="mark-text role-legend-title" pointer-events="none"><text text-anchor="start" transform="translate(0,13)" font-family="sans-serif" font-size="16px" font-weight="bold" fill="#000" opacity="1">Model</text></g></g><path class="foreground" aria-hidden="true" d="" pointer-events="none" display="none"/></g></g><g class="mark-group role-title"><g transform="translate(200,-29)"><path class="background" aria-hidden="true" d="M0,0h0v0h0Z" pointer-events="none"/><g><g class="mark-text role-title-text" role="graphics-symbol" aria-roledescription="title" aria-label="Title text 'Reward Overtime (LR=0.01)'" pointer-events="none"><text text-anchor="middle" transform="translate(0,14)" font-family="sans-serif" font-size="18px" font-weight="bold" fill="#000" opacity="1">Reward Overtime (LR=0.01)</text></g></g><path class="foreground" aria-hidden="true" d="" pointer-events="none" display="none"/></g></g></g><path class="foreground" aria-hidden="true" d="" display="none"/></g></g></g></svg>